G04 #@! TF.GenerationSoftware,KiCad,Pcbnew,(5.1.5-0-10_14)*
G04 #@! TF.CreationDate,2020-02-27T20:03:29-05:00*
G04 #@! TF.ProjectId,led_level_pcb,6c65645f-6c65-4766-956c-5f7063622e6b,rev?*
G04 #@! TF.SameCoordinates,Original*
G04 #@! TF.FileFunction,Copper,L1,Top*
G04 #@! TF.FilePolarity,Positive*
%FSLAX46Y46*%
G04 Gerber Fmt 4.6, Leading zero omitted, Abs format (unit mm)*
G04 Created by KiCad (PCBNEW (5.1.5-0-10_14)) date 2020-02-27 20:03:29*
%MOMM*%
%LPD*%
G04 APERTURE LIST*
%ADD10C,0.100000*%
%ADD11R,1.700000X1.700000*%
%ADD12C,1.700000*%
%ADD13R,0.650000X1.060000*%
%ADD14C,1.800000*%
%ADD15R,1.800000X1.800000*%
%ADD16O,1.700000X1.700000*%
%ADD17R,0.900000X0.800000*%
%ADD18C,2.000000*%
%ADD19R,0.450000X1.450000*%
%ADD20C,0.800000*%
%ADD21C,0.250000*%
%ADD22C,0.508000*%
%ADD23C,0.152400*%
%ADD24C,0.254000*%
G04 APERTURE END LIST*
G04 #@! TA.AperFunction,SMDPad,CuDef*
D10*
G36*
X205175279Y-30005644D02*
G01*
X205198334Y-30009063D01*
X205220943Y-30014727D01*
X205242887Y-30022579D01*
X205263957Y-30032544D01*
X205283948Y-30044526D01*
X205302668Y-30058410D01*
X205319938Y-30074062D01*
X205335590Y-30091332D01*
X205349474Y-30110052D01*
X205361456Y-30130043D01*
X205371421Y-30151113D01*
X205379273Y-30173057D01*
X205384937Y-30195666D01*
X205388356Y-30218721D01*
X205389500Y-30242000D01*
X205389500Y-30817000D01*
X205388356Y-30840279D01*
X205384937Y-30863334D01*
X205379273Y-30885943D01*
X205371421Y-30907887D01*
X205361456Y-30928957D01*
X205349474Y-30948948D01*
X205335590Y-30967668D01*
X205319938Y-30984938D01*
X205302668Y-31000590D01*
X205283948Y-31014474D01*
X205263957Y-31026456D01*
X205242887Y-31036421D01*
X205220943Y-31044273D01*
X205198334Y-31049937D01*
X205175279Y-31053356D01*
X205152000Y-31054500D01*
X204677000Y-31054500D01*
X204653721Y-31053356D01*
X204630666Y-31049937D01*
X204608057Y-31044273D01*
X204586113Y-31036421D01*
X204565043Y-31026456D01*
X204545052Y-31014474D01*
X204526332Y-31000590D01*
X204509062Y-30984938D01*
X204493410Y-30967668D01*
X204479526Y-30948948D01*
X204467544Y-30928957D01*
X204457579Y-30907887D01*
X204449727Y-30885943D01*
X204444063Y-30863334D01*
X204440644Y-30840279D01*
X204439500Y-30817000D01*
X204439500Y-30242000D01*
X204440644Y-30218721D01*
X204444063Y-30195666D01*
X204449727Y-30173057D01*
X204457579Y-30151113D01*
X204467544Y-30130043D01*
X204479526Y-30110052D01*
X204493410Y-30091332D01*
X204509062Y-30074062D01*
X204526332Y-30058410D01*
X204545052Y-30044526D01*
X204565043Y-30032544D01*
X204586113Y-30022579D01*
X204608057Y-30014727D01*
X204630666Y-30009063D01*
X204653721Y-30005644D01*
X204677000Y-30004500D01*
X205152000Y-30004500D01*
X205175279Y-30005644D01*
G37*
G04 #@! TD.AperFunction*
G04 #@! TA.AperFunction,SMDPad,CuDef*
G36*
X205175279Y-28255644D02*
G01*
X205198334Y-28259063D01*
X205220943Y-28264727D01*
X205242887Y-28272579D01*
X205263957Y-28282544D01*
X205283948Y-28294526D01*
X205302668Y-28308410D01*
X205319938Y-28324062D01*
X205335590Y-28341332D01*
X205349474Y-28360052D01*
X205361456Y-28380043D01*
X205371421Y-28401113D01*
X205379273Y-28423057D01*
X205384937Y-28445666D01*
X205388356Y-28468721D01*
X205389500Y-28492000D01*
X205389500Y-29067000D01*
X205388356Y-29090279D01*
X205384937Y-29113334D01*
X205379273Y-29135943D01*
X205371421Y-29157887D01*
X205361456Y-29178957D01*
X205349474Y-29198948D01*
X205335590Y-29217668D01*
X205319938Y-29234938D01*
X205302668Y-29250590D01*
X205283948Y-29264474D01*
X205263957Y-29276456D01*
X205242887Y-29286421D01*
X205220943Y-29294273D01*
X205198334Y-29299937D01*
X205175279Y-29303356D01*
X205152000Y-29304500D01*
X204677000Y-29304500D01*
X204653721Y-29303356D01*
X204630666Y-29299937D01*
X204608057Y-29294273D01*
X204586113Y-29286421D01*
X204565043Y-29276456D01*
X204545052Y-29264474D01*
X204526332Y-29250590D01*
X204509062Y-29234938D01*
X204493410Y-29217668D01*
X204479526Y-29198948D01*
X204467544Y-29178957D01*
X204457579Y-29157887D01*
X204449727Y-29135943D01*
X204444063Y-29113334D01*
X204440644Y-29090279D01*
X204439500Y-29067000D01*
X204439500Y-28492000D01*
X204440644Y-28468721D01*
X204444063Y-28445666D01*
X204449727Y-28423057D01*
X204457579Y-28401113D01*
X204467544Y-28380043D01*
X204479526Y-28360052D01*
X204493410Y-28341332D01*
X204509062Y-28324062D01*
X204526332Y-28308410D01*
X204545052Y-28294526D01*
X204565043Y-28282544D01*
X204586113Y-28272579D01*
X204608057Y-28264727D01*
X204630666Y-28259063D01*
X204653721Y-28255644D01*
X204677000Y-28254500D01*
X205152000Y-28254500D01*
X205175279Y-28255644D01*
G37*
G04 #@! TD.AperFunction*
G04 #@! TA.AperFunction,SMDPad,CuDef*
G36*
X217847779Y-83346144D02*
G01*
X217870834Y-83349563D01*
X217893443Y-83355227D01*
X217915387Y-83363079D01*
X217936457Y-83373044D01*
X217956448Y-83385026D01*
X217975168Y-83398910D01*
X217992438Y-83414562D01*
X218008090Y-83431832D01*
X218021974Y-83450552D01*
X218033956Y-83470543D01*
X218043921Y-83491613D01*
X218051773Y-83513557D01*
X218057437Y-83536166D01*
X218060856Y-83559221D01*
X218062000Y-83582500D01*
X218062000Y-84057500D01*
X218060856Y-84080779D01*
X218057437Y-84103834D01*
X218051773Y-84126443D01*
X218043921Y-84148387D01*
X218033956Y-84169457D01*
X218021974Y-84189448D01*
X218008090Y-84208168D01*
X217992438Y-84225438D01*
X217975168Y-84241090D01*
X217956448Y-84254974D01*
X217936457Y-84266956D01*
X217915387Y-84276921D01*
X217893443Y-84284773D01*
X217870834Y-84290437D01*
X217847779Y-84293856D01*
X217824500Y-84295000D01*
X217249500Y-84295000D01*
X217226221Y-84293856D01*
X217203166Y-84290437D01*
X217180557Y-84284773D01*
X217158613Y-84276921D01*
X217137543Y-84266956D01*
X217117552Y-84254974D01*
X217098832Y-84241090D01*
X217081562Y-84225438D01*
X217065910Y-84208168D01*
X217052026Y-84189448D01*
X217040044Y-84169457D01*
X217030079Y-84148387D01*
X217022227Y-84126443D01*
X217016563Y-84103834D01*
X217013144Y-84080779D01*
X217012000Y-84057500D01*
X217012000Y-83582500D01*
X217013144Y-83559221D01*
X217016563Y-83536166D01*
X217022227Y-83513557D01*
X217030079Y-83491613D01*
X217040044Y-83470543D01*
X217052026Y-83450552D01*
X217065910Y-83431832D01*
X217081562Y-83414562D01*
X217098832Y-83398910D01*
X217117552Y-83385026D01*
X217137543Y-83373044D01*
X217158613Y-83363079D01*
X217180557Y-83355227D01*
X217203166Y-83349563D01*
X217226221Y-83346144D01*
X217249500Y-83345000D01*
X217824500Y-83345000D01*
X217847779Y-83346144D01*
G37*
G04 #@! TD.AperFunction*
G04 #@! TA.AperFunction,SMDPad,CuDef*
G36*
X216097779Y-83346144D02*
G01*
X216120834Y-83349563D01*
X216143443Y-83355227D01*
X216165387Y-83363079D01*
X216186457Y-83373044D01*
X216206448Y-83385026D01*
X216225168Y-83398910D01*
X216242438Y-83414562D01*
X216258090Y-83431832D01*
X216271974Y-83450552D01*
X216283956Y-83470543D01*
X216293921Y-83491613D01*
X216301773Y-83513557D01*
X216307437Y-83536166D01*
X216310856Y-83559221D01*
X216312000Y-83582500D01*
X216312000Y-84057500D01*
X216310856Y-84080779D01*
X216307437Y-84103834D01*
X216301773Y-84126443D01*
X216293921Y-84148387D01*
X216283956Y-84169457D01*
X216271974Y-84189448D01*
X216258090Y-84208168D01*
X216242438Y-84225438D01*
X216225168Y-84241090D01*
X216206448Y-84254974D01*
X216186457Y-84266956D01*
X216165387Y-84276921D01*
X216143443Y-84284773D01*
X216120834Y-84290437D01*
X216097779Y-84293856D01*
X216074500Y-84295000D01*
X215499500Y-84295000D01*
X215476221Y-84293856D01*
X215453166Y-84290437D01*
X215430557Y-84284773D01*
X215408613Y-84276921D01*
X215387543Y-84266956D01*
X215367552Y-84254974D01*
X215348832Y-84241090D01*
X215331562Y-84225438D01*
X215315910Y-84208168D01*
X215302026Y-84189448D01*
X215290044Y-84169457D01*
X215280079Y-84148387D01*
X215272227Y-84126443D01*
X215266563Y-84103834D01*
X215263144Y-84080779D01*
X215262000Y-84057500D01*
X215262000Y-83582500D01*
X215263144Y-83559221D01*
X215266563Y-83536166D01*
X215272227Y-83513557D01*
X215280079Y-83491613D01*
X215290044Y-83470543D01*
X215302026Y-83450552D01*
X215315910Y-83431832D01*
X215331562Y-83414562D01*
X215348832Y-83398910D01*
X215367552Y-83385026D01*
X215387543Y-83373044D01*
X215408613Y-83363079D01*
X215430557Y-83355227D01*
X215453166Y-83349563D01*
X215476221Y-83346144D01*
X215499500Y-83345000D01*
X216074500Y-83345000D01*
X216097779Y-83346144D01*
G37*
G04 #@! TD.AperFunction*
G04 #@! TA.AperFunction,SMDPad,CuDef*
G36*
X218101779Y-77758144D02*
G01*
X218124834Y-77761563D01*
X218147443Y-77767227D01*
X218169387Y-77775079D01*
X218190457Y-77785044D01*
X218210448Y-77797026D01*
X218229168Y-77810910D01*
X218246438Y-77826562D01*
X218262090Y-77843832D01*
X218275974Y-77862552D01*
X218287956Y-77882543D01*
X218297921Y-77903613D01*
X218305773Y-77925557D01*
X218311437Y-77948166D01*
X218314856Y-77971221D01*
X218316000Y-77994500D01*
X218316000Y-78469500D01*
X218314856Y-78492779D01*
X218311437Y-78515834D01*
X218305773Y-78538443D01*
X218297921Y-78560387D01*
X218287956Y-78581457D01*
X218275974Y-78601448D01*
X218262090Y-78620168D01*
X218246438Y-78637438D01*
X218229168Y-78653090D01*
X218210448Y-78666974D01*
X218190457Y-78678956D01*
X218169387Y-78688921D01*
X218147443Y-78696773D01*
X218124834Y-78702437D01*
X218101779Y-78705856D01*
X218078500Y-78707000D01*
X217503500Y-78707000D01*
X217480221Y-78705856D01*
X217457166Y-78702437D01*
X217434557Y-78696773D01*
X217412613Y-78688921D01*
X217391543Y-78678956D01*
X217371552Y-78666974D01*
X217352832Y-78653090D01*
X217335562Y-78637438D01*
X217319910Y-78620168D01*
X217306026Y-78601448D01*
X217294044Y-78581457D01*
X217284079Y-78560387D01*
X217276227Y-78538443D01*
X217270563Y-78515834D01*
X217267144Y-78492779D01*
X217266000Y-78469500D01*
X217266000Y-77994500D01*
X217267144Y-77971221D01*
X217270563Y-77948166D01*
X217276227Y-77925557D01*
X217284079Y-77903613D01*
X217294044Y-77882543D01*
X217306026Y-77862552D01*
X217319910Y-77843832D01*
X217335562Y-77826562D01*
X217352832Y-77810910D01*
X217371552Y-77797026D01*
X217391543Y-77785044D01*
X217412613Y-77775079D01*
X217434557Y-77767227D01*
X217457166Y-77761563D01*
X217480221Y-77758144D01*
X217503500Y-77757000D01*
X218078500Y-77757000D01*
X218101779Y-77758144D01*
G37*
G04 #@! TD.AperFunction*
G04 #@! TA.AperFunction,SMDPad,CuDef*
G36*
X216351779Y-77758144D02*
G01*
X216374834Y-77761563D01*
X216397443Y-77767227D01*
X216419387Y-77775079D01*
X216440457Y-77785044D01*
X216460448Y-77797026D01*
X216479168Y-77810910D01*
X216496438Y-77826562D01*
X216512090Y-77843832D01*
X216525974Y-77862552D01*
X216537956Y-77882543D01*
X216547921Y-77903613D01*
X216555773Y-77925557D01*
X216561437Y-77948166D01*
X216564856Y-77971221D01*
X216566000Y-77994500D01*
X216566000Y-78469500D01*
X216564856Y-78492779D01*
X216561437Y-78515834D01*
X216555773Y-78538443D01*
X216547921Y-78560387D01*
X216537956Y-78581457D01*
X216525974Y-78601448D01*
X216512090Y-78620168D01*
X216496438Y-78637438D01*
X216479168Y-78653090D01*
X216460448Y-78666974D01*
X216440457Y-78678956D01*
X216419387Y-78688921D01*
X216397443Y-78696773D01*
X216374834Y-78702437D01*
X216351779Y-78705856D01*
X216328500Y-78707000D01*
X215753500Y-78707000D01*
X215730221Y-78705856D01*
X215707166Y-78702437D01*
X215684557Y-78696773D01*
X215662613Y-78688921D01*
X215641543Y-78678956D01*
X215621552Y-78666974D01*
X215602832Y-78653090D01*
X215585562Y-78637438D01*
X215569910Y-78620168D01*
X215556026Y-78601448D01*
X215544044Y-78581457D01*
X215534079Y-78560387D01*
X215526227Y-78538443D01*
X215520563Y-78515834D01*
X215517144Y-78492779D01*
X215516000Y-78469500D01*
X215516000Y-77994500D01*
X215517144Y-77971221D01*
X215520563Y-77948166D01*
X215526227Y-77925557D01*
X215534079Y-77903613D01*
X215544044Y-77882543D01*
X215556026Y-77862552D01*
X215569910Y-77843832D01*
X215585562Y-77826562D01*
X215602832Y-77810910D01*
X215621552Y-77797026D01*
X215641543Y-77785044D01*
X215662613Y-77775079D01*
X215684557Y-77767227D01*
X215707166Y-77761563D01*
X215730221Y-77758144D01*
X215753500Y-77757000D01*
X216328500Y-77757000D01*
X216351779Y-77758144D01*
G37*
G04 #@! TD.AperFunction*
G04 #@! TA.AperFunction,SMDPad,CuDef*
G36*
X218101779Y-70392144D02*
G01*
X218124834Y-70395563D01*
X218147443Y-70401227D01*
X218169387Y-70409079D01*
X218190457Y-70419044D01*
X218210448Y-70431026D01*
X218229168Y-70444910D01*
X218246438Y-70460562D01*
X218262090Y-70477832D01*
X218275974Y-70496552D01*
X218287956Y-70516543D01*
X218297921Y-70537613D01*
X218305773Y-70559557D01*
X218311437Y-70582166D01*
X218314856Y-70605221D01*
X218316000Y-70628500D01*
X218316000Y-71103500D01*
X218314856Y-71126779D01*
X218311437Y-71149834D01*
X218305773Y-71172443D01*
X218297921Y-71194387D01*
X218287956Y-71215457D01*
X218275974Y-71235448D01*
X218262090Y-71254168D01*
X218246438Y-71271438D01*
X218229168Y-71287090D01*
X218210448Y-71300974D01*
X218190457Y-71312956D01*
X218169387Y-71322921D01*
X218147443Y-71330773D01*
X218124834Y-71336437D01*
X218101779Y-71339856D01*
X218078500Y-71341000D01*
X217503500Y-71341000D01*
X217480221Y-71339856D01*
X217457166Y-71336437D01*
X217434557Y-71330773D01*
X217412613Y-71322921D01*
X217391543Y-71312956D01*
X217371552Y-71300974D01*
X217352832Y-71287090D01*
X217335562Y-71271438D01*
X217319910Y-71254168D01*
X217306026Y-71235448D01*
X217294044Y-71215457D01*
X217284079Y-71194387D01*
X217276227Y-71172443D01*
X217270563Y-71149834D01*
X217267144Y-71126779D01*
X217266000Y-71103500D01*
X217266000Y-70628500D01*
X217267144Y-70605221D01*
X217270563Y-70582166D01*
X217276227Y-70559557D01*
X217284079Y-70537613D01*
X217294044Y-70516543D01*
X217306026Y-70496552D01*
X217319910Y-70477832D01*
X217335562Y-70460562D01*
X217352832Y-70444910D01*
X217371552Y-70431026D01*
X217391543Y-70419044D01*
X217412613Y-70409079D01*
X217434557Y-70401227D01*
X217457166Y-70395563D01*
X217480221Y-70392144D01*
X217503500Y-70391000D01*
X218078500Y-70391000D01*
X218101779Y-70392144D01*
G37*
G04 #@! TD.AperFunction*
G04 #@! TA.AperFunction,SMDPad,CuDef*
G36*
X216351779Y-70392144D02*
G01*
X216374834Y-70395563D01*
X216397443Y-70401227D01*
X216419387Y-70409079D01*
X216440457Y-70419044D01*
X216460448Y-70431026D01*
X216479168Y-70444910D01*
X216496438Y-70460562D01*
X216512090Y-70477832D01*
X216525974Y-70496552D01*
X216537956Y-70516543D01*
X216547921Y-70537613D01*
X216555773Y-70559557D01*
X216561437Y-70582166D01*
X216564856Y-70605221D01*
X216566000Y-70628500D01*
X216566000Y-71103500D01*
X216564856Y-71126779D01*
X216561437Y-71149834D01*
X216555773Y-71172443D01*
X216547921Y-71194387D01*
X216537956Y-71215457D01*
X216525974Y-71235448D01*
X216512090Y-71254168D01*
X216496438Y-71271438D01*
X216479168Y-71287090D01*
X216460448Y-71300974D01*
X216440457Y-71312956D01*
X216419387Y-71322921D01*
X216397443Y-71330773D01*
X216374834Y-71336437D01*
X216351779Y-71339856D01*
X216328500Y-71341000D01*
X215753500Y-71341000D01*
X215730221Y-71339856D01*
X215707166Y-71336437D01*
X215684557Y-71330773D01*
X215662613Y-71322921D01*
X215641543Y-71312956D01*
X215621552Y-71300974D01*
X215602832Y-71287090D01*
X215585562Y-71271438D01*
X215569910Y-71254168D01*
X215556026Y-71235448D01*
X215544044Y-71215457D01*
X215534079Y-71194387D01*
X215526227Y-71172443D01*
X215520563Y-71149834D01*
X215517144Y-71126779D01*
X215516000Y-71103500D01*
X215516000Y-70628500D01*
X215517144Y-70605221D01*
X215520563Y-70582166D01*
X215526227Y-70559557D01*
X215534079Y-70537613D01*
X215544044Y-70516543D01*
X215556026Y-70496552D01*
X215569910Y-70477832D01*
X215585562Y-70460562D01*
X215602832Y-70444910D01*
X215621552Y-70431026D01*
X215641543Y-70419044D01*
X215662613Y-70409079D01*
X215684557Y-70401227D01*
X215707166Y-70395563D01*
X215730221Y-70392144D01*
X215753500Y-70391000D01*
X216328500Y-70391000D01*
X216351779Y-70392144D01*
G37*
G04 #@! TD.AperFunction*
G04 #@! TA.AperFunction,SMDPad,CuDef*
G36*
X218355779Y-63026144D02*
G01*
X218378834Y-63029563D01*
X218401443Y-63035227D01*
X218423387Y-63043079D01*
X218444457Y-63053044D01*
X218464448Y-63065026D01*
X218483168Y-63078910D01*
X218500438Y-63094562D01*
X218516090Y-63111832D01*
X218529974Y-63130552D01*
X218541956Y-63150543D01*
X218551921Y-63171613D01*
X218559773Y-63193557D01*
X218565437Y-63216166D01*
X218568856Y-63239221D01*
X218570000Y-63262500D01*
X218570000Y-63737500D01*
X218568856Y-63760779D01*
X218565437Y-63783834D01*
X218559773Y-63806443D01*
X218551921Y-63828387D01*
X218541956Y-63849457D01*
X218529974Y-63869448D01*
X218516090Y-63888168D01*
X218500438Y-63905438D01*
X218483168Y-63921090D01*
X218464448Y-63934974D01*
X218444457Y-63946956D01*
X218423387Y-63956921D01*
X218401443Y-63964773D01*
X218378834Y-63970437D01*
X218355779Y-63973856D01*
X218332500Y-63975000D01*
X217757500Y-63975000D01*
X217734221Y-63973856D01*
X217711166Y-63970437D01*
X217688557Y-63964773D01*
X217666613Y-63956921D01*
X217645543Y-63946956D01*
X217625552Y-63934974D01*
X217606832Y-63921090D01*
X217589562Y-63905438D01*
X217573910Y-63888168D01*
X217560026Y-63869448D01*
X217548044Y-63849457D01*
X217538079Y-63828387D01*
X217530227Y-63806443D01*
X217524563Y-63783834D01*
X217521144Y-63760779D01*
X217520000Y-63737500D01*
X217520000Y-63262500D01*
X217521144Y-63239221D01*
X217524563Y-63216166D01*
X217530227Y-63193557D01*
X217538079Y-63171613D01*
X217548044Y-63150543D01*
X217560026Y-63130552D01*
X217573910Y-63111832D01*
X217589562Y-63094562D01*
X217606832Y-63078910D01*
X217625552Y-63065026D01*
X217645543Y-63053044D01*
X217666613Y-63043079D01*
X217688557Y-63035227D01*
X217711166Y-63029563D01*
X217734221Y-63026144D01*
X217757500Y-63025000D01*
X218332500Y-63025000D01*
X218355779Y-63026144D01*
G37*
G04 #@! TD.AperFunction*
G04 #@! TA.AperFunction,SMDPad,CuDef*
G36*
X216605779Y-63026144D02*
G01*
X216628834Y-63029563D01*
X216651443Y-63035227D01*
X216673387Y-63043079D01*
X216694457Y-63053044D01*
X216714448Y-63065026D01*
X216733168Y-63078910D01*
X216750438Y-63094562D01*
X216766090Y-63111832D01*
X216779974Y-63130552D01*
X216791956Y-63150543D01*
X216801921Y-63171613D01*
X216809773Y-63193557D01*
X216815437Y-63216166D01*
X216818856Y-63239221D01*
X216820000Y-63262500D01*
X216820000Y-63737500D01*
X216818856Y-63760779D01*
X216815437Y-63783834D01*
X216809773Y-63806443D01*
X216801921Y-63828387D01*
X216791956Y-63849457D01*
X216779974Y-63869448D01*
X216766090Y-63888168D01*
X216750438Y-63905438D01*
X216733168Y-63921090D01*
X216714448Y-63934974D01*
X216694457Y-63946956D01*
X216673387Y-63956921D01*
X216651443Y-63964773D01*
X216628834Y-63970437D01*
X216605779Y-63973856D01*
X216582500Y-63975000D01*
X216007500Y-63975000D01*
X215984221Y-63973856D01*
X215961166Y-63970437D01*
X215938557Y-63964773D01*
X215916613Y-63956921D01*
X215895543Y-63946956D01*
X215875552Y-63934974D01*
X215856832Y-63921090D01*
X215839562Y-63905438D01*
X215823910Y-63888168D01*
X215810026Y-63869448D01*
X215798044Y-63849457D01*
X215788079Y-63828387D01*
X215780227Y-63806443D01*
X215774563Y-63783834D01*
X215771144Y-63760779D01*
X215770000Y-63737500D01*
X215770000Y-63262500D01*
X215771144Y-63239221D01*
X215774563Y-63216166D01*
X215780227Y-63193557D01*
X215788079Y-63171613D01*
X215798044Y-63150543D01*
X215810026Y-63130552D01*
X215823910Y-63111832D01*
X215839562Y-63094562D01*
X215856832Y-63078910D01*
X215875552Y-63065026D01*
X215895543Y-63053044D01*
X215916613Y-63043079D01*
X215938557Y-63035227D01*
X215961166Y-63029563D01*
X215984221Y-63026144D01*
X216007500Y-63025000D01*
X216582500Y-63025000D01*
X216605779Y-63026144D01*
G37*
G04 #@! TD.AperFunction*
G04 #@! TA.AperFunction,SMDPad,CuDef*
G36*
X218101779Y-55660144D02*
G01*
X218124834Y-55663563D01*
X218147443Y-55669227D01*
X218169387Y-55677079D01*
X218190457Y-55687044D01*
X218210448Y-55699026D01*
X218229168Y-55712910D01*
X218246438Y-55728562D01*
X218262090Y-55745832D01*
X218275974Y-55764552D01*
X218287956Y-55784543D01*
X218297921Y-55805613D01*
X218305773Y-55827557D01*
X218311437Y-55850166D01*
X218314856Y-55873221D01*
X218316000Y-55896500D01*
X218316000Y-56371500D01*
X218314856Y-56394779D01*
X218311437Y-56417834D01*
X218305773Y-56440443D01*
X218297921Y-56462387D01*
X218287956Y-56483457D01*
X218275974Y-56503448D01*
X218262090Y-56522168D01*
X218246438Y-56539438D01*
X218229168Y-56555090D01*
X218210448Y-56568974D01*
X218190457Y-56580956D01*
X218169387Y-56590921D01*
X218147443Y-56598773D01*
X218124834Y-56604437D01*
X218101779Y-56607856D01*
X218078500Y-56609000D01*
X217503500Y-56609000D01*
X217480221Y-56607856D01*
X217457166Y-56604437D01*
X217434557Y-56598773D01*
X217412613Y-56590921D01*
X217391543Y-56580956D01*
X217371552Y-56568974D01*
X217352832Y-56555090D01*
X217335562Y-56539438D01*
X217319910Y-56522168D01*
X217306026Y-56503448D01*
X217294044Y-56483457D01*
X217284079Y-56462387D01*
X217276227Y-56440443D01*
X217270563Y-56417834D01*
X217267144Y-56394779D01*
X217266000Y-56371500D01*
X217266000Y-55896500D01*
X217267144Y-55873221D01*
X217270563Y-55850166D01*
X217276227Y-55827557D01*
X217284079Y-55805613D01*
X217294044Y-55784543D01*
X217306026Y-55764552D01*
X217319910Y-55745832D01*
X217335562Y-55728562D01*
X217352832Y-55712910D01*
X217371552Y-55699026D01*
X217391543Y-55687044D01*
X217412613Y-55677079D01*
X217434557Y-55669227D01*
X217457166Y-55663563D01*
X217480221Y-55660144D01*
X217503500Y-55659000D01*
X218078500Y-55659000D01*
X218101779Y-55660144D01*
G37*
G04 #@! TD.AperFunction*
G04 #@! TA.AperFunction,SMDPad,CuDef*
G36*
X216351779Y-55660144D02*
G01*
X216374834Y-55663563D01*
X216397443Y-55669227D01*
X216419387Y-55677079D01*
X216440457Y-55687044D01*
X216460448Y-55699026D01*
X216479168Y-55712910D01*
X216496438Y-55728562D01*
X216512090Y-55745832D01*
X216525974Y-55764552D01*
X216537956Y-55784543D01*
X216547921Y-55805613D01*
X216555773Y-55827557D01*
X216561437Y-55850166D01*
X216564856Y-55873221D01*
X216566000Y-55896500D01*
X216566000Y-56371500D01*
X216564856Y-56394779D01*
X216561437Y-56417834D01*
X216555773Y-56440443D01*
X216547921Y-56462387D01*
X216537956Y-56483457D01*
X216525974Y-56503448D01*
X216512090Y-56522168D01*
X216496438Y-56539438D01*
X216479168Y-56555090D01*
X216460448Y-56568974D01*
X216440457Y-56580956D01*
X216419387Y-56590921D01*
X216397443Y-56598773D01*
X216374834Y-56604437D01*
X216351779Y-56607856D01*
X216328500Y-56609000D01*
X215753500Y-56609000D01*
X215730221Y-56607856D01*
X215707166Y-56604437D01*
X215684557Y-56598773D01*
X215662613Y-56590921D01*
X215641543Y-56580956D01*
X215621552Y-56568974D01*
X215602832Y-56555090D01*
X215585562Y-56539438D01*
X215569910Y-56522168D01*
X215556026Y-56503448D01*
X215544044Y-56483457D01*
X215534079Y-56462387D01*
X215526227Y-56440443D01*
X215520563Y-56417834D01*
X215517144Y-56394779D01*
X215516000Y-56371500D01*
X215516000Y-55896500D01*
X215517144Y-55873221D01*
X215520563Y-55850166D01*
X215526227Y-55827557D01*
X215534079Y-55805613D01*
X215544044Y-55784543D01*
X215556026Y-55764552D01*
X215569910Y-55745832D01*
X215585562Y-55728562D01*
X215602832Y-55712910D01*
X215621552Y-55699026D01*
X215641543Y-55687044D01*
X215662613Y-55677079D01*
X215684557Y-55669227D01*
X215707166Y-55663563D01*
X215730221Y-55660144D01*
X215753500Y-55659000D01*
X216328500Y-55659000D01*
X216351779Y-55660144D01*
G37*
G04 #@! TD.AperFunction*
G04 #@! TA.AperFunction,SMDPad,CuDef*
G36*
X218101779Y-48294144D02*
G01*
X218124834Y-48297563D01*
X218147443Y-48303227D01*
X218169387Y-48311079D01*
X218190457Y-48321044D01*
X218210448Y-48333026D01*
X218229168Y-48346910D01*
X218246438Y-48362562D01*
X218262090Y-48379832D01*
X218275974Y-48398552D01*
X218287956Y-48418543D01*
X218297921Y-48439613D01*
X218305773Y-48461557D01*
X218311437Y-48484166D01*
X218314856Y-48507221D01*
X218316000Y-48530500D01*
X218316000Y-49005500D01*
X218314856Y-49028779D01*
X218311437Y-49051834D01*
X218305773Y-49074443D01*
X218297921Y-49096387D01*
X218287956Y-49117457D01*
X218275974Y-49137448D01*
X218262090Y-49156168D01*
X218246438Y-49173438D01*
X218229168Y-49189090D01*
X218210448Y-49202974D01*
X218190457Y-49214956D01*
X218169387Y-49224921D01*
X218147443Y-49232773D01*
X218124834Y-49238437D01*
X218101779Y-49241856D01*
X218078500Y-49243000D01*
X217503500Y-49243000D01*
X217480221Y-49241856D01*
X217457166Y-49238437D01*
X217434557Y-49232773D01*
X217412613Y-49224921D01*
X217391543Y-49214956D01*
X217371552Y-49202974D01*
X217352832Y-49189090D01*
X217335562Y-49173438D01*
X217319910Y-49156168D01*
X217306026Y-49137448D01*
X217294044Y-49117457D01*
X217284079Y-49096387D01*
X217276227Y-49074443D01*
X217270563Y-49051834D01*
X217267144Y-49028779D01*
X217266000Y-49005500D01*
X217266000Y-48530500D01*
X217267144Y-48507221D01*
X217270563Y-48484166D01*
X217276227Y-48461557D01*
X217284079Y-48439613D01*
X217294044Y-48418543D01*
X217306026Y-48398552D01*
X217319910Y-48379832D01*
X217335562Y-48362562D01*
X217352832Y-48346910D01*
X217371552Y-48333026D01*
X217391543Y-48321044D01*
X217412613Y-48311079D01*
X217434557Y-48303227D01*
X217457166Y-48297563D01*
X217480221Y-48294144D01*
X217503500Y-48293000D01*
X218078500Y-48293000D01*
X218101779Y-48294144D01*
G37*
G04 #@! TD.AperFunction*
G04 #@! TA.AperFunction,SMDPad,CuDef*
G36*
X216351779Y-48294144D02*
G01*
X216374834Y-48297563D01*
X216397443Y-48303227D01*
X216419387Y-48311079D01*
X216440457Y-48321044D01*
X216460448Y-48333026D01*
X216479168Y-48346910D01*
X216496438Y-48362562D01*
X216512090Y-48379832D01*
X216525974Y-48398552D01*
X216537956Y-48418543D01*
X216547921Y-48439613D01*
X216555773Y-48461557D01*
X216561437Y-48484166D01*
X216564856Y-48507221D01*
X216566000Y-48530500D01*
X216566000Y-49005500D01*
X216564856Y-49028779D01*
X216561437Y-49051834D01*
X216555773Y-49074443D01*
X216547921Y-49096387D01*
X216537956Y-49117457D01*
X216525974Y-49137448D01*
X216512090Y-49156168D01*
X216496438Y-49173438D01*
X216479168Y-49189090D01*
X216460448Y-49202974D01*
X216440457Y-49214956D01*
X216419387Y-49224921D01*
X216397443Y-49232773D01*
X216374834Y-49238437D01*
X216351779Y-49241856D01*
X216328500Y-49243000D01*
X215753500Y-49243000D01*
X215730221Y-49241856D01*
X215707166Y-49238437D01*
X215684557Y-49232773D01*
X215662613Y-49224921D01*
X215641543Y-49214956D01*
X215621552Y-49202974D01*
X215602832Y-49189090D01*
X215585562Y-49173438D01*
X215569910Y-49156168D01*
X215556026Y-49137448D01*
X215544044Y-49117457D01*
X215534079Y-49096387D01*
X215526227Y-49074443D01*
X215520563Y-49051834D01*
X215517144Y-49028779D01*
X215516000Y-49005500D01*
X215516000Y-48530500D01*
X215517144Y-48507221D01*
X215520563Y-48484166D01*
X215526227Y-48461557D01*
X215534079Y-48439613D01*
X215544044Y-48418543D01*
X215556026Y-48398552D01*
X215569910Y-48379832D01*
X215585562Y-48362562D01*
X215602832Y-48346910D01*
X215621552Y-48333026D01*
X215641543Y-48321044D01*
X215662613Y-48311079D01*
X215684557Y-48303227D01*
X215707166Y-48297563D01*
X215730221Y-48294144D01*
X215753500Y-48293000D01*
X216328500Y-48293000D01*
X216351779Y-48294144D01*
G37*
G04 #@! TD.AperFunction*
G04 #@! TA.AperFunction,SMDPad,CuDef*
G36*
X218101779Y-40928144D02*
G01*
X218124834Y-40931563D01*
X218147443Y-40937227D01*
X218169387Y-40945079D01*
X218190457Y-40955044D01*
X218210448Y-40967026D01*
X218229168Y-40980910D01*
X218246438Y-40996562D01*
X218262090Y-41013832D01*
X218275974Y-41032552D01*
X218287956Y-41052543D01*
X218297921Y-41073613D01*
X218305773Y-41095557D01*
X218311437Y-41118166D01*
X218314856Y-41141221D01*
X218316000Y-41164500D01*
X218316000Y-41639500D01*
X218314856Y-41662779D01*
X218311437Y-41685834D01*
X218305773Y-41708443D01*
X218297921Y-41730387D01*
X218287956Y-41751457D01*
X218275974Y-41771448D01*
X218262090Y-41790168D01*
X218246438Y-41807438D01*
X218229168Y-41823090D01*
X218210448Y-41836974D01*
X218190457Y-41848956D01*
X218169387Y-41858921D01*
X218147443Y-41866773D01*
X218124834Y-41872437D01*
X218101779Y-41875856D01*
X218078500Y-41877000D01*
X217503500Y-41877000D01*
X217480221Y-41875856D01*
X217457166Y-41872437D01*
X217434557Y-41866773D01*
X217412613Y-41858921D01*
X217391543Y-41848956D01*
X217371552Y-41836974D01*
X217352832Y-41823090D01*
X217335562Y-41807438D01*
X217319910Y-41790168D01*
X217306026Y-41771448D01*
X217294044Y-41751457D01*
X217284079Y-41730387D01*
X217276227Y-41708443D01*
X217270563Y-41685834D01*
X217267144Y-41662779D01*
X217266000Y-41639500D01*
X217266000Y-41164500D01*
X217267144Y-41141221D01*
X217270563Y-41118166D01*
X217276227Y-41095557D01*
X217284079Y-41073613D01*
X217294044Y-41052543D01*
X217306026Y-41032552D01*
X217319910Y-41013832D01*
X217335562Y-40996562D01*
X217352832Y-40980910D01*
X217371552Y-40967026D01*
X217391543Y-40955044D01*
X217412613Y-40945079D01*
X217434557Y-40937227D01*
X217457166Y-40931563D01*
X217480221Y-40928144D01*
X217503500Y-40927000D01*
X218078500Y-40927000D01*
X218101779Y-40928144D01*
G37*
G04 #@! TD.AperFunction*
G04 #@! TA.AperFunction,SMDPad,CuDef*
G36*
X216351779Y-40928144D02*
G01*
X216374834Y-40931563D01*
X216397443Y-40937227D01*
X216419387Y-40945079D01*
X216440457Y-40955044D01*
X216460448Y-40967026D01*
X216479168Y-40980910D01*
X216496438Y-40996562D01*
X216512090Y-41013832D01*
X216525974Y-41032552D01*
X216537956Y-41052543D01*
X216547921Y-41073613D01*
X216555773Y-41095557D01*
X216561437Y-41118166D01*
X216564856Y-41141221D01*
X216566000Y-41164500D01*
X216566000Y-41639500D01*
X216564856Y-41662779D01*
X216561437Y-41685834D01*
X216555773Y-41708443D01*
X216547921Y-41730387D01*
X216537956Y-41751457D01*
X216525974Y-41771448D01*
X216512090Y-41790168D01*
X216496438Y-41807438D01*
X216479168Y-41823090D01*
X216460448Y-41836974D01*
X216440457Y-41848956D01*
X216419387Y-41858921D01*
X216397443Y-41866773D01*
X216374834Y-41872437D01*
X216351779Y-41875856D01*
X216328500Y-41877000D01*
X215753500Y-41877000D01*
X215730221Y-41875856D01*
X215707166Y-41872437D01*
X215684557Y-41866773D01*
X215662613Y-41858921D01*
X215641543Y-41848956D01*
X215621552Y-41836974D01*
X215602832Y-41823090D01*
X215585562Y-41807438D01*
X215569910Y-41790168D01*
X215556026Y-41771448D01*
X215544044Y-41751457D01*
X215534079Y-41730387D01*
X215526227Y-41708443D01*
X215520563Y-41685834D01*
X215517144Y-41662779D01*
X215516000Y-41639500D01*
X215516000Y-41164500D01*
X215517144Y-41141221D01*
X215520563Y-41118166D01*
X215526227Y-41095557D01*
X215534079Y-41073613D01*
X215544044Y-41052543D01*
X215556026Y-41032552D01*
X215569910Y-41013832D01*
X215585562Y-40996562D01*
X215602832Y-40980910D01*
X215621552Y-40967026D01*
X215641543Y-40955044D01*
X215662613Y-40945079D01*
X215684557Y-40937227D01*
X215707166Y-40931563D01*
X215730221Y-40928144D01*
X215753500Y-40927000D01*
X216328500Y-40927000D01*
X216351779Y-40928144D01*
G37*
G04 #@! TD.AperFunction*
G04 #@! TA.AperFunction,SMDPad,CuDef*
G36*
X218355779Y-33562144D02*
G01*
X218378834Y-33565563D01*
X218401443Y-33571227D01*
X218423387Y-33579079D01*
X218444457Y-33589044D01*
X218464448Y-33601026D01*
X218483168Y-33614910D01*
X218500438Y-33630562D01*
X218516090Y-33647832D01*
X218529974Y-33666552D01*
X218541956Y-33686543D01*
X218551921Y-33707613D01*
X218559773Y-33729557D01*
X218565437Y-33752166D01*
X218568856Y-33775221D01*
X218570000Y-33798500D01*
X218570000Y-34273500D01*
X218568856Y-34296779D01*
X218565437Y-34319834D01*
X218559773Y-34342443D01*
X218551921Y-34364387D01*
X218541956Y-34385457D01*
X218529974Y-34405448D01*
X218516090Y-34424168D01*
X218500438Y-34441438D01*
X218483168Y-34457090D01*
X218464448Y-34470974D01*
X218444457Y-34482956D01*
X218423387Y-34492921D01*
X218401443Y-34500773D01*
X218378834Y-34506437D01*
X218355779Y-34509856D01*
X218332500Y-34511000D01*
X217757500Y-34511000D01*
X217734221Y-34509856D01*
X217711166Y-34506437D01*
X217688557Y-34500773D01*
X217666613Y-34492921D01*
X217645543Y-34482956D01*
X217625552Y-34470974D01*
X217606832Y-34457090D01*
X217589562Y-34441438D01*
X217573910Y-34424168D01*
X217560026Y-34405448D01*
X217548044Y-34385457D01*
X217538079Y-34364387D01*
X217530227Y-34342443D01*
X217524563Y-34319834D01*
X217521144Y-34296779D01*
X217520000Y-34273500D01*
X217520000Y-33798500D01*
X217521144Y-33775221D01*
X217524563Y-33752166D01*
X217530227Y-33729557D01*
X217538079Y-33707613D01*
X217548044Y-33686543D01*
X217560026Y-33666552D01*
X217573910Y-33647832D01*
X217589562Y-33630562D01*
X217606832Y-33614910D01*
X217625552Y-33601026D01*
X217645543Y-33589044D01*
X217666613Y-33579079D01*
X217688557Y-33571227D01*
X217711166Y-33565563D01*
X217734221Y-33562144D01*
X217757500Y-33561000D01*
X218332500Y-33561000D01*
X218355779Y-33562144D01*
G37*
G04 #@! TD.AperFunction*
G04 #@! TA.AperFunction,SMDPad,CuDef*
G36*
X216605779Y-33562144D02*
G01*
X216628834Y-33565563D01*
X216651443Y-33571227D01*
X216673387Y-33579079D01*
X216694457Y-33589044D01*
X216714448Y-33601026D01*
X216733168Y-33614910D01*
X216750438Y-33630562D01*
X216766090Y-33647832D01*
X216779974Y-33666552D01*
X216791956Y-33686543D01*
X216801921Y-33707613D01*
X216809773Y-33729557D01*
X216815437Y-33752166D01*
X216818856Y-33775221D01*
X216820000Y-33798500D01*
X216820000Y-34273500D01*
X216818856Y-34296779D01*
X216815437Y-34319834D01*
X216809773Y-34342443D01*
X216801921Y-34364387D01*
X216791956Y-34385457D01*
X216779974Y-34405448D01*
X216766090Y-34424168D01*
X216750438Y-34441438D01*
X216733168Y-34457090D01*
X216714448Y-34470974D01*
X216694457Y-34482956D01*
X216673387Y-34492921D01*
X216651443Y-34500773D01*
X216628834Y-34506437D01*
X216605779Y-34509856D01*
X216582500Y-34511000D01*
X216007500Y-34511000D01*
X215984221Y-34509856D01*
X215961166Y-34506437D01*
X215938557Y-34500773D01*
X215916613Y-34492921D01*
X215895543Y-34482956D01*
X215875552Y-34470974D01*
X215856832Y-34457090D01*
X215839562Y-34441438D01*
X215823910Y-34424168D01*
X215810026Y-34405448D01*
X215798044Y-34385457D01*
X215788079Y-34364387D01*
X215780227Y-34342443D01*
X215774563Y-34319834D01*
X215771144Y-34296779D01*
X215770000Y-34273500D01*
X215770000Y-33798500D01*
X215771144Y-33775221D01*
X215774563Y-33752166D01*
X215780227Y-33729557D01*
X215788079Y-33707613D01*
X215798044Y-33686543D01*
X215810026Y-33666552D01*
X215823910Y-33647832D01*
X215839562Y-33630562D01*
X215856832Y-33614910D01*
X215875552Y-33601026D01*
X215895543Y-33589044D01*
X215916613Y-33579079D01*
X215938557Y-33571227D01*
X215961166Y-33565563D01*
X215984221Y-33562144D01*
X216007500Y-33561000D01*
X216582500Y-33561000D01*
X216605779Y-33562144D01*
G37*
G04 #@! TD.AperFunction*
G04 #@! TA.AperFunction,SMDPad,CuDef*
G36*
X218355779Y-26196144D02*
G01*
X218378834Y-26199563D01*
X218401443Y-26205227D01*
X218423387Y-26213079D01*
X218444457Y-26223044D01*
X218464448Y-26235026D01*
X218483168Y-26248910D01*
X218500438Y-26264562D01*
X218516090Y-26281832D01*
X218529974Y-26300552D01*
X218541956Y-26320543D01*
X218551921Y-26341613D01*
X218559773Y-26363557D01*
X218565437Y-26386166D01*
X218568856Y-26409221D01*
X218570000Y-26432500D01*
X218570000Y-26907500D01*
X218568856Y-26930779D01*
X218565437Y-26953834D01*
X218559773Y-26976443D01*
X218551921Y-26998387D01*
X218541956Y-27019457D01*
X218529974Y-27039448D01*
X218516090Y-27058168D01*
X218500438Y-27075438D01*
X218483168Y-27091090D01*
X218464448Y-27104974D01*
X218444457Y-27116956D01*
X218423387Y-27126921D01*
X218401443Y-27134773D01*
X218378834Y-27140437D01*
X218355779Y-27143856D01*
X218332500Y-27145000D01*
X217757500Y-27145000D01*
X217734221Y-27143856D01*
X217711166Y-27140437D01*
X217688557Y-27134773D01*
X217666613Y-27126921D01*
X217645543Y-27116956D01*
X217625552Y-27104974D01*
X217606832Y-27091090D01*
X217589562Y-27075438D01*
X217573910Y-27058168D01*
X217560026Y-27039448D01*
X217548044Y-27019457D01*
X217538079Y-26998387D01*
X217530227Y-26976443D01*
X217524563Y-26953834D01*
X217521144Y-26930779D01*
X217520000Y-26907500D01*
X217520000Y-26432500D01*
X217521144Y-26409221D01*
X217524563Y-26386166D01*
X217530227Y-26363557D01*
X217538079Y-26341613D01*
X217548044Y-26320543D01*
X217560026Y-26300552D01*
X217573910Y-26281832D01*
X217589562Y-26264562D01*
X217606832Y-26248910D01*
X217625552Y-26235026D01*
X217645543Y-26223044D01*
X217666613Y-26213079D01*
X217688557Y-26205227D01*
X217711166Y-26199563D01*
X217734221Y-26196144D01*
X217757500Y-26195000D01*
X218332500Y-26195000D01*
X218355779Y-26196144D01*
G37*
G04 #@! TD.AperFunction*
G04 #@! TA.AperFunction,SMDPad,CuDef*
G36*
X216605779Y-26196144D02*
G01*
X216628834Y-26199563D01*
X216651443Y-26205227D01*
X216673387Y-26213079D01*
X216694457Y-26223044D01*
X216714448Y-26235026D01*
X216733168Y-26248910D01*
X216750438Y-26264562D01*
X216766090Y-26281832D01*
X216779974Y-26300552D01*
X216791956Y-26320543D01*
X216801921Y-26341613D01*
X216809773Y-26363557D01*
X216815437Y-26386166D01*
X216818856Y-26409221D01*
X216820000Y-26432500D01*
X216820000Y-26907500D01*
X216818856Y-26930779D01*
X216815437Y-26953834D01*
X216809773Y-26976443D01*
X216801921Y-26998387D01*
X216791956Y-27019457D01*
X216779974Y-27039448D01*
X216766090Y-27058168D01*
X216750438Y-27075438D01*
X216733168Y-27091090D01*
X216714448Y-27104974D01*
X216694457Y-27116956D01*
X216673387Y-27126921D01*
X216651443Y-27134773D01*
X216628834Y-27140437D01*
X216605779Y-27143856D01*
X216582500Y-27145000D01*
X216007500Y-27145000D01*
X215984221Y-27143856D01*
X215961166Y-27140437D01*
X215938557Y-27134773D01*
X215916613Y-27126921D01*
X215895543Y-27116956D01*
X215875552Y-27104974D01*
X215856832Y-27091090D01*
X215839562Y-27075438D01*
X215823910Y-27058168D01*
X215810026Y-27039448D01*
X215798044Y-27019457D01*
X215788079Y-26998387D01*
X215780227Y-26976443D01*
X215774563Y-26953834D01*
X215771144Y-26930779D01*
X215770000Y-26907500D01*
X215770000Y-26432500D01*
X215771144Y-26409221D01*
X215774563Y-26386166D01*
X215780227Y-26363557D01*
X215788079Y-26341613D01*
X215798044Y-26320543D01*
X215810026Y-26300552D01*
X215823910Y-26281832D01*
X215839562Y-26264562D01*
X215856832Y-26248910D01*
X215875552Y-26235026D01*
X215895543Y-26223044D01*
X215916613Y-26213079D01*
X215938557Y-26205227D01*
X215961166Y-26199563D01*
X215984221Y-26196144D01*
X216007500Y-26195000D01*
X216582500Y-26195000D01*
X216605779Y-26196144D01*
G37*
G04 #@! TD.AperFunction*
D11*
X184912000Y-46990000D03*
D12*
X184912000Y-49530000D03*
X184912000Y-52070000D03*
X184912000Y-54610000D03*
X184912000Y-57150000D03*
X184912000Y-59690000D03*
X184912000Y-62230000D03*
X184912000Y-64770000D03*
X184912000Y-67310000D03*
D13*
X200975000Y-24808000D03*
X200025000Y-24808000D03*
X199075000Y-24808000D03*
X199075000Y-27008000D03*
X200975000Y-27008000D03*
D14*
X223520000Y-85598000D03*
D15*
X220980000Y-85598000D03*
X220980000Y-26670000D03*
D14*
X223520000Y-26670000D03*
D15*
X220980000Y-34036000D03*
D14*
X223520000Y-34036000D03*
X223520000Y-41402000D03*
D15*
X220980000Y-41402000D03*
D14*
X223520000Y-48768000D03*
D15*
X220980000Y-48768000D03*
X220980000Y-56134000D03*
D14*
X223520000Y-56134000D03*
D15*
X220980000Y-63500000D03*
D14*
X223520000Y-63500000D03*
X223520000Y-70866000D03*
D15*
X220980000Y-70866000D03*
X220980000Y-78232000D03*
D14*
X223520000Y-78232000D03*
D11*
X183388000Y-26416000D03*
D16*
X183388000Y-28956000D03*
X183388000Y-31496000D03*
X183388000Y-34036000D03*
X183388000Y-36576000D03*
D11*
X192278000Y-25908000D03*
D16*
X189738000Y-25908000D03*
D17*
X214360000Y-26670000D03*
X212360000Y-27620000D03*
X212360000Y-25720000D03*
X212360000Y-33086000D03*
X212360000Y-34986000D03*
X214360000Y-34036000D03*
X212106000Y-40452000D03*
X212106000Y-42352000D03*
X214106000Y-41402000D03*
X214106000Y-48768000D03*
X212106000Y-49718000D03*
X212106000Y-47818000D03*
X211852000Y-55184000D03*
X211852000Y-57084000D03*
X213852000Y-56134000D03*
X214106000Y-63500000D03*
X212106000Y-64450000D03*
X212106000Y-62550000D03*
X212106000Y-69916000D03*
X212106000Y-71816000D03*
X214106000Y-70866000D03*
X214360000Y-78232000D03*
X212360000Y-79182000D03*
X212360000Y-77282000D03*
X211852000Y-82870000D03*
X211852000Y-84770000D03*
X213852000Y-83820000D03*
D18*
X185778000Y-81280000D03*
X185778000Y-76780000D03*
X192278000Y-81280000D03*
X192278000Y-76780000D03*
X203962000Y-76780000D03*
X203962000Y-81280000D03*
X197462000Y-76780000D03*
X197462000Y-81280000D03*
D19*
X196359998Y-31067042D03*
X195709998Y-31067042D03*
X195059998Y-31067042D03*
X194409998Y-31067042D03*
X193759998Y-31067042D03*
X193109998Y-31067042D03*
X192459998Y-31067042D03*
X191809998Y-31067042D03*
X191159998Y-31067042D03*
X190509998Y-31067042D03*
X190509998Y-36967042D03*
X191159998Y-36967042D03*
X191809998Y-36967042D03*
X192459998Y-36967042D03*
X193109998Y-36967042D03*
X193759998Y-36967042D03*
X194409998Y-36967042D03*
X195059998Y-36967042D03*
X195709998Y-36967042D03*
X196359998Y-36967042D03*
D11*
X191204998Y-72019042D03*
D16*
X188664998Y-72019042D03*
X186124998Y-72019042D03*
G04 #@! TA.AperFunction,SMDPad,CuDef*
D10*
G36*
X199410777Y-29443186D02*
G01*
X199433832Y-29446605D01*
X199456441Y-29452269D01*
X199478385Y-29460121D01*
X199499455Y-29470086D01*
X199519446Y-29482068D01*
X199538166Y-29495952D01*
X199555436Y-29511604D01*
X199571088Y-29528874D01*
X199584972Y-29547594D01*
X199596954Y-29567585D01*
X199606919Y-29588655D01*
X199614771Y-29610599D01*
X199620435Y-29633208D01*
X199623854Y-29656263D01*
X199624998Y-29679542D01*
X199624998Y-30254542D01*
X199623854Y-30277821D01*
X199620435Y-30300876D01*
X199614771Y-30323485D01*
X199606919Y-30345429D01*
X199596954Y-30366499D01*
X199584972Y-30386490D01*
X199571088Y-30405210D01*
X199555436Y-30422480D01*
X199538166Y-30438132D01*
X199519446Y-30452016D01*
X199499455Y-30463998D01*
X199478385Y-30473963D01*
X199456441Y-30481815D01*
X199433832Y-30487479D01*
X199410777Y-30490898D01*
X199387498Y-30492042D01*
X198912498Y-30492042D01*
X198889219Y-30490898D01*
X198866164Y-30487479D01*
X198843555Y-30481815D01*
X198821611Y-30473963D01*
X198800541Y-30463998D01*
X198780550Y-30452016D01*
X198761830Y-30438132D01*
X198744560Y-30422480D01*
X198728908Y-30405210D01*
X198715024Y-30386490D01*
X198703042Y-30366499D01*
X198693077Y-30345429D01*
X198685225Y-30323485D01*
X198679561Y-30300876D01*
X198676142Y-30277821D01*
X198674998Y-30254542D01*
X198674998Y-29679542D01*
X198676142Y-29656263D01*
X198679561Y-29633208D01*
X198685225Y-29610599D01*
X198693077Y-29588655D01*
X198703042Y-29567585D01*
X198715024Y-29547594D01*
X198728908Y-29528874D01*
X198744560Y-29511604D01*
X198761830Y-29495952D01*
X198780550Y-29482068D01*
X198800541Y-29470086D01*
X198821611Y-29460121D01*
X198843555Y-29452269D01*
X198866164Y-29446605D01*
X198889219Y-29443186D01*
X198912498Y-29442042D01*
X199387498Y-29442042D01*
X199410777Y-29443186D01*
G37*
G04 #@! TD.AperFunction*
G04 #@! TA.AperFunction,SMDPad,CuDef*
G36*
X199410777Y-31193186D02*
G01*
X199433832Y-31196605D01*
X199456441Y-31202269D01*
X199478385Y-31210121D01*
X199499455Y-31220086D01*
X199519446Y-31232068D01*
X199538166Y-31245952D01*
X199555436Y-31261604D01*
X199571088Y-31278874D01*
X199584972Y-31297594D01*
X199596954Y-31317585D01*
X199606919Y-31338655D01*
X199614771Y-31360599D01*
X199620435Y-31383208D01*
X199623854Y-31406263D01*
X199624998Y-31429542D01*
X199624998Y-32004542D01*
X199623854Y-32027821D01*
X199620435Y-32050876D01*
X199614771Y-32073485D01*
X199606919Y-32095429D01*
X199596954Y-32116499D01*
X199584972Y-32136490D01*
X199571088Y-32155210D01*
X199555436Y-32172480D01*
X199538166Y-32188132D01*
X199519446Y-32202016D01*
X199499455Y-32213998D01*
X199478385Y-32223963D01*
X199456441Y-32231815D01*
X199433832Y-32237479D01*
X199410777Y-32240898D01*
X199387498Y-32242042D01*
X198912498Y-32242042D01*
X198889219Y-32240898D01*
X198866164Y-32237479D01*
X198843555Y-32231815D01*
X198821611Y-32223963D01*
X198800541Y-32213998D01*
X198780550Y-32202016D01*
X198761830Y-32188132D01*
X198744560Y-32172480D01*
X198728908Y-32155210D01*
X198715024Y-32136490D01*
X198703042Y-32116499D01*
X198693077Y-32095429D01*
X198685225Y-32073485D01*
X198679561Y-32050876D01*
X198676142Y-32027821D01*
X198674998Y-32004542D01*
X198674998Y-31429542D01*
X198676142Y-31406263D01*
X198679561Y-31383208D01*
X198685225Y-31360599D01*
X198693077Y-31338655D01*
X198703042Y-31317585D01*
X198715024Y-31297594D01*
X198728908Y-31278874D01*
X198744560Y-31261604D01*
X198761830Y-31245952D01*
X198780550Y-31232068D01*
X198800541Y-31220086D01*
X198821611Y-31210121D01*
X198843555Y-31202269D01*
X198866164Y-31196605D01*
X198889219Y-31193186D01*
X198912498Y-31192042D01*
X199387498Y-31192042D01*
X199410777Y-31193186D01*
G37*
G04 #@! TD.AperFunction*
G04 #@! TA.AperFunction,SMDPad,CuDef*
G36*
X202579504Y-28408204D02*
G01*
X202603773Y-28411804D01*
X202627571Y-28417765D01*
X202650671Y-28426030D01*
X202672849Y-28436520D01*
X202693893Y-28449133D01*
X202713598Y-28463747D01*
X202731777Y-28480223D01*
X202748253Y-28498402D01*
X202762867Y-28518107D01*
X202775480Y-28539151D01*
X202785970Y-28561329D01*
X202794235Y-28584429D01*
X202800196Y-28608227D01*
X202803796Y-28632496D01*
X202805000Y-28657000D01*
X202805000Y-29582000D01*
X202803796Y-29606504D01*
X202800196Y-29630773D01*
X202794235Y-29654571D01*
X202785970Y-29677671D01*
X202775480Y-29699849D01*
X202762867Y-29720893D01*
X202748253Y-29740598D01*
X202731777Y-29758777D01*
X202713598Y-29775253D01*
X202693893Y-29789867D01*
X202672849Y-29802480D01*
X202650671Y-29812970D01*
X202627571Y-29821235D01*
X202603773Y-29827196D01*
X202579504Y-29830796D01*
X202555000Y-29832000D01*
X201305000Y-29832000D01*
X201280496Y-29830796D01*
X201256227Y-29827196D01*
X201232429Y-29821235D01*
X201209329Y-29812970D01*
X201187151Y-29802480D01*
X201166107Y-29789867D01*
X201146402Y-29775253D01*
X201128223Y-29758777D01*
X201111747Y-29740598D01*
X201097133Y-29720893D01*
X201084520Y-29699849D01*
X201074030Y-29677671D01*
X201065765Y-29654571D01*
X201059804Y-29630773D01*
X201056204Y-29606504D01*
X201055000Y-29582000D01*
X201055000Y-28657000D01*
X201056204Y-28632496D01*
X201059804Y-28608227D01*
X201065765Y-28584429D01*
X201074030Y-28561329D01*
X201084520Y-28539151D01*
X201097133Y-28518107D01*
X201111747Y-28498402D01*
X201128223Y-28480223D01*
X201146402Y-28463747D01*
X201166107Y-28449133D01*
X201187151Y-28436520D01*
X201209329Y-28426030D01*
X201232429Y-28417765D01*
X201256227Y-28411804D01*
X201280496Y-28408204D01*
X201305000Y-28407000D01*
X202555000Y-28407000D01*
X202579504Y-28408204D01*
G37*
G04 #@! TD.AperFunction*
G04 #@! TA.AperFunction,SMDPad,CuDef*
G36*
X202579504Y-31383204D02*
G01*
X202603773Y-31386804D01*
X202627571Y-31392765D01*
X202650671Y-31401030D01*
X202672849Y-31411520D01*
X202693893Y-31424133D01*
X202713598Y-31438747D01*
X202731777Y-31455223D01*
X202748253Y-31473402D01*
X202762867Y-31493107D01*
X202775480Y-31514151D01*
X202785970Y-31536329D01*
X202794235Y-31559429D01*
X202800196Y-31583227D01*
X202803796Y-31607496D01*
X202805000Y-31632000D01*
X202805000Y-32557000D01*
X202803796Y-32581504D01*
X202800196Y-32605773D01*
X202794235Y-32629571D01*
X202785970Y-32652671D01*
X202775480Y-32674849D01*
X202762867Y-32695893D01*
X202748253Y-32715598D01*
X202731777Y-32733777D01*
X202713598Y-32750253D01*
X202693893Y-32764867D01*
X202672849Y-32777480D01*
X202650671Y-32787970D01*
X202627571Y-32796235D01*
X202603773Y-32802196D01*
X202579504Y-32805796D01*
X202555000Y-32807000D01*
X201305000Y-32807000D01*
X201280496Y-32805796D01*
X201256227Y-32802196D01*
X201232429Y-32796235D01*
X201209329Y-32787970D01*
X201187151Y-32777480D01*
X201166107Y-32764867D01*
X201146402Y-32750253D01*
X201128223Y-32733777D01*
X201111747Y-32715598D01*
X201097133Y-32695893D01*
X201084520Y-32674849D01*
X201074030Y-32652671D01*
X201065765Y-32629571D01*
X201059804Y-32605773D01*
X201056204Y-32581504D01*
X201055000Y-32557000D01*
X201055000Y-31632000D01*
X201056204Y-31607496D01*
X201059804Y-31583227D01*
X201065765Y-31559429D01*
X201074030Y-31536329D01*
X201084520Y-31514151D01*
X201097133Y-31493107D01*
X201111747Y-31473402D01*
X201128223Y-31455223D01*
X201146402Y-31438747D01*
X201166107Y-31424133D01*
X201187151Y-31411520D01*
X201209329Y-31401030D01*
X201232429Y-31392765D01*
X201256227Y-31386804D01*
X201280496Y-31383204D01*
X201305000Y-31382000D01*
X202555000Y-31382000D01*
X202579504Y-31383204D01*
G37*
G04 #@! TD.AperFunction*
G04 #@! TA.AperFunction,SMDPad,CuDef*
G36*
X193110779Y-39785144D02*
G01*
X193133834Y-39788563D01*
X193156443Y-39794227D01*
X193178387Y-39802079D01*
X193199457Y-39812044D01*
X193219448Y-39824026D01*
X193238168Y-39837910D01*
X193255438Y-39853562D01*
X193271090Y-39870832D01*
X193284974Y-39889552D01*
X193296956Y-39909543D01*
X193306921Y-39930613D01*
X193314773Y-39952557D01*
X193320437Y-39975166D01*
X193323856Y-39998221D01*
X193325000Y-40021500D01*
X193325000Y-40496500D01*
X193323856Y-40519779D01*
X193320437Y-40542834D01*
X193314773Y-40565443D01*
X193306921Y-40587387D01*
X193296956Y-40608457D01*
X193284974Y-40628448D01*
X193271090Y-40647168D01*
X193255438Y-40664438D01*
X193238168Y-40680090D01*
X193219448Y-40693974D01*
X193199457Y-40705956D01*
X193178387Y-40715921D01*
X193156443Y-40723773D01*
X193133834Y-40729437D01*
X193110779Y-40732856D01*
X193087500Y-40734000D01*
X192512500Y-40734000D01*
X192489221Y-40732856D01*
X192466166Y-40729437D01*
X192443557Y-40723773D01*
X192421613Y-40715921D01*
X192400543Y-40705956D01*
X192380552Y-40693974D01*
X192361832Y-40680090D01*
X192344562Y-40664438D01*
X192328910Y-40647168D01*
X192315026Y-40628448D01*
X192303044Y-40608457D01*
X192293079Y-40587387D01*
X192285227Y-40565443D01*
X192279563Y-40542834D01*
X192276144Y-40519779D01*
X192275000Y-40496500D01*
X192275000Y-40021500D01*
X192276144Y-39998221D01*
X192279563Y-39975166D01*
X192285227Y-39952557D01*
X192293079Y-39930613D01*
X192303044Y-39909543D01*
X192315026Y-39889552D01*
X192328910Y-39870832D01*
X192344562Y-39853562D01*
X192361832Y-39837910D01*
X192380552Y-39824026D01*
X192400543Y-39812044D01*
X192421613Y-39802079D01*
X192443557Y-39794227D01*
X192466166Y-39788563D01*
X192489221Y-39785144D01*
X192512500Y-39784000D01*
X193087500Y-39784000D01*
X193110779Y-39785144D01*
G37*
G04 #@! TD.AperFunction*
G04 #@! TA.AperFunction,SMDPad,CuDef*
G36*
X194860779Y-39785144D02*
G01*
X194883834Y-39788563D01*
X194906443Y-39794227D01*
X194928387Y-39802079D01*
X194949457Y-39812044D01*
X194969448Y-39824026D01*
X194988168Y-39837910D01*
X195005438Y-39853562D01*
X195021090Y-39870832D01*
X195034974Y-39889552D01*
X195046956Y-39909543D01*
X195056921Y-39930613D01*
X195064773Y-39952557D01*
X195070437Y-39975166D01*
X195073856Y-39998221D01*
X195075000Y-40021500D01*
X195075000Y-40496500D01*
X195073856Y-40519779D01*
X195070437Y-40542834D01*
X195064773Y-40565443D01*
X195056921Y-40587387D01*
X195046956Y-40608457D01*
X195034974Y-40628448D01*
X195021090Y-40647168D01*
X195005438Y-40664438D01*
X194988168Y-40680090D01*
X194969448Y-40693974D01*
X194949457Y-40705956D01*
X194928387Y-40715921D01*
X194906443Y-40723773D01*
X194883834Y-40729437D01*
X194860779Y-40732856D01*
X194837500Y-40734000D01*
X194262500Y-40734000D01*
X194239221Y-40732856D01*
X194216166Y-40729437D01*
X194193557Y-40723773D01*
X194171613Y-40715921D01*
X194150543Y-40705956D01*
X194130552Y-40693974D01*
X194111832Y-40680090D01*
X194094562Y-40664438D01*
X194078910Y-40647168D01*
X194065026Y-40628448D01*
X194053044Y-40608457D01*
X194043079Y-40587387D01*
X194035227Y-40565443D01*
X194029563Y-40542834D01*
X194026144Y-40519779D01*
X194025000Y-40496500D01*
X194025000Y-40021500D01*
X194026144Y-39998221D01*
X194029563Y-39975166D01*
X194035227Y-39952557D01*
X194043079Y-39930613D01*
X194053044Y-39909543D01*
X194065026Y-39889552D01*
X194078910Y-39870832D01*
X194094562Y-39853562D01*
X194111832Y-39837910D01*
X194130552Y-39824026D01*
X194150543Y-39812044D01*
X194171613Y-39802079D01*
X194193557Y-39794227D01*
X194216166Y-39788563D01*
X194239221Y-39785144D01*
X194262500Y-39784000D01*
X194837500Y-39784000D01*
X194860779Y-39785144D01*
G37*
G04 #@! TD.AperFunction*
G04 #@! TA.AperFunction,SMDPad,CuDef*
G36*
X193436504Y-41671204D02*
G01*
X193460773Y-41674804D01*
X193484571Y-41680765D01*
X193507671Y-41689030D01*
X193529849Y-41699520D01*
X193550893Y-41712133D01*
X193570598Y-41726747D01*
X193588777Y-41743223D01*
X193605253Y-41761402D01*
X193619867Y-41781107D01*
X193632480Y-41802151D01*
X193642970Y-41824329D01*
X193651235Y-41847429D01*
X193657196Y-41871227D01*
X193660796Y-41895496D01*
X193662000Y-41920000D01*
X193662000Y-43170000D01*
X193660796Y-43194504D01*
X193657196Y-43218773D01*
X193651235Y-43242571D01*
X193642970Y-43265671D01*
X193632480Y-43287849D01*
X193619867Y-43308893D01*
X193605253Y-43328598D01*
X193588777Y-43346777D01*
X193570598Y-43363253D01*
X193550893Y-43377867D01*
X193529849Y-43390480D01*
X193507671Y-43400970D01*
X193484571Y-43409235D01*
X193460773Y-43415196D01*
X193436504Y-43418796D01*
X193412000Y-43420000D01*
X192487000Y-43420000D01*
X192462496Y-43418796D01*
X192438227Y-43415196D01*
X192414429Y-43409235D01*
X192391329Y-43400970D01*
X192369151Y-43390480D01*
X192348107Y-43377867D01*
X192328402Y-43363253D01*
X192310223Y-43346777D01*
X192293747Y-43328598D01*
X192279133Y-43308893D01*
X192266520Y-43287849D01*
X192256030Y-43265671D01*
X192247765Y-43242571D01*
X192241804Y-43218773D01*
X192238204Y-43194504D01*
X192237000Y-43170000D01*
X192237000Y-41920000D01*
X192238204Y-41895496D01*
X192241804Y-41871227D01*
X192247765Y-41847429D01*
X192256030Y-41824329D01*
X192266520Y-41802151D01*
X192279133Y-41781107D01*
X192293747Y-41761402D01*
X192310223Y-41743223D01*
X192328402Y-41726747D01*
X192348107Y-41712133D01*
X192369151Y-41699520D01*
X192391329Y-41689030D01*
X192414429Y-41680765D01*
X192438227Y-41674804D01*
X192462496Y-41671204D01*
X192487000Y-41670000D01*
X193412000Y-41670000D01*
X193436504Y-41671204D01*
G37*
G04 #@! TD.AperFunction*
G04 #@! TA.AperFunction,SMDPad,CuDef*
G36*
X196411504Y-41671204D02*
G01*
X196435773Y-41674804D01*
X196459571Y-41680765D01*
X196482671Y-41689030D01*
X196504849Y-41699520D01*
X196525893Y-41712133D01*
X196545598Y-41726747D01*
X196563777Y-41743223D01*
X196580253Y-41761402D01*
X196594867Y-41781107D01*
X196607480Y-41802151D01*
X196617970Y-41824329D01*
X196626235Y-41847429D01*
X196632196Y-41871227D01*
X196635796Y-41895496D01*
X196637000Y-41920000D01*
X196637000Y-43170000D01*
X196635796Y-43194504D01*
X196632196Y-43218773D01*
X196626235Y-43242571D01*
X196617970Y-43265671D01*
X196607480Y-43287849D01*
X196594867Y-43308893D01*
X196580253Y-43328598D01*
X196563777Y-43346777D01*
X196545598Y-43363253D01*
X196525893Y-43377867D01*
X196504849Y-43390480D01*
X196482671Y-43400970D01*
X196459571Y-43409235D01*
X196435773Y-43415196D01*
X196411504Y-43418796D01*
X196387000Y-43420000D01*
X195462000Y-43420000D01*
X195437496Y-43418796D01*
X195413227Y-43415196D01*
X195389429Y-43409235D01*
X195366329Y-43400970D01*
X195344151Y-43390480D01*
X195323107Y-43377867D01*
X195303402Y-43363253D01*
X195285223Y-43346777D01*
X195268747Y-43328598D01*
X195254133Y-43308893D01*
X195241520Y-43287849D01*
X195231030Y-43265671D01*
X195222765Y-43242571D01*
X195216804Y-43218773D01*
X195213204Y-43194504D01*
X195212000Y-43170000D01*
X195212000Y-41920000D01*
X195213204Y-41895496D01*
X195216804Y-41871227D01*
X195222765Y-41847429D01*
X195231030Y-41824329D01*
X195241520Y-41802151D01*
X195254133Y-41781107D01*
X195268747Y-41761402D01*
X195285223Y-41743223D01*
X195303402Y-41726747D01*
X195323107Y-41712133D01*
X195344151Y-41699520D01*
X195366329Y-41689030D01*
X195389429Y-41680765D01*
X195413227Y-41674804D01*
X195437496Y-41671204D01*
X195462000Y-41670000D01*
X196387000Y-41670000D01*
X196411504Y-41671204D01*
G37*
G04 #@! TD.AperFunction*
G04 #@! TA.AperFunction,SMDPad,CuDef*
G36*
X196983779Y-24382144D02*
G01*
X197006834Y-24385563D01*
X197029443Y-24391227D01*
X197051387Y-24399079D01*
X197072457Y-24409044D01*
X197092448Y-24421026D01*
X197111168Y-24434910D01*
X197128438Y-24450562D01*
X197144090Y-24467832D01*
X197157974Y-24486552D01*
X197169956Y-24506543D01*
X197179921Y-24527613D01*
X197187773Y-24549557D01*
X197193437Y-24572166D01*
X197196856Y-24595221D01*
X197198000Y-24618500D01*
X197198000Y-25193500D01*
X197196856Y-25216779D01*
X197193437Y-25239834D01*
X197187773Y-25262443D01*
X197179921Y-25284387D01*
X197169956Y-25305457D01*
X197157974Y-25325448D01*
X197144090Y-25344168D01*
X197128438Y-25361438D01*
X197111168Y-25377090D01*
X197092448Y-25390974D01*
X197072457Y-25402956D01*
X197051387Y-25412921D01*
X197029443Y-25420773D01*
X197006834Y-25426437D01*
X196983779Y-25429856D01*
X196960500Y-25431000D01*
X196485500Y-25431000D01*
X196462221Y-25429856D01*
X196439166Y-25426437D01*
X196416557Y-25420773D01*
X196394613Y-25412921D01*
X196373543Y-25402956D01*
X196353552Y-25390974D01*
X196334832Y-25377090D01*
X196317562Y-25361438D01*
X196301910Y-25344168D01*
X196288026Y-25325448D01*
X196276044Y-25305457D01*
X196266079Y-25284387D01*
X196258227Y-25262443D01*
X196252563Y-25239834D01*
X196249144Y-25216779D01*
X196248000Y-25193500D01*
X196248000Y-24618500D01*
X196249144Y-24595221D01*
X196252563Y-24572166D01*
X196258227Y-24549557D01*
X196266079Y-24527613D01*
X196276044Y-24506543D01*
X196288026Y-24486552D01*
X196301910Y-24467832D01*
X196317562Y-24450562D01*
X196334832Y-24434910D01*
X196353552Y-24421026D01*
X196373543Y-24409044D01*
X196394613Y-24399079D01*
X196416557Y-24391227D01*
X196439166Y-24385563D01*
X196462221Y-24382144D01*
X196485500Y-24381000D01*
X196960500Y-24381000D01*
X196983779Y-24382144D01*
G37*
G04 #@! TD.AperFunction*
G04 #@! TA.AperFunction,SMDPad,CuDef*
G36*
X196983779Y-26132144D02*
G01*
X197006834Y-26135563D01*
X197029443Y-26141227D01*
X197051387Y-26149079D01*
X197072457Y-26159044D01*
X197092448Y-26171026D01*
X197111168Y-26184910D01*
X197128438Y-26200562D01*
X197144090Y-26217832D01*
X197157974Y-26236552D01*
X197169956Y-26256543D01*
X197179921Y-26277613D01*
X197187773Y-26299557D01*
X197193437Y-26322166D01*
X197196856Y-26345221D01*
X197198000Y-26368500D01*
X197198000Y-26943500D01*
X197196856Y-26966779D01*
X197193437Y-26989834D01*
X197187773Y-27012443D01*
X197179921Y-27034387D01*
X197169956Y-27055457D01*
X197157974Y-27075448D01*
X197144090Y-27094168D01*
X197128438Y-27111438D01*
X197111168Y-27127090D01*
X197092448Y-27140974D01*
X197072457Y-27152956D01*
X197051387Y-27162921D01*
X197029443Y-27170773D01*
X197006834Y-27176437D01*
X196983779Y-27179856D01*
X196960500Y-27181000D01*
X196485500Y-27181000D01*
X196462221Y-27179856D01*
X196439166Y-27176437D01*
X196416557Y-27170773D01*
X196394613Y-27162921D01*
X196373543Y-27152956D01*
X196353552Y-27140974D01*
X196334832Y-27127090D01*
X196317562Y-27111438D01*
X196301910Y-27094168D01*
X196288026Y-27075448D01*
X196276044Y-27055457D01*
X196266079Y-27034387D01*
X196258227Y-27012443D01*
X196252563Y-26989834D01*
X196249144Y-26966779D01*
X196248000Y-26943500D01*
X196248000Y-26368500D01*
X196249144Y-26345221D01*
X196252563Y-26322166D01*
X196258227Y-26299557D01*
X196266079Y-26277613D01*
X196276044Y-26256543D01*
X196288026Y-26236552D01*
X196301910Y-26217832D01*
X196317562Y-26200562D01*
X196334832Y-26184910D01*
X196353552Y-26171026D01*
X196373543Y-26159044D01*
X196394613Y-26149079D01*
X196416557Y-26141227D01*
X196439166Y-26135563D01*
X196462221Y-26132144D01*
X196485500Y-26131000D01*
X196960500Y-26131000D01*
X196983779Y-26132144D01*
G37*
G04 #@! TD.AperFunction*
G04 #@! TA.AperFunction,SMDPad,CuDef*
G36*
X203714779Y-24749144D02*
G01*
X203737834Y-24752563D01*
X203760443Y-24758227D01*
X203782387Y-24766079D01*
X203803457Y-24776044D01*
X203823448Y-24788026D01*
X203842168Y-24801910D01*
X203859438Y-24817562D01*
X203875090Y-24834832D01*
X203888974Y-24853552D01*
X203900956Y-24873543D01*
X203910921Y-24894613D01*
X203918773Y-24916557D01*
X203924437Y-24939166D01*
X203927856Y-24962221D01*
X203929000Y-24985500D01*
X203929000Y-25560500D01*
X203927856Y-25583779D01*
X203924437Y-25606834D01*
X203918773Y-25629443D01*
X203910921Y-25651387D01*
X203900956Y-25672457D01*
X203888974Y-25692448D01*
X203875090Y-25711168D01*
X203859438Y-25728438D01*
X203842168Y-25744090D01*
X203823448Y-25757974D01*
X203803457Y-25769956D01*
X203782387Y-25779921D01*
X203760443Y-25787773D01*
X203737834Y-25793437D01*
X203714779Y-25796856D01*
X203691500Y-25798000D01*
X203216500Y-25798000D01*
X203193221Y-25796856D01*
X203170166Y-25793437D01*
X203147557Y-25787773D01*
X203125613Y-25779921D01*
X203104543Y-25769956D01*
X203084552Y-25757974D01*
X203065832Y-25744090D01*
X203048562Y-25728438D01*
X203032910Y-25711168D01*
X203019026Y-25692448D01*
X203007044Y-25672457D01*
X202997079Y-25651387D01*
X202989227Y-25629443D01*
X202983563Y-25606834D01*
X202980144Y-25583779D01*
X202979000Y-25560500D01*
X202979000Y-24985500D01*
X202980144Y-24962221D01*
X202983563Y-24939166D01*
X202989227Y-24916557D01*
X202997079Y-24894613D01*
X203007044Y-24873543D01*
X203019026Y-24853552D01*
X203032910Y-24834832D01*
X203048562Y-24817562D01*
X203065832Y-24801910D01*
X203084552Y-24788026D01*
X203104543Y-24776044D01*
X203125613Y-24766079D01*
X203147557Y-24758227D01*
X203170166Y-24752563D01*
X203193221Y-24749144D01*
X203216500Y-24748000D01*
X203691500Y-24748000D01*
X203714779Y-24749144D01*
G37*
G04 #@! TD.AperFunction*
G04 #@! TA.AperFunction,SMDPad,CuDef*
G36*
X203714779Y-26499144D02*
G01*
X203737834Y-26502563D01*
X203760443Y-26508227D01*
X203782387Y-26516079D01*
X203803457Y-26526044D01*
X203823448Y-26538026D01*
X203842168Y-26551910D01*
X203859438Y-26567562D01*
X203875090Y-26584832D01*
X203888974Y-26603552D01*
X203900956Y-26623543D01*
X203910921Y-26644613D01*
X203918773Y-26666557D01*
X203924437Y-26689166D01*
X203927856Y-26712221D01*
X203929000Y-26735500D01*
X203929000Y-27310500D01*
X203927856Y-27333779D01*
X203924437Y-27356834D01*
X203918773Y-27379443D01*
X203910921Y-27401387D01*
X203900956Y-27422457D01*
X203888974Y-27442448D01*
X203875090Y-27461168D01*
X203859438Y-27478438D01*
X203842168Y-27494090D01*
X203823448Y-27507974D01*
X203803457Y-27519956D01*
X203782387Y-27529921D01*
X203760443Y-27537773D01*
X203737834Y-27543437D01*
X203714779Y-27546856D01*
X203691500Y-27548000D01*
X203216500Y-27548000D01*
X203193221Y-27546856D01*
X203170166Y-27543437D01*
X203147557Y-27537773D01*
X203125613Y-27529921D01*
X203104543Y-27519956D01*
X203084552Y-27507974D01*
X203065832Y-27494090D01*
X203048562Y-27478438D01*
X203032910Y-27461168D01*
X203019026Y-27442448D01*
X203007044Y-27422457D01*
X202997079Y-27401387D01*
X202989227Y-27379443D01*
X202983563Y-27356834D01*
X202980144Y-27333779D01*
X202979000Y-27310500D01*
X202979000Y-26735500D01*
X202980144Y-26712221D01*
X202983563Y-26689166D01*
X202989227Y-26666557D01*
X202997079Y-26644613D01*
X203007044Y-26623543D01*
X203019026Y-26603552D01*
X203032910Y-26584832D01*
X203048562Y-26567562D01*
X203065832Y-26551910D01*
X203084552Y-26538026D01*
X203104543Y-26526044D01*
X203125613Y-26516079D01*
X203147557Y-26508227D01*
X203170166Y-26502563D01*
X203193221Y-26499144D01*
X203216500Y-26498000D01*
X203691500Y-26498000D01*
X203714779Y-26499144D01*
G37*
G04 #@! TD.AperFunction*
G04 #@! TA.AperFunction,SMDPad,CuDef*
G36*
X210675802Y-27517482D02*
G01*
X210685509Y-27518921D01*
X210695028Y-27521306D01*
X210704268Y-27524612D01*
X210713140Y-27528808D01*
X210721557Y-27533853D01*
X210729439Y-27539699D01*
X210736711Y-27546289D01*
X210743301Y-27553561D01*
X210749147Y-27561443D01*
X210754192Y-27569860D01*
X210758388Y-27578732D01*
X210761694Y-27587972D01*
X210764079Y-27597491D01*
X210765518Y-27607198D01*
X210766000Y-27617000D01*
X210766000Y-27877000D01*
X210765518Y-27886802D01*
X210764079Y-27896509D01*
X210761694Y-27906028D01*
X210758388Y-27915268D01*
X210754192Y-27924140D01*
X210749147Y-27932557D01*
X210743301Y-27940439D01*
X210736711Y-27947711D01*
X210729439Y-27954301D01*
X210721557Y-27960147D01*
X210713140Y-27965192D01*
X210704268Y-27969388D01*
X210695028Y-27972694D01*
X210685509Y-27975079D01*
X210675802Y-27976518D01*
X210666000Y-27977000D01*
X210466000Y-27977000D01*
X210456198Y-27976518D01*
X210446491Y-27975079D01*
X210436972Y-27972694D01*
X210427732Y-27969388D01*
X210418860Y-27965192D01*
X210410443Y-27960147D01*
X210402561Y-27954301D01*
X210395289Y-27947711D01*
X210388699Y-27940439D01*
X210382853Y-27932557D01*
X210377808Y-27924140D01*
X210373612Y-27915268D01*
X210370306Y-27906028D01*
X210367921Y-27896509D01*
X210366482Y-27886802D01*
X210366000Y-27877000D01*
X210366000Y-27617000D01*
X210366482Y-27607198D01*
X210367921Y-27597491D01*
X210370306Y-27587972D01*
X210373612Y-27578732D01*
X210377808Y-27569860D01*
X210382853Y-27561443D01*
X210388699Y-27553561D01*
X210395289Y-27546289D01*
X210402561Y-27539699D01*
X210410443Y-27533853D01*
X210418860Y-27528808D01*
X210427732Y-27524612D01*
X210436972Y-27521306D01*
X210446491Y-27518921D01*
X210456198Y-27517482D01*
X210466000Y-27517000D01*
X210666000Y-27517000D01*
X210675802Y-27517482D01*
G37*
G04 #@! TD.AperFunction*
G04 #@! TA.AperFunction,SMDPad,CuDef*
G36*
X210675802Y-28157482D02*
G01*
X210685509Y-28158921D01*
X210695028Y-28161306D01*
X210704268Y-28164612D01*
X210713140Y-28168808D01*
X210721557Y-28173853D01*
X210729439Y-28179699D01*
X210736711Y-28186289D01*
X210743301Y-28193561D01*
X210749147Y-28201443D01*
X210754192Y-28209860D01*
X210758388Y-28218732D01*
X210761694Y-28227972D01*
X210764079Y-28237491D01*
X210765518Y-28247198D01*
X210766000Y-28257000D01*
X210766000Y-28517000D01*
X210765518Y-28526802D01*
X210764079Y-28536509D01*
X210761694Y-28546028D01*
X210758388Y-28555268D01*
X210754192Y-28564140D01*
X210749147Y-28572557D01*
X210743301Y-28580439D01*
X210736711Y-28587711D01*
X210729439Y-28594301D01*
X210721557Y-28600147D01*
X210713140Y-28605192D01*
X210704268Y-28609388D01*
X210695028Y-28612694D01*
X210685509Y-28615079D01*
X210675802Y-28616518D01*
X210666000Y-28617000D01*
X210466000Y-28617000D01*
X210456198Y-28616518D01*
X210446491Y-28615079D01*
X210436972Y-28612694D01*
X210427732Y-28609388D01*
X210418860Y-28605192D01*
X210410443Y-28600147D01*
X210402561Y-28594301D01*
X210395289Y-28587711D01*
X210388699Y-28580439D01*
X210382853Y-28572557D01*
X210377808Y-28564140D01*
X210373612Y-28555268D01*
X210370306Y-28546028D01*
X210367921Y-28536509D01*
X210366482Y-28526802D01*
X210366000Y-28517000D01*
X210366000Y-28257000D01*
X210366482Y-28247198D01*
X210367921Y-28237491D01*
X210370306Y-28227972D01*
X210373612Y-28218732D01*
X210377808Y-28209860D01*
X210382853Y-28201443D01*
X210388699Y-28193561D01*
X210395289Y-28186289D01*
X210402561Y-28179699D01*
X210410443Y-28173853D01*
X210418860Y-28168808D01*
X210427732Y-28164612D01*
X210436972Y-28161306D01*
X210446491Y-28158921D01*
X210456198Y-28157482D01*
X210466000Y-28157000D01*
X210666000Y-28157000D01*
X210675802Y-28157482D01*
G37*
G04 #@! TD.AperFunction*
G04 #@! TA.AperFunction,SMDPad,CuDef*
G36*
X210294802Y-57494482D02*
G01*
X210304509Y-57495921D01*
X210314028Y-57498306D01*
X210323268Y-57501612D01*
X210332140Y-57505808D01*
X210340557Y-57510853D01*
X210348439Y-57516699D01*
X210355711Y-57523289D01*
X210362301Y-57530561D01*
X210368147Y-57538443D01*
X210373192Y-57546860D01*
X210377388Y-57555732D01*
X210380694Y-57564972D01*
X210383079Y-57574491D01*
X210384518Y-57584198D01*
X210385000Y-57594000D01*
X210385000Y-57854000D01*
X210384518Y-57863802D01*
X210383079Y-57873509D01*
X210380694Y-57883028D01*
X210377388Y-57892268D01*
X210373192Y-57901140D01*
X210368147Y-57909557D01*
X210362301Y-57917439D01*
X210355711Y-57924711D01*
X210348439Y-57931301D01*
X210340557Y-57937147D01*
X210332140Y-57942192D01*
X210323268Y-57946388D01*
X210314028Y-57949694D01*
X210304509Y-57952079D01*
X210294802Y-57953518D01*
X210285000Y-57954000D01*
X210085000Y-57954000D01*
X210075198Y-57953518D01*
X210065491Y-57952079D01*
X210055972Y-57949694D01*
X210046732Y-57946388D01*
X210037860Y-57942192D01*
X210029443Y-57937147D01*
X210021561Y-57931301D01*
X210014289Y-57924711D01*
X210007699Y-57917439D01*
X210001853Y-57909557D01*
X209996808Y-57901140D01*
X209992612Y-57892268D01*
X209989306Y-57883028D01*
X209986921Y-57873509D01*
X209985482Y-57863802D01*
X209985000Y-57854000D01*
X209985000Y-57594000D01*
X209985482Y-57584198D01*
X209986921Y-57574491D01*
X209989306Y-57564972D01*
X209992612Y-57555732D01*
X209996808Y-57546860D01*
X210001853Y-57538443D01*
X210007699Y-57530561D01*
X210014289Y-57523289D01*
X210021561Y-57516699D01*
X210029443Y-57510853D01*
X210037860Y-57505808D01*
X210046732Y-57501612D01*
X210055972Y-57498306D01*
X210065491Y-57495921D01*
X210075198Y-57494482D01*
X210085000Y-57494000D01*
X210285000Y-57494000D01*
X210294802Y-57494482D01*
G37*
G04 #@! TD.AperFunction*
G04 #@! TA.AperFunction,SMDPad,CuDef*
G36*
X210294802Y-56854482D02*
G01*
X210304509Y-56855921D01*
X210314028Y-56858306D01*
X210323268Y-56861612D01*
X210332140Y-56865808D01*
X210340557Y-56870853D01*
X210348439Y-56876699D01*
X210355711Y-56883289D01*
X210362301Y-56890561D01*
X210368147Y-56898443D01*
X210373192Y-56906860D01*
X210377388Y-56915732D01*
X210380694Y-56924972D01*
X210383079Y-56934491D01*
X210384518Y-56944198D01*
X210385000Y-56954000D01*
X210385000Y-57214000D01*
X210384518Y-57223802D01*
X210383079Y-57233509D01*
X210380694Y-57243028D01*
X210377388Y-57252268D01*
X210373192Y-57261140D01*
X210368147Y-57269557D01*
X210362301Y-57277439D01*
X210355711Y-57284711D01*
X210348439Y-57291301D01*
X210340557Y-57297147D01*
X210332140Y-57302192D01*
X210323268Y-57306388D01*
X210314028Y-57309694D01*
X210304509Y-57312079D01*
X210294802Y-57313518D01*
X210285000Y-57314000D01*
X210085000Y-57314000D01*
X210075198Y-57313518D01*
X210065491Y-57312079D01*
X210055972Y-57309694D01*
X210046732Y-57306388D01*
X210037860Y-57302192D01*
X210029443Y-57297147D01*
X210021561Y-57291301D01*
X210014289Y-57284711D01*
X210007699Y-57277439D01*
X210001853Y-57269557D01*
X209996808Y-57261140D01*
X209992612Y-57252268D01*
X209989306Y-57243028D01*
X209986921Y-57233509D01*
X209985482Y-57223802D01*
X209985000Y-57214000D01*
X209985000Y-56954000D01*
X209985482Y-56944198D01*
X209986921Y-56934491D01*
X209989306Y-56924972D01*
X209992612Y-56915732D01*
X209996808Y-56906860D01*
X210001853Y-56898443D01*
X210007699Y-56890561D01*
X210014289Y-56883289D01*
X210021561Y-56876699D01*
X210029443Y-56870853D01*
X210037860Y-56865808D01*
X210046732Y-56861612D01*
X210055972Y-56858306D01*
X210065491Y-56855921D01*
X210075198Y-56854482D01*
X210085000Y-56854000D01*
X210285000Y-56854000D01*
X210294802Y-56854482D01*
G37*
G04 #@! TD.AperFunction*
D20*
X198374000Y-38608000D03*
X187452000Y-38608000D03*
X210820000Y-34544000D03*
X212090000Y-43942000D03*
X212090000Y-51308000D03*
X210566000Y-64389000D03*
X210312000Y-71882000D03*
X210439000Y-79222600D03*
X210378000Y-84770000D03*
X198387998Y-33128042D03*
X203962000Y-32004000D03*
X195199000Y-26670000D03*
X203454000Y-23735000D03*
X191262000Y-42418000D03*
X210185000Y-58991500D03*
X210566000Y-29654500D03*
X198247000Y-39751000D03*
X194564000Y-29210000D03*
X186436000Y-35687000D03*
X188177000Y-35687000D03*
X192659000Y-29210000D03*
X186817000Y-43434000D03*
X193802000Y-45974000D03*
X188341000Y-43307000D03*
X188341000Y-45720000D03*
X204431672Y-58420000D03*
X202018672Y-61087000D03*
X189611000Y-43307000D03*
X189611000Y-45720000D03*
X203962000Y-56388000D03*
X200533000Y-59817000D03*
X191249699Y-45732301D03*
X191262000Y-43688000D03*
X193675000Y-74549000D03*
X195707000Y-72517000D03*
X196469000Y-55118000D03*
X201295000Y-50292000D03*
X201549000Y-38608000D03*
X197485000Y-29464000D03*
X195834000Y-29210000D03*
X195326000Y-53848000D03*
X199898000Y-49276000D03*
X199898000Y-38481000D03*
X196939000Y-47455000D03*
X192494000Y-51900000D03*
X193891000Y-52789000D03*
X198209000Y-48344000D03*
D21*
X217957500Y-26670000D02*
X220980000Y-26670000D01*
X217957500Y-34036000D02*
X220980000Y-34036000D01*
X217703500Y-41402000D02*
X220980000Y-41402000D01*
X217703500Y-48768000D02*
X220980000Y-48768000D01*
X217703500Y-56134000D02*
X220980000Y-56134000D01*
X218495000Y-63500000D02*
X220980000Y-63500000D01*
X217957500Y-63500000D02*
X218495000Y-63500000D01*
X217703500Y-70866000D02*
X220980000Y-70866000D01*
X217703500Y-78232000D02*
X220980000Y-78232000D01*
X217449500Y-83820000D02*
X219227500Y-85598000D01*
X219227500Y-85598000D02*
X220980000Y-85598000D01*
X223520000Y-36830000D02*
X223520000Y-34036000D01*
X222758000Y-37592000D02*
X223520000Y-36830000D01*
X223520000Y-41402000D02*
X223520000Y-39370000D01*
D22*
X191278001Y-82279999D02*
X192278000Y-81280000D01*
X186777999Y-82279999D02*
X191278001Y-82279999D01*
X185778000Y-81280000D02*
X186777999Y-82279999D01*
X192278000Y-81280000D02*
X197462000Y-81280000D01*
X202962001Y-82279999D02*
X203962000Y-81280000D01*
X198461999Y-82279999D02*
X202962001Y-82279999D01*
X197462000Y-81280000D02*
X198461999Y-82279999D01*
D21*
X222620001Y-84698001D02*
X223520000Y-85598000D01*
D22*
X207079998Y-23378042D02*
X224097998Y-23378042D01*
X201550000Y-27008000D02*
X200975000Y-27008000D01*
X202311000Y-27008000D02*
X201550000Y-27008000D01*
X202654000Y-27008000D02*
X202311000Y-27008000D01*
D21*
X202669000Y-27023000D02*
X202654000Y-27008000D01*
D22*
X203454000Y-27023000D02*
X202669000Y-27023000D01*
D21*
X207079998Y-23397002D02*
X207079998Y-23378042D01*
D22*
X203454000Y-27023000D02*
X207079998Y-23397002D01*
X185778000Y-81280000D02*
X182753000Y-78255000D01*
X182753000Y-78255000D02*
X182753000Y-64389000D01*
X182753000Y-64389000D02*
X184912000Y-62230000D01*
X184912000Y-62230000D02*
X182372000Y-59690000D01*
X183812000Y-46990000D02*
X184912000Y-46990000D01*
X182372000Y-48430000D02*
X183812000Y-46990000D01*
X182372000Y-59690000D02*
X182372000Y-48430000D01*
X198960000Y-28321000D02*
X194056000Y-28321000D01*
X183388000Y-26416000D02*
X184488000Y-26416000D01*
D21*
X193759998Y-28490002D02*
X193802000Y-28448000D01*
X193759998Y-31067042D02*
X193759998Y-28490002D01*
D22*
X193802000Y-28321000D02*
X194056000Y-28321000D01*
X186520000Y-28321000D02*
X193802000Y-28321000D01*
X186393000Y-28321000D02*
X184488000Y-26416000D01*
D21*
X186520000Y-28321000D02*
X186393000Y-28321000D01*
D22*
X201131500Y-28321000D02*
X201930000Y-29119500D01*
X198960000Y-28321000D02*
X201131500Y-28321000D01*
X200975000Y-28164500D02*
X201930000Y-29119500D01*
X200975000Y-27008000D02*
X200975000Y-28164500D01*
X198960000Y-29152044D02*
X198960000Y-28321000D01*
X199149998Y-29342042D02*
X198960000Y-29152044D01*
X199149998Y-29967042D02*
X199149998Y-29342042D01*
X184912000Y-45890000D02*
X186225000Y-44577000D01*
X184912000Y-46990000D02*
X184912000Y-45890000D01*
X193892500Y-44577000D02*
X195924500Y-42545000D01*
X186225000Y-44577000D02*
X193892500Y-44577000D01*
X194550000Y-41170500D02*
X194550000Y-40259000D01*
X195924500Y-42545000D02*
X194550000Y-41170500D01*
D21*
X193759998Y-39468998D02*
X193759998Y-36967042D01*
X194550000Y-40259000D02*
X193759998Y-39468998D01*
D22*
X203962000Y-81280000D02*
X209505001Y-86823001D01*
X209505001Y-86823001D02*
X218522001Y-86823001D01*
X218522001Y-86823001D02*
X218821000Y-87122000D01*
X218821000Y-87122000D02*
X222758000Y-87122000D01*
D21*
X196733042Y-36967042D02*
X196359998Y-36967042D01*
X198374000Y-38608000D02*
X196733042Y-36967042D01*
X187452000Y-33020000D02*
X187452000Y-38608000D01*
X183388000Y-28956000D02*
X187452000Y-33020000D01*
X211262000Y-34986000D02*
X210820000Y-34544000D01*
X212360000Y-34986000D02*
X211262000Y-34986000D01*
X212090000Y-42368000D02*
X212106000Y-42352000D01*
X212090000Y-43942000D02*
X212090000Y-42368000D01*
X212090000Y-49734000D02*
X212106000Y-49718000D01*
X212090000Y-51308000D02*
X212090000Y-49734000D01*
X210378000Y-71816000D02*
X210312000Y-71882000D01*
X212106000Y-71816000D02*
X210378000Y-71816000D01*
X210632000Y-79182000D02*
X210566000Y-79248000D01*
X212360000Y-79182000D02*
X210632000Y-79182000D01*
X210378000Y-84770000D02*
X210312000Y-84836000D01*
X211852000Y-84770000D02*
X210378000Y-84770000D01*
X210627000Y-64450000D02*
X210566000Y-64389000D01*
X212106000Y-64450000D02*
X210627000Y-64450000D01*
X198387998Y-32479042D02*
X199149998Y-31717042D01*
X198387998Y-33128042D02*
X198387998Y-32479042D01*
X195213000Y-26656000D02*
X195199000Y-26670000D01*
X196723000Y-26656000D02*
X195213000Y-26656000D01*
X199460001Y-26152999D02*
X200025000Y-25588000D01*
X197226001Y-26152999D02*
X199460001Y-26152999D01*
X200025000Y-25588000D02*
X200025000Y-24808000D01*
X196723000Y-26656000D02*
X197226001Y-26152999D01*
X203454000Y-25033000D02*
X203454000Y-23735000D01*
X203871500Y-32094500D02*
X203962000Y-32004000D01*
X201930000Y-32094500D02*
X203871500Y-32094500D01*
X193109998Y-39949002D02*
X192800000Y-40259000D01*
X193109998Y-36967042D02*
X193109998Y-39949002D01*
X192800000Y-42395500D02*
X192949500Y-42545000D01*
X192800000Y-40259000D02*
X192800000Y-42395500D01*
X191389000Y-42545000D02*
X191262000Y-42418000D01*
X192949500Y-42545000D02*
X191389000Y-42545000D01*
X204914500Y-31051500D02*
X203962000Y-32004000D01*
X204914500Y-30592000D02*
X204914500Y-31051500D01*
D23*
X210185000Y-57724000D02*
X210185000Y-58991500D01*
X210566000Y-28387000D02*
X210566000Y-29654500D01*
D21*
X197518956Y-39751000D02*
X198247000Y-39751000D01*
X195709998Y-37942042D02*
X197518956Y-39751000D01*
X195709998Y-36967042D02*
X195709998Y-37942042D01*
X194409998Y-29364002D02*
X194564000Y-29210000D01*
X194409998Y-31067042D02*
X194409998Y-29364002D01*
X185547000Y-36576000D02*
X186436000Y-35687000D01*
X183388000Y-36576000D02*
X185547000Y-36576000D01*
X188177000Y-31025000D02*
X189992000Y-29210000D01*
X189992000Y-29210000D02*
X191008000Y-29210000D01*
X191008000Y-29210000D02*
X192659000Y-29210000D01*
X188177000Y-35687000D02*
X188177000Y-31025000D01*
X190832038Y-29210000D02*
X191008000Y-29210000D01*
X192278000Y-25908000D02*
X193802000Y-25908000D01*
X194804000Y-24906000D02*
X196723000Y-24906000D01*
X193802000Y-25908000D02*
X194804000Y-24906000D01*
X198977000Y-24906000D02*
X199075000Y-24808000D01*
X196723000Y-24906000D02*
X198977000Y-24906000D01*
X199075000Y-24028000D02*
X199075000Y-24808000D01*
X199481000Y-23622000D02*
X199075000Y-24028000D01*
X200569000Y-23622000D02*
X199481000Y-23622000D01*
X200975000Y-24028000D02*
X200569000Y-23622000D01*
X200975000Y-24808000D02*
X200975000Y-24028000D01*
X193109998Y-31067042D02*
X193109998Y-32042042D01*
X193109998Y-32042042D02*
X195070008Y-34002052D01*
X195070008Y-34002052D02*
X204249948Y-34002052D01*
X204249948Y-34002052D02*
X207708500Y-30543500D01*
X207708500Y-30543500D02*
X207708500Y-27241500D01*
X209230000Y-25720000D02*
X212360000Y-25720000D01*
X207708500Y-27241500D02*
X209230000Y-25720000D01*
X212040000Y-32766000D02*
X212360000Y-33086000D01*
X192459998Y-32028452D02*
X194883608Y-34452062D01*
X194883608Y-34452062D02*
X207190610Y-34452062D01*
X192459998Y-31067042D02*
X192459998Y-32028452D01*
X208556672Y-33086000D02*
X212360000Y-33086000D01*
X207190610Y-34452062D02*
X208556672Y-33086000D01*
X209130672Y-34925000D02*
X212106000Y-37900328D01*
X194720136Y-34925000D02*
X209130672Y-34925000D01*
X191837178Y-32042042D02*
X194720136Y-34925000D01*
X191809998Y-32042042D02*
X191837178Y-32042042D01*
X191809998Y-31067042D02*
X191809998Y-32042042D01*
X212106000Y-37900328D02*
X212106000Y-40452000D01*
X212106000Y-45901328D02*
X212106000Y-47818000D01*
X201579682Y-35375010D02*
X212106000Y-45901328D01*
X194492966Y-35375010D02*
X201579682Y-35375010D01*
X191159998Y-32042042D02*
X194492966Y-35375010D01*
X191159998Y-31067042D02*
X191159998Y-32042042D01*
X192459998Y-35992042D02*
X192627020Y-35825020D01*
X192627020Y-35825020D02*
X200378692Y-35825020D01*
X192459998Y-36967042D02*
X192459998Y-35992042D01*
X200378692Y-35825020D02*
X209765672Y-45212000D01*
X211852000Y-54534000D02*
X211852000Y-55184000D01*
X209765672Y-52447672D02*
X211852000Y-54534000D01*
X209765672Y-45212000D02*
X209765672Y-52447672D01*
X192459998Y-37537002D02*
X192359999Y-37637001D01*
X192459998Y-36967042D02*
X192459998Y-37537002D01*
X190509998Y-32042042D02*
X189445672Y-33106368D01*
X190509998Y-31067042D02*
X190509998Y-32042042D01*
X189445672Y-36919958D02*
X188177001Y-38188629D01*
X189445672Y-33106368D02*
X189445672Y-36919958D01*
X188177001Y-42073999D02*
X186817000Y-43434000D01*
X188177001Y-38188629D02*
X188177001Y-42073999D01*
X211406000Y-62550000D02*
X212106000Y-62550000D01*
X197925001Y-49069001D02*
X211406000Y-62550000D01*
X196897001Y-49069001D02*
X197925001Y-49069001D01*
X193802000Y-45974000D02*
X196897001Y-49069001D01*
X212106000Y-69777328D02*
X212106000Y-69916000D01*
X190034998Y-36967042D02*
X190509998Y-36967042D01*
X189103000Y-41910000D02*
X189103000Y-37899040D01*
X189103000Y-37899040D02*
X190034998Y-36967042D01*
X188341000Y-42672000D02*
X189103000Y-41910000D01*
X188341000Y-43307000D02*
X188341000Y-42672000D01*
X202743673Y-60415001D02*
X206463672Y-64135000D01*
X191643000Y-48133000D02*
X202743673Y-59233673D01*
X190188315Y-48133000D02*
X191643000Y-48133000D01*
X188341000Y-46285685D02*
X190188315Y-48133000D01*
X188341000Y-45720000D02*
X188341000Y-46285685D01*
X206463672Y-64135000D02*
X212106000Y-69777328D01*
X202743673Y-59233673D02*
X202743673Y-60415001D01*
X206336672Y-64008000D02*
X206463672Y-64135000D01*
X204431672Y-58420000D02*
X204431672Y-58420000D01*
X212310000Y-77282000D02*
X212360000Y-77282000D01*
X202018672Y-66990672D02*
X212310000Y-77282000D01*
X202018672Y-61087000D02*
X202018672Y-66990672D01*
X191159998Y-38130316D02*
X191159998Y-36967042D01*
X189611000Y-39679314D02*
X191159998Y-38130316D01*
X189611000Y-43307000D02*
X189611000Y-39679314D01*
X202671591Y-58020001D02*
X192151000Y-47499410D01*
X204031673Y-58020001D02*
X202671591Y-58020001D01*
X204431672Y-58420000D02*
X204031673Y-58020001D01*
X192151000Y-47499410D02*
X191390410Y-47499410D01*
X191390410Y-47499410D02*
X189865000Y-45974000D01*
X189865000Y-45974000D02*
X191008000Y-47117000D01*
X189611000Y-45720000D02*
X189865000Y-45974000D01*
X208661000Y-76835000D02*
X200533000Y-68707000D01*
X208661000Y-79729000D02*
X208661000Y-76835000D01*
X200533000Y-68707000D02*
X200533000Y-59817000D01*
X211802000Y-82870000D02*
X208661000Y-79729000D01*
X211852000Y-82870000D02*
X211802000Y-82870000D01*
X203962000Y-56388000D02*
X201676000Y-56388000D01*
X191135000Y-45847000D02*
X191249699Y-45732301D01*
X201676000Y-56388000D02*
X191249699Y-45732301D01*
X191809998Y-37942042D02*
X191809998Y-36967042D01*
X191809998Y-38116726D02*
X191809998Y-37942042D01*
X190536999Y-42962999D02*
X190536999Y-39389725D01*
X190536999Y-39389725D02*
X191809998Y-38116726D01*
X191262000Y-43688000D02*
X190536999Y-42962999D01*
X204358263Y-29273237D02*
X204914500Y-28717000D01*
X196834998Y-31067042D02*
X197084988Y-30817052D01*
X202814448Y-30817052D02*
X204358263Y-29273237D01*
X197084988Y-30817052D02*
X202814448Y-30817052D01*
X196359998Y-31067042D02*
X196834998Y-31067042D01*
X185778000Y-76780000D02*
X192278000Y-76780000D01*
X193675000Y-75383000D02*
X193675000Y-74549000D01*
X192278000Y-76780000D02*
X193675000Y-75383000D01*
X196469000Y-71755000D02*
X196469000Y-55118000D01*
X195707000Y-72517000D02*
X196469000Y-71755000D01*
X201694999Y-49892001D02*
X201694999Y-39261999D01*
X201295000Y-50292000D02*
X201694999Y-49892001D01*
X201694999Y-38753999D02*
X201549000Y-38608000D01*
X201694999Y-39261999D02*
X201694999Y-38753999D01*
X197085001Y-29863999D02*
X197485000Y-29464000D01*
X197013999Y-29935001D02*
X197085001Y-29863999D01*
X195867039Y-29935001D02*
X197013999Y-29935001D01*
X195709998Y-30092042D02*
X195867039Y-29935001D01*
X195709998Y-31067042D02*
X195709998Y-30092042D01*
X192701042Y-72019042D02*
X197462000Y-76780000D01*
X191204998Y-72019042D02*
X192701042Y-72019042D01*
X198876213Y-76780000D02*
X203962000Y-76780000D01*
X197462000Y-76780000D02*
X198876213Y-76780000D01*
X195072000Y-31055040D02*
X195059998Y-31067042D01*
X190754000Y-58420000D02*
X195326000Y-53848000D01*
X188664998Y-70816961D02*
X188722000Y-70759959D01*
X188664998Y-72019042D02*
X188664998Y-70816961D01*
X188722000Y-60452000D02*
X190754000Y-58420000D01*
X188722000Y-70759959D02*
X188722000Y-60452000D01*
X199898000Y-49276000D02*
X199898000Y-38481000D01*
X195834000Y-29331630D02*
X195059998Y-30105632D01*
X195834000Y-29210000D02*
X195834000Y-29331630D01*
X195059998Y-30105632D02*
X195059998Y-30226000D01*
X195059998Y-30226000D02*
X195059998Y-31067042D01*
X195059998Y-30092042D02*
X195059998Y-30226000D01*
X189784000Y-54610000D02*
X184912000Y-54610000D01*
X192494000Y-51900000D02*
X189784000Y-54610000D01*
X198194010Y-41730010D02*
X194409998Y-37945998D01*
X198194010Y-46199990D02*
X198194010Y-41730010D01*
X194409998Y-37945998D02*
X194409998Y-36967042D01*
X196939000Y-47455000D02*
X198194010Y-46199990D01*
X184912000Y-57150000D02*
X189530000Y-57150000D01*
X189530000Y-57150000D02*
X193891000Y-52789000D01*
X198644020Y-41526064D02*
X198644020Y-47908980D01*
X198644020Y-47908980D02*
X198209000Y-48344000D01*
X195059998Y-37942042D02*
X198644020Y-41526064D01*
X195059998Y-36967042D02*
X195059998Y-37942042D01*
X185761999Y-65619999D02*
X184912000Y-64770000D01*
X186974997Y-66832997D02*
X185761999Y-65619999D01*
X186974997Y-71169043D02*
X186974997Y-66832997D01*
X186124998Y-72019042D02*
X186974997Y-71169043D01*
X214360000Y-26670000D02*
X216382500Y-26670000D01*
X213852000Y-56134000D02*
X216128500Y-56134000D01*
X214360000Y-34036000D02*
X216382500Y-34036000D01*
X214106000Y-41402000D02*
X216128500Y-41402000D01*
X214106000Y-48768000D02*
X216128500Y-48768000D01*
X216382500Y-63500000D02*
X214106000Y-63500000D01*
X216128500Y-70866000D02*
X214106000Y-70866000D01*
X214360000Y-78232000D02*
X216128500Y-78232000D01*
X215874500Y-83820000D02*
X213852000Y-83820000D01*
D23*
X210693000Y-27620000D02*
X210566000Y-27747000D01*
X212360000Y-27620000D02*
X210693000Y-27620000D01*
X211852000Y-57084000D02*
X210185000Y-57084000D01*
D24*
G36*
X224917000Y-26016515D02*
G01*
X224838261Y-25869208D01*
X224584080Y-25785525D01*
X223699605Y-26670000D01*
X224584080Y-27554475D01*
X224838261Y-27470792D01*
X224917000Y-27306834D01*
X224917000Y-33382515D01*
X224838261Y-33235208D01*
X224584080Y-33151525D01*
X223699605Y-34036000D01*
X224584080Y-34920475D01*
X224838261Y-34836792D01*
X224917000Y-34672834D01*
X224917000Y-40748515D01*
X224838261Y-40601208D01*
X224584080Y-40517525D01*
X223699605Y-41402000D01*
X224584080Y-42286475D01*
X224838261Y-42202792D01*
X224917000Y-42038834D01*
X224917000Y-48114515D01*
X224838261Y-47967208D01*
X224584080Y-47883525D01*
X223699605Y-48768000D01*
X224584080Y-49652475D01*
X224838261Y-49568792D01*
X224917000Y-49404834D01*
X224917000Y-55480515D01*
X224838261Y-55333208D01*
X224584080Y-55249525D01*
X223699605Y-56134000D01*
X224584080Y-57018475D01*
X224838261Y-56934792D01*
X224917000Y-56770834D01*
X224917000Y-62846515D01*
X224838261Y-62699208D01*
X224584080Y-62615525D01*
X223699605Y-63500000D01*
X224584080Y-64384475D01*
X224838261Y-64300792D01*
X224917000Y-64136834D01*
X224917000Y-70212515D01*
X224838261Y-70065208D01*
X224584080Y-69981525D01*
X223699605Y-70866000D01*
X224584080Y-71750475D01*
X224838261Y-71666792D01*
X224917000Y-71502834D01*
X224917000Y-77578515D01*
X224838261Y-77431208D01*
X224584080Y-77347525D01*
X223699605Y-78232000D01*
X224584080Y-79116475D01*
X224838261Y-79032792D01*
X224917000Y-78868834D01*
X224917000Y-84944515D01*
X224838261Y-84797208D01*
X224584080Y-84713525D01*
X223699605Y-85598000D01*
X224584080Y-86482475D01*
X224838261Y-86398792D01*
X224917000Y-86234834D01*
X224917000Y-87630000D01*
X222631000Y-87630000D01*
X222631000Y-86666608D01*
X222635526Y-86662082D01*
X222719208Y-86916261D01*
X222991775Y-87047158D01*
X223284642Y-87122365D01*
X223586553Y-87138991D01*
X223885907Y-87096397D01*
X224171199Y-86996222D01*
X224320792Y-86916261D01*
X224404475Y-86662080D01*
X223520000Y-85777605D01*
X223505858Y-85791748D01*
X223326253Y-85612143D01*
X223340395Y-85598000D01*
X223326253Y-85583858D01*
X223505858Y-85404253D01*
X223520000Y-85418395D01*
X224404475Y-84533920D01*
X224320792Y-84279739D01*
X224048225Y-84148842D01*
X223755358Y-84073635D01*
X223453447Y-84057009D01*
X223154093Y-84099603D01*
X222868801Y-84199778D01*
X222719208Y-84279739D01*
X222635526Y-84533918D01*
X222631000Y-84529392D01*
X222631000Y-79300608D01*
X222635526Y-79296082D01*
X222719208Y-79550261D01*
X222991775Y-79681158D01*
X223284642Y-79756365D01*
X223586553Y-79772991D01*
X223885907Y-79730397D01*
X224171199Y-79630222D01*
X224320792Y-79550261D01*
X224404475Y-79296080D01*
X223520000Y-78411605D01*
X223505858Y-78425748D01*
X223326253Y-78246143D01*
X223340395Y-78232000D01*
X223326253Y-78217858D01*
X223505858Y-78038253D01*
X223520000Y-78052395D01*
X224404475Y-77167920D01*
X224320792Y-76913739D01*
X224048225Y-76782842D01*
X223755358Y-76707635D01*
X223453447Y-76691009D01*
X223154093Y-76733603D01*
X222868801Y-76833778D01*
X222719208Y-76913739D01*
X222635526Y-77167918D01*
X222631000Y-77163392D01*
X222631000Y-71934608D01*
X222635526Y-71930082D01*
X222719208Y-72184261D01*
X222991775Y-72315158D01*
X223284642Y-72390365D01*
X223586553Y-72406991D01*
X223885907Y-72364397D01*
X224171199Y-72264222D01*
X224320792Y-72184261D01*
X224404475Y-71930080D01*
X223520000Y-71045605D01*
X223505858Y-71059748D01*
X223326253Y-70880143D01*
X223340395Y-70866000D01*
X223326253Y-70851858D01*
X223505858Y-70672253D01*
X223520000Y-70686395D01*
X224404475Y-69801920D01*
X224320792Y-69547739D01*
X224048225Y-69416842D01*
X223755358Y-69341635D01*
X223453447Y-69325009D01*
X223154093Y-69367603D01*
X222868801Y-69467778D01*
X222719208Y-69547739D01*
X222635526Y-69801918D01*
X222631000Y-69797392D01*
X222631000Y-64568608D01*
X222635526Y-64564082D01*
X222719208Y-64818261D01*
X222991775Y-64949158D01*
X223284642Y-65024365D01*
X223586553Y-65040991D01*
X223885907Y-64998397D01*
X224171199Y-64898222D01*
X224320792Y-64818261D01*
X224404475Y-64564080D01*
X223520000Y-63679605D01*
X223505858Y-63693748D01*
X223326253Y-63514143D01*
X223340395Y-63500000D01*
X223326253Y-63485858D01*
X223505858Y-63306253D01*
X223520000Y-63320395D01*
X224404475Y-62435920D01*
X224320792Y-62181739D01*
X224048225Y-62050842D01*
X223755358Y-61975635D01*
X223453447Y-61959009D01*
X223154093Y-62001603D01*
X222868801Y-62101778D01*
X222719208Y-62181739D01*
X222635526Y-62435918D01*
X222631000Y-62431392D01*
X222631000Y-57202608D01*
X222635526Y-57198082D01*
X222719208Y-57452261D01*
X222991775Y-57583158D01*
X223284642Y-57658365D01*
X223586553Y-57674991D01*
X223885907Y-57632397D01*
X224171199Y-57532222D01*
X224320792Y-57452261D01*
X224404475Y-57198080D01*
X223520000Y-56313605D01*
X223505858Y-56327748D01*
X223326253Y-56148143D01*
X223340395Y-56134000D01*
X223326253Y-56119858D01*
X223505858Y-55940253D01*
X223520000Y-55954395D01*
X224404475Y-55069920D01*
X224320792Y-54815739D01*
X224048225Y-54684842D01*
X223755358Y-54609635D01*
X223453447Y-54593009D01*
X223154093Y-54635603D01*
X222868801Y-54735778D01*
X222719208Y-54815739D01*
X222635526Y-55069918D01*
X222631000Y-55065392D01*
X222631000Y-49836608D01*
X222635526Y-49832082D01*
X222719208Y-50086261D01*
X222991775Y-50217158D01*
X223284642Y-50292365D01*
X223586553Y-50308991D01*
X223885907Y-50266397D01*
X224171199Y-50166222D01*
X224320792Y-50086261D01*
X224404475Y-49832080D01*
X223520000Y-48947605D01*
X223505858Y-48961748D01*
X223326253Y-48782143D01*
X223340395Y-48768000D01*
X223326253Y-48753858D01*
X223505858Y-48574253D01*
X223520000Y-48588395D01*
X224404475Y-47703920D01*
X224320792Y-47449739D01*
X224048225Y-47318842D01*
X223755358Y-47243635D01*
X223453447Y-47227009D01*
X223154093Y-47269603D01*
X222868801Y-47369778D01*
X222719208Y-47449739D01*
X222635526Y-47703918D01*
X222631000Y-47699392D01*
X222631000Y-42470608D01*
X222635526Y-42466082D01*
X222719208Y-42720261D01*
X222991775Y-42851158D01*
X223284642Y-42926365D01*
X223586553Y-42942991D01*
X223885907Y-42900397D01*
X224171199Y-42800222D01*
X224320792Y-42720261D01*
X224404475Y-42466080D01*
X223520000Y-41581605D01*
X223505858Y-41595748D01*
X223326253Y-41416143D01*
X223340395Y-41402000D01*
X223326253Y-41387858D01*
X223505858Y-41208253D01*
X223520000Y-41222395D01*
X224404475Y-40337920D01*
X224320792Y-40083739D01*
X224048225Y-39952842D01*
X223755358Y-39877635D01*
X223453447Y-39861009D01*
X223154093Y-39903603D01*
X222868801Y-40003778D01*
X222719208Y-40083739D01*
X222635526Y-40337918D01*
X222631000Y-40333392D01*
X222631000Y-35104608D01*
X222635526Y-35100082D01*
X222719208Y-35354261D01*
X222991775Y-35485158D01*
X223284642Y-35560365D01*
X223586553Y-35576991D01*
X223885907Y-35534397D01*
X224171199Y-35434222D01*
X224320792Y-35354261D01*
X224404475Y-35100080D01*
X223520000Y-34215605D01*
X223505858Y-34229748D01*
X223326253Y-34050143D01*
X223340395Y-34036000D01*
X223326253Y-34021858D01*
X223505858Y-33842253D01*
X223520000Y-33856395D01*
X224404475Y-32971920D01*
X224320792Y-32717739D01*
X224048225Y-32586842D01*
X223755358Y-32511635D01*
X223453447Y-32495009D01*
X223154093Y-32537603D01*
X222868801Y-32637778D01*
X222719208Y-32717739D01*
X222635526Y-32971918D01*
X222631000Y-32967392D01*
X222631000Y-27738608D01*
X222635526Y-27734082D01*
X222719208Y-27988261D01*
X222991775Y-28119158D01*
X223284642Y-28194365D01*
X223586553Y-28210991D01*
X223885907Y-28168397D01*
X224171199Y-28068222D01*
X224320792Y-27988261D01*
X224404475Y-27734080D01*
X223520000Y-26849605D01*
X223505858Y-26863748D01*
X223326253Y-26684143D01*
X223340395Y-26670000D01*
X223326253Y-26655858D01*
X223505858Y-26476253D01*
X223520000Y-26490395D01*
X224404475Y-25605920D01*
X224320792Y-25351739D01*
X224048225Y-25220842D01*
X223755358Y-25145635D01*
X223453447Y-25129009D01*
X223154093Y-25171603D01*
X222868801Y-25271778D01*
X222719208Y-25351739D01*
X222635526Y-25605918D01*
X222631000Y-25601392D01*
X222631000Y-23443000D01*
X224917000Y-23443000D01*
X224917000Y-26016515D01*
G37*
X224917000Y-26016515D02*
X224838261Y-25869208D01*
X224584080Y-25785525D01*
X223699605Y-26670000D01*
X224584080Y-27554475D01*
X224838261Y-27470792D01*
X224917000Y-27306834D01*
X224917000Y-33382515D01*
X224838261Y-33235208D01*
X224584080Y-33151525D01*
X223699605Y-34036000D01*
X224584080Y-34920475D01*
X224838261Y-34836792D01*
X224917000Y-34672834D01*
X224917000Y-40748515D01*
X224838261Y-40601208D01*
X224584080Y-40517525D01*
X223699605Y-41402000D01*
X224584080Y-42286475D01*
X224838261Y-42202792D01*
X224917000Y-42038834D01*
X224917000Y-48114515D01*
X224838261Y-47967208D01*
X224584080Y-47883525D01*
X223699605Y-48768000D01*
X224584080Y-49652475D01*
X224838261Y-49568792D01*
X224917000Y-49404834D01*
X224917000Y-55480515D01*
X224838261Y-55333208D01*
X224584080Y-55249525D01*
X223699605Y-56134000D01*
X224584080Y-57018475D01*
X224838261Y-56934792D01*
X224917000Y-56770834D01*
X224917000Y-62846515D01*
X224838261Y-62699208D01*
X224584080Y-62615525D01*
X223699605Y-63500000D01*
X224584080Y-64384475D01*
X224838261Y-64300792D01*
X224917000Y-64136834D01*
X224917000Y-70212515D01*
X224838261Y-70065208D01*
X224584080Y-69981525D01*
X223699605Y-70866000D01*
X224584080Y-71750475D01*
X224838261Y-71666792D01*
X224917000Y-71502834D01*
X224917000Y-77578515D01*
X224838261Y-77431208D01*
X224584080Y-77347525D01*
X223699605Y-78232000D01*
X224584080Y-79116475D01*
X224838261Y-79032792D01*
X224917000Y-78868834D01*
X224917000Y-84944515D01*
X224838261Y-84797208D01*
X224584080Y-84713525D01*
X223699605Y-85598000D01*
X224584080Y-86482475D01*
X224838261Y-86398792D01*
X224917000Y-86234834D01*
X224917000Y-87630000D01*
X222631000Y-87630000D01*
X222631000Y-86666608D01*
X222635526Y-86662082D01*
X222719208Y-86916261D01*
X222991775Y-87047158D01*
X223284642Y-87122365D01*
X223586553Y-87138991D01*
X223885907Y-87096397D01*
X224171199Y-86996222D01*
X224320792Y-86916261D01*
X224404475Y-86662080D01*
X223520000Y-85777605D01*
X223505858Y-85791748D01*
X223326253Y-85612143D01*
X223340395Y-85598000D01*
X223326253Y-85583858D01*
X223505858Y-85404253D01*
X223520000Y-85418395D01*
X224404475Y-84533920D01*
X224320792Y-84279739D01*
X224048225Y-84148842D01*
X223755358Y-84073635D01*
X223453447Y-84057009D01*
X223154093Y-84099603D01*
X222868801Y-84199778D01*
X222719208Y-84279739D01*
X222635526Y-84533918D01*
X222631000Y-84529392D01*
X222631000Y-79300608D01*
X222635526Y-79296082D01*
X222719208Y-79550261D01*
X222991775Y-79681158D01*
X223284642Y-79756365D01*
X223586553Y-79772991D01*
X223885907Y-79730397D01*
X224171199Y-79630222D01*
X224320792Y-79550261D01*
X224404475Y-79296080D01*
X223520000Y-78411605D01*
X223505858Y-78425748D01*
X223326253Y-78246143D01*
X223340395Y-78232000D01*
X223326253Y-78217858D01*
X223505858Y-78038253D01*
X223520000Y-78052395D01*
X224404475Y-77167920D01*
X224320792Y-76913739D01*
X224048225Y-76782842D01*
X223755358Y-76707635D01*
X223453447Y-76691009D01*
X223154093Y-76733603D01*
X222868801Y-76833778D01*
X222719208Y-76913739D01*
X222635526Y-77167918D01*
X222631000Y-77163392D01*
X222631000Y-71934608D01*
X222635526Y-71930082D01*
X222719208Y-72184261D01*
X222991775Y-72315158D01*
X223284642Y-72390365D01*
X223586553Y-72406991D01*
X223885907Y-72364397D01*
X224171199Y-72264222D01*
X224320792Y-72184261D01*
X224404475Y-71930080D01*
X223520000Y-71045605D01*
X223505858Y-71059748D01*
X223326253Y-70880143D01*
X223340395Y-70866000D01*
X223326253Y-70851858D01*
X223505858Y-70672253D01*
X223520000Y-70686395D01*
X224404475Y-69801920D01*
X224320792Y-69547739D01*
X224048225Y-69416842D01*
X223755358Y-69341635D01*
X223453447Y-69325009D01*
X223154093Y-69367603D01*
X222868801Y-69467778D01*
X222719208Y-69547739D01*
X222635526Y-69801918D01*
X222631000Y-69797392D01*
X222631000Y-64568608D01*
X222635526Y-64564082D01*
X222719208Y-64818261D01*
X222991775Y-64949158D01*
X223284642Y-65024365D01*
X223586553Y-65040991D01*
X223885907Y-64998397D01*
X224171199Y-64898222D01*
X224320792Y-64818261D01*
X224404475Y-64564080D01*
X223520000Y-63679605D01*
X223505858Y-63693748D01*
X223326253Y-63514143D01*
X223340395Y-63500000D01*
X223326253Y-63485858D01*
X223505858Y-63306253D01*
X223520000Y-63320395D01*
X224404475Y-62435920D01*
X224320792Y-62181739D01*
X224048225Y-62050842D01*
X223755358Y-61975635D01*
X223453447Y-61959009D01*
X223154093Y-62001603D01*
X222868801Y-62101778D01*
X222719208Y-62181739D01*
X222635526Y-62435918D01*
X222631000Y-62431392D01*
X222631000Y-57202608D01*
X222635526Y-57198082D01*
X222719208Y-57452261D01*
X222991775Y-57583158D01*
X223284642Y-57658365D01*
X223586553Y-57674991D01*
X223885907Y-57632397D01*
X224171199Y-57532222D01*
X224320792Y-57452261D01*
X224404475Y-57198080D01*
X223520000Y-56313605D01*
X223505858Y-56327748D01*
X223326253Y-56148143D01*
X223340395Y-56134000D01*
X223326253Y-56119858D01*
X223505858Y-55940253D01*
X223520000Y-55954395D01*
X224404475Y-55069920D01*
X224320792Y-54815739D01*
X224048225Y-54684842D01*
X223755358Y-54609635D01*
X223453447Y-54593009D01*
X223154093Y-54635603D01*
X222868801Y-54735778D01*
X222719208Y-54815739D01*
X222635526Y-55069918D01*
X222631000Y-55065392D01*
X222631000Y-49836608D01*
X222635526Y-49832082D01*
X222719208Y-50086261D01*
X222991775Y-50217158D01*
X223284642Y-50292365D01*
X223586553Y-50308991D01*
X223885907Y-50266397D01*
X224171199Y-50166222D01*
X224320792Y-50086261D01*
X224404475Y-49832080D01*
X223520000Y-48947605D01*
X223505858Y-48961748D01*
X223326253Y-48782143D01*
X223340395Y-48768000D01*
X223326253Y-48753858D01*
X223505858Y-48574253D01*
X223520000Y-48588395D01*
X224404475Y-47703920D01*
X224320792Y-47449739D01*
X224048225Y-47318842D01*
X223755358Y-47243635D01*
X223453447Y-47227009D01*
X223154093Y-47269603D01*
X222868801Y-47369778D01*
X222719208Y-47449739D01*
X222635526Y-47703918D01*
X222631000Y-47699392D01*
X222631000Y-42470608D01*
X222635526Y-42466082D01*
X222719208Y-42720261D01*
X222991775Y-42851158D01*
X223284642Y-42926365D01*
X223586553Y-42942991D01*
X223885907Y-42900397D01*
X224171199Y-42800222D01*
X224320792Y-42720261D01*
X224404475Y-42466080D01*
X223520000Y-41581605D01*
X223505858Y-41595748D01*
X223326253Y-41416143D01*
X223340395Y-41402000D01*
X223326253Y-41387858D01*
X223505858Y-41208253D01*
X223520000Y-41222395D01*
X224404475Y-40337920D01*
X224320792Y-40083739D01*
X224048225Y-39952842D01*
X223755358Y-39877635D01*
X223453447Y-39861009D01*
X223154093Y-39903603D01*
X222868801Y-40003778D01*
X222719208Y-40083739D01*
X222635526Y-40337918D01*
X222631000Y-40333392D01*
X222631000Y-35104608D01*
X222635526Y-35100082D01*
X222719208Y-35354261D01*
X222991775Y-35485158D01*
X223284642Y-35560365D01*
X223586553Y-35576991D01*
X223885907Y-35534397D01*
X224171199Y-35434222D01*
X224320792Y-35354261D01*
X224404475Y-35100080D01*
X223520000Y-34215605D01*
X223505858Y-34229748D01*
X223326253Y-34050143D01*
X223340395Y-34036000D01*
X223326253Y-34021858D01*
X223505858Y-33842253D01*
X223520000Y-33856395D01*
X224404475Y-32971920D01*
X224320792Y-32717739D01*
X224048225Y-32586842D01*
X223755358Y-32511635D01*
X223453447Y-32495009D01*
X223154093Y-32537603D01*
X222868801Y-32637778D01*
X222719208Y-32717739D01*
X222635526Y-32971918D01*
X222631000Y-32967392D01*
X222631000Y-27738608D01*
X222635526Y-27734082D01*
X222719208Y-27988261D01*
X222991775Y-28119158D01*
X223284642Y-28194365D01*
X223586553Y-28210991D01*
X223885907Y-28168397D01*
X224171199Y-28068222D01*
X224320792Y-27988261D01*
X224404475Y-27734080D01*
X223520000Y-26849605D01*
X223505858Y-26863748D01*
X223326253Y-26684143D01*
X223340395Y-26670000D01*
X223326253Y-26655858D01*
X223505858Y-26476253D01*
X223520000Y-26490395D01*
X224404475Y-25605920D01*
X224320792Y-25351739D01*
X224048225Y-25220842D01*
X223755358Y-25145635D01*
X223453447Y-25129009D01*
X223154093Y-25171603D01*
X222868801Y-25271778D01*
X222719208Y-25351739D01*
X222635526Y-25605918D01*
X222631000Y-25601392D01*
X222631000Y-23443000D01*
X224917000Y-23443000D01*
X224917000Y-26016515D01*
M02*
