G04 #@! TF.GenerationSoftware,KiCad,Pcbnew,(5.1.5-0-10_14)*
G04 #@! TF.CreationDate,2020-02-27T20:03:29-05:00*
G04 #@! TF.ProjectId,led_level_pcb,6c65645f-6c65-4766-956c-5f7063622e6b,rev?*
G04 #@! TF.SameCoordinates,Original*
G04 #@! TF.FileFunction,Soldermask,Bot*
G04 #@! TF.FilePolarity,Negative*
%FSLAX46Y46*%
G04 Gerber Fmt 4.6, Leading zero omitted, Abs format (unit mm)*
G04 Created by KiCad (PCBNEW (5.1.5-0-10_14)) date 2020-02-27 20:03:29*
%MOMM*%
%LPD*%
G04 APERTURE LIST*
%ADD10C,0.100000*%
G04 APERTURE END LIST*
D10*
G36*
X223797395Y-84683546D02*
G01*
X223970466Y-84755234D01*
X223970467Y-84755235D01*
X224126227Y-84859310D01*
X224258690Y-84991773D01*
X224258691Y-84991775D01*
X224362766Y-85147534D01*
X224434454Y-85320605D01*
X224471000Y-85504333D01*
X224471000Y-85691667D01*
X224434454Y-85875395D01*
X224362766Y-86048466D01*
X224362765Y-86048467D01*
X224258690Y-86204227D01*
X224126227Y-86336690D01*
X224047818Y-86389081D01*
X223970466Y-86440766D01*
X223797395Y-86512454D01*
X223613667Y-86549000D01*
X223426333Y-86549000D01*
X223242605Y-86512454D01*
X223069534Y-86440766D01*
X222992182Y-86389081D01*
X222913773Y-86336690D01*
X222781310Y-86204227D01*
X222677235Y-86048467D01*
X222677234Y-86048466D01*
X222605546Y-85875395D01*
X222569000Y-85691667D01*
X222569000Y-85504333D01*
X222605546Y-85320605D01*
X222677234Y-85147534D01*
X222781309Y-84991775D01*
X222781310Y-84991773D01*
X222913773Y-84859310D01*
X223069533Y-84755235D01*
X223069534Y-84755234D01*
X223242605Y-84683546D01*
X223426333Y-84647000D01*
X223613667Y-84647000D01*
X223797395Y-84683546D01*
G37*
G36*
X221931000Y-86549000D02*
G01*
X220029000Y-86549000D01*
X220029000Y-84647000D01*
X221931000Y-84647000D01*
X221931000Y-86549000D01*
G37*
G36*
X204268564Y-80269389D02*
G01*
X204459833Y-80348615D01*
X204459835Y-80348616D01*
X204631973Y-80463635D01*
X204778365Y-80610027D01*
X204893385Y-80782167D01*
X204972611Y-80973436D01*
X205013000Y-81176484D01*
X205013000Y-81383516D01*
X204972611Y-81586564D01*
X204893385Y-81777833D01*
X204893384Y-81777835D01*
X204778365Y-81949973D01*
X204631973Y-82096365D01*
X204459835Y-82211384D01*
X204459834Y-82211385D01*
X204459833Y-82211385D01*
X204268564Y-82290611D01*
X204065516Y-82331000D01*
X203858484Y-82331000D01*
X203655436Y-82290611D01*
X203464167Y-82211385D01*
X203464166Y-82211385D01*
X203464165Y-82211384D01*
X203292027Y-82096365D01*
X203145635Y-81949973D01*
X203030616Y-81777835D01*
X203030615Y-81777833D01*
X202951389Y-81586564D01*
X202911000Y-81383516D01*
X202911000Y-81176484D01*
X202951389Y-80973436D01*
X203030615Y-80782167D01*
X203145635Y-80610027D01*
X203292027Y-80463635D01*
X203464165Y-80348616D01*
X203464167Y-80348615D01*
X203655436Y-80269389D01*
X203858484Y-80229000D01*
X204065516Y-80229000D01*
X204268564Y-80269389D01*
G37*
G36*
X197768564Y-80269389D02*
G01*
X197959833Y-80348615D01*
X197959835Y-80348616D01*
X198131973Y-80463635D01*
X198278365Y-80610027D01*
X198393385Y-80782167D01*
X198472611Y-80973436D01*
X198513000Y-81176484D01*
X198513000Y-81383516D01*
X198472611Y-81586564D01*
X198393385Y-81777833D01*
X198393384Y-81777835D01*
X198278365Y-81949973D01*
X198131973Y-82096365D01*
X197959835Y-82211384D01*
X197959834Y-82211385D01*
X197959833Y-82211385D01*
X197768564Y-82290611D01*
X197565516Y-82331000D01*
X197358484Y-82331000D01*
X197155436Y-82290611D01*
X196964167Y-82211385D01*
X196964166Y-82211385D01*
X196964165Y-82211384D01*
X196792027Y-82096365D01*
X196645635Y-81949973D01*
X196530616Y-81777835D01*
X196530615Y-81777833D01*
X196451389Y-81586564D01*
X196411000Y-81383516D01*
X196411000Y-81176484D01*
X196451389Y-80973436D01*
X196530615Y-80782167D01*
X196645635Y-80610027D01*
X196792027Y-80463635D01*
X196964165Y-80348616D01*
X196964167Y-80348615D01*
X197155436Y-80269389D01*
X197358484Y-80229000D01*
X197565516Y-80229000D01*
X197768564Y-80269389D01*
G37*
G36*
X192584564Y-80269389D02*
G01*
X192775833Y-80348615D01*
X192775835Y-80348616D01*
X192947973Y-80463635D01*
X193094365Y-80610027D01*
X193209385Y-80782167D01*
X193288611Y-80973436D01*
X193329000Y-81176484D01*
X193329000Y-81383516D01*
X193288611Y-81586564D01*
X193209385Y-81777833D01*
X193209384Y-81777835D01*
X193094365Y-81949973D01*
X192947973Y-82096365D01*
X192775835Y-82211384D01*
X192775834Y-82211385D01*
X192775833Y-82211385D01*
X192584564Y-82290611D01*
X192381516Y-82331000D01*
X192174484Y-82331000D01*
X191971436Y-82290611D01*
X191780167Y-82211385D01*
X191780166Y-82211385D01*
X191780165Y-82211384D01*
X191608027Y-82096365D01*
X191461635Y-81949973D01*
X191346616Y-81777835D01*
X191346615Y-81777833D01*
X191267389Y-81586564D01*
X191227000Y-81383516D01*
X191227000Y-81176484D01*
X191267389Y-80973436D01*
X191346615Y-80782167D01*
X191461635Y-80610027D01*
X191608027Y-80463635D01*
X191780165Y-80348616D01*
X191780167Y-80348615D01*
X191971436Y-80269389D01*
X192174484Y-80229000D01*
X192381516Y-80229000D01*
X192584564Y-80269389D01*
G37*
G36*
X186084564Y-80269389D02*
G01*
X186275833Y-80348615D01*
X186275835Y-80348616D01*
X186447973Y-80463635D01*
X186594365Y-80610027D01*
X186709385Y-80782167D01*
X186788611Y-80973436D01*
X186829000Y-81176484D01*
X186829000Y-81383516D01*
X186788611Y-81586564D01*
X186709385Y-81777833D01*
X186709384Y-81777835D01*
X186594365Y-81949973D01*
X186447973Y-82096365D01*
X186275835Y-82211384D01*
X186275834Y-82211385D01*
X186275833Y-82211385D01*
X186084564Y-82290611D01*
X185881516Y-82331000D01*
X185674484Y-82331000D01*
X185471436Y-82290611D01*
X185280167Y-82211385D01*
X185280166Y-82211385D01*
X185280165Y-82211384D01*
X185108027Y-82096365D01*
X184961635Y-81949973D01*
X184846616Y-81777835D01*
X184846615Y-81777833D01*
X184767389Y-81586564D01*
X184727000Y-81383516D01*
X184727000Y-81176484D01*
X184767389Y-80973436D01*
X184846615Y-80782167D01*
X184961635Y-80610027D01*
X185108027Y-80463635D01*
X185280165Y-80348616D01*
X185280167Y-80348615D01*
X185471436Y-80269389D01*
X185674484Y-80229000D01*
X185881516Y-80229000D01*
X186084564Y-80269389D01*
G37*
G36*
X223797395Y-77317546D02*
G01*
X223970466Y-77389234D01*
X223970467Y-77389235D01*
X224126227Y-77493310D01*
X224258690Y-77625773D01*
X224258691Y-77625775D01*
X224362766Y-77781534D01*
X224434454Y-77954605D01*
X224471000Y-78138333D01*
X224471000Y-78325667D01*
X224434454Y-78509395D01*
X224362766Y-78682466D01*
X224362765Y-78682467D01*
X224258690Y-78838227D01*
X224126227Y-78970690D01*
X224047818Y-79023081D01*
X223970466Y-79074766D01*
X223797395Y-79146454D01*
X223613667Y-79183000D01*
X223426333Y-79183000D01*
X223242605Y-79146454D01*
X223069534Y-79074766D01*
X222992182Y-79023081D01*
X222913773Y-78970690D01*
X222781310Y-78838227D01*
X222677235Y-78682467D01*
X222677234Y-78682466D01*
X222605546Y-78509395D01*
X222569000Y-78325667D01*
X222569000Y-78138333D01*
X222605546Y-77954605D01*
X222677234Y-77781534D01*
X222781309Y-77625775D01*
X222781310Y-77625773D01*
X222913773Y-77493310D01*
X223069533Y-77389235D01*
X223069534Y-77389234D01*
X223242605Y-77317546D01*
X223426333Y-77281000D01*
X223613667Y-77281000D01*
X223797395Y-77317546D01*
G37*
G36*
X221931000Y-79183000D02*
G01*
X220029000Y-79183000D01*
X220029000Y-77281000D01*
X221931000Y-77281000D01*
X221931000Y-79183000D01*
G37*
G36*
X204268564Y-75769389D02*
G01*
X204459833Y-75848615D01*
X204459835Y-75848616D01*
X204631973Y-75963635D01*
X204778365Y-76110027D01*
X204893385Y-76282167D01*
X204972611Y-76473436D01*
X205013000Y-76676484D01*
X205013000Y-76883516D01*
X204972611Y-77086564D01*
X204893385Y-77277833D01*
X204893384Y-77277835D01*
X204778365Y-77449973D01*
X204631973Y-77596365D01*
X204459835Y-77711384D01*
X204459834Y-77711385D01*
X204459833Y-77711385D01*
X204268564Y-77790611D01*
X204065516Y-77831000D01*
X203858484Y-77831000D01*
X203655436Y-77790611D01*
X203464167Y-77711385D01*
X203464166Y-77711385D01*
X203464165Y-77711384D01*
X203292027Y-77596365D01*
X203145635Y-77449973D01*
X203030616Y-77277835D01*
X203030615Y-77277833D01*
X202951389Y-77086564D01*
X202911000Y-76883516D01*
X202911000Y-76676484D01*
X202951389Y-76473436D01*
X203030615Y-76282167D01*
X203145635Y-76110027D01*
X203292027Y-75963635D01*
X203464165Y-75848616D01*
X203464167Y-75848615D01*
X203655436Y-75769389D01*
X203858484Y-75729000D01*
X204065516Y-75729000D01*
X204268564Y-75769389D01*
G37*
G36*
X197768564Y-75769389D02*
G01*
X197959833Y-75848615D01*
X197959835Y-75848616D01*
X198131973Y-75963635D01*
X198278365Y-76110027D01*
X198393385Y-76282167D01*
X198472611Y-76473436D01*
X198513000Y-76676484D01*
X198513000Y-76883516D01*
X198472611Y-77086564D01*
X198393385Y-77277833D01*
X198393384Y-77277835D01*
X198278365Y-77449973D01*
X198131973Y-77596365D01*
X197959835Y-77711384D01*
X197959834Y-77711385D01*
X197959833Y-77711385D01*
X197768564Y-77790611D01*
X197565516Y-77831000D01*
X197358484Y-77831000D01*
X197155436Y-77790611D01*
X196964167Y-77711385D01*
X196964166Y-77711385D01*
X196964165Y-77711384D01*
X196792027Y-77596365D01*
X196645635Y-77449973D01*
X196530616Y-77277835D01*
X196530615Y-77277833D01*
X196451389Y-77086564D01*
X196411000Y-76883516D01*
X196411000Y-76676484D01*
X196451389Y-76473436D01*
X196530615Y-76282167D01*
X196645635Y-76110027D01*
X196792027Y-75963635D01*
X196964165Y-75848616D01*
X196964167Y-75848615D01*
X197155436Y-75769389D01*
X197358484Y-75729000D01*
X197565516Y-75729000D01*
X197768564Y-75769389D01*
G37*
G36*
X192584564Y-75769389D02*
G01*
X192775833Y-75848615D01*
X192775835Y-75848616D01*
X192947973Y-75963635D01*
X193094365Y-76110027D01*
X193209385Y-76282167D01*
X193288611Y-76473436D01*
X193329000Y-76676484D01*
X193329000Y-76883516D01*
X193288611Y-77086564D01*
X193209385Y-77277833D01*
X193209384Y-77277835D01*
X193094365Y-77449973D01*
X192947973Y-77596365D01*
X192775835Y-77711384D01*
X192775834Y-77711385D01*
X192775833Y-77711385D01*
X192584564Y-77790611D01*
X192381516Y-77831000D01*
X192174484Y-77831000D01*
X191971436Y-77790611D01*
X191780167Y-77711385D01*
X191780166Y-77711385D01*
X191780165Y-77711384D01*
X191608027Y-77596365D01*
X191461635Y-77449973D01*
X191346616Y-77277835D01*
X191346615Y-77277833D01*
X191267389Y-77086564D01*
X191227000Y-76883516D01*
X191227000Y-76676484D01*
X191267389Y-76473436D01*
X191346615Y-76282167D01*
X191461635Y-76110027D01*
X191608027Y-75963635D01*
X191780165Y-75848616D01*
X191780167Y-75848615D01*
X191971436Y-75769389D01*
X192174484Y-75729000D01*
X192381516Y-75729000D01*
X192584564Y-75769389D01*
G37*
G36*
X186084564Y-75769389D02*
G01*
X186275833Y-75848615D01*
X186275835Y-75848616D01*
X186447973Y-75963635D01*
X186594365Y-76110027D01*
X186709385Y-76282167D01*
X186788611Y-76473436D01*
X186829000Y-76676484D01*
X186829000Y-76883516D01*
X186788611Y-77086564D01*
X186709385Y-77277833D01*
X186709384Y-77277835D01*
X186594365Y-77449973D01*
X186447973Y-77596365D01*
X186275835Y-77711384D01*
X186275834Y-77711385D01*
X186275833Y-77711385D01*
X186084564Y-77790611D01*
X185881516Y-77831000D01*
X185674484Y-77831000D01*
X185471436Y-77790611D01*
X185280167Y-77711385D01*
X185280166Y-77711385D01*
X185280165Y-77711384D01*
X185108027Y-77596365D01*
X184961635Y-77449973D01*
X184846616Y-77277835D01*
X184846615Y-77277833D01*
X184767389Y-77086564D01*
X184727000Y-76883516D01*
X184727000Y-76676484D01*
X184767389Y-76473436D01*
X184846615Y-76282167D01*
X184961635Y-76110027D01*
X185108027Y-75963635D01*
X185280165Y-75848616D01*
X185280167Y-75848615D01*
X185471436Y-75769389D01*
X185674484Y-75729000D01*
X185881516Y-75729000D01*
X186084564Y-75769389D01*
G37*
G36*
X186238510Y-71122969D02*
G01*
X186387810Y-71152666D01*
X186551782Y-71220586D01*
X186699352Y-71319189D01*
X186824851Y-71444688D01*
X186923454Y-71592258D01*
X186991374Y-71756230D01*
X187025998Y-71930301D01*
X187025998Y-72107783D01*
X186991374Y-72281854D01*
X186923454Y-72445826D01*
X186824851Y-72593396D01*
X186699352Y-72718895D01*
X186551782Y-72817498D01*
X186387810Y-72885418D01*
X186238510Y-72915115D01*
X186213740Y-72920042D01*
X186036256Y-72920042D01*
X186011486Y-72915115D01*
X185862186Y-72885418D01*
X185698214Y-72817498D01*
X185550644Y-72718895D01*
X185425145Y-72593396D01*
X185326542Y-72445826D01*
X185258622Y-72281854D01*
X185223998Y-72107783D01*
X185223998Y-71930301D01*
X185258622Y-71756230D01*
X185326542Y-71592258D01*
X185425145Y-71444688D01*
X185550644Y-71319189D01*
X185698214Y-71220586D01*
X185862186Y-71152666D01*
X186011486Y-71122969D01*
X186036256Y-71118042D01*
X186213740Y-71118042D01*
X186238510Y-71122969D01*
G37*
G36*
X188778510Y-71122969D02*
G01*
X188927810Y-71152666D01*
X189091782Y-71220586D01*
X189239352Y-71319189D01*
X189364851Y-71444688D01*
X189463454Y-71592258D01*
X189531374Y-71756230D01*
X189565998Y-71930301D01*
X189565998Y-72107783D01*
X189531374Y-72281854D01*
X189463454Y-72445826D01*
X189364851Y-72593396D01*
X189239352Y-72718895D01*
X189091782Y-72817498D01*
X188927810Y-72885418D01*
X188778510Y-72915115D01*
X188753740Y-72920042D01*
X188576256Y-72920042D01*
X188551486Y-72915115D01*
X188402186Y-72885418D01*
X188238214Y-72817498D01*
X188090644Y-72718895D01*
X187965145Y-72593396D01*
X187866542Y-72445826D01*
X187798622Y-72281854D01*
X187763998Y-72107783D01*
X187763998Y-71930301D01*
X187798622Y-71756230D01*
X187866542Y-71592258D01*
X187965145Y-71444688D01*
X188090644Y-71319189D01*
X188238214Y-71220586D01*
X188402186Y-71152666D01*
X188551486Y-71122969D01*
X188576256Y-71118042D01*
X188753740Y-71118042D01*
X188778510Y-71122969D01*
G37*
G36*
X192105998Y-72920042D02*
G01*
X190303998Y-72920042D01*
X190303998Y-71118042D01*
X192105998Y-71118042D01*
X192105998Y-72920042D01*
G37*
G36*
X221931000Y-71817000D02*
G01*
X220029000Y-71817000D01*
X220029000Y-69915000D01*
X221931000Y-69915000D01*
X221931000Y-71817000D01*
G37*
G36*
X223797395Y-69951546D02*
G01*
X223970466Y-70023234D01*
X223970467Y-70023235D01*
X224126227Y-70127310D01*
X224258690Y-70259773D01*
X224258691Y-70259775D01*
X224362766Y-70415534D01*
X224434454Y-70588605D01*
X224471000Y-70772333D01*
X224471000Y-70959667D01*
X224434454Y-71143395D01*
X224362766Y-71316466D01*
X224360946Y-71319190D01*
X224258690Y-71472227D01*
X224126227Y-71604690D01*
X224047818Y-71657081D01*
X223970466Y-71708766D01*
X223797395Y-71780454D01*
X223613667Y-71817000D01*
X223426333Y-71817000D01*
X223242605Y-71780454D01*
X223069534Y-71708766D01*
X222992182Y-71657081D01*
X222913773Y-71604690D01*
X222781310Y-71472227D01*
X222679054Y-71319190D01*
X222677234Y-71316466D01*
X222605546Y-71143395D01*
X222569000Y-70959667D01*
X222569000Y-70772333D01*
X222605546Y-70588605D01*
X222677234Y-70415534D01*
X222781309Y-70259775D01*
X222781310Y-70259773D01*
X222913773Y-70127310D01*
X223069533Y-70023235D01*
X223069534Y-70023234D01*
X223242605Y-69951546D01*
X223426333Y-69915000D01*
X223613667Y-69915000D01*
X223797395Y-69951546D01*
G37*
G36*
X185025512Y-66413927D02*
G01*
X185174812Y-66443624D01*
X185338784Y-66511544D01*
X185486354Y-66610147D01*
X185611853Y-66735646D01*
X185710456Y-66883216D01*
X185778376Y-67047188D01*
X185813000Y-67221259D01*
X185813000Y-67398741D01*
X185778376Y-67572812D01*
X185710456Y-67736784D01*
X185611853Y-67884354D01*
X185486354Y-68009853D01*
X185338784Y-68108456D01*
X185174812Y-68176376D01*
X185025512Y-68206073D01*
X185000742Y-68211000D01*
X184823258Y-68211000D01*
X184798488Y-68206073D01*
X184649188Y-68176376D01*
X184485216Y-68108456D01*
X184337646Y-68009853D01*
X184212147Y-67884354D01*
X184113544Y-67736784D01*
X184045624Y-67572812D01*
X184011000Y-67398741D01*
X184011000Y-67221259D01*
X184045624Y-67047188D01*
X184113544Y-66883216D01*
X184212147Y-66735646D01*
X184337646Y-66610147D01*
X184485216Y-66511544D01*
X184649188Y-66443624D01*
X184798488Y-66413927D01*
X184823258Y-66409000D01*
X185000742Y-66409000D01*
X185025512Y-66413927D01*
G37*
G36*
X185025512Y-63873927D02*
G01*
X185174812Y-63903624D01*
X185338784Y-63971544D01*
X185486354Y-64070147D01*
X185611853Y-64195646D01*
X185710456Y-64343216D01*
X185778376Y-64507188D01*
X185813000Y-64681259D01*
X185813000Y-64858741D01*
X185778376Y-65032812D01*
X185710456Y-65196784D01*
X185611853Y-65344354D01*
X185486354Y-65469853D01*
X185338784Y-65568456D01*
X185174812Y-65636376D01*
X185025512Y-65666073D01*
X185000742Y-65671000D01*
X184823258Y-65671000D01*
X184798488Y-65666073D01*
X184649188Y-65636376D01*
X184485216Y-65568456D01*
X184337646Y-65469853D01*
X184212147Y-65344354D01*
X184113544Y-65196784D01*
X184045624Y-65032812D01*
X184011000Y-64858741D01*
X184011000Y-64681259D01*
X184045624Y-64507188D01*
X184113544Y-64343216D01*
X184212147Y-64195646D01*
X184337646Y-64070147D01*
X184485216Y-63971544D01*
X184649188Y-63903624D01*
X184798488Y-63873927D01*
X184823258Y-63869000D01*
X185000742Y-63869000D01*
X185025512Y-63873927D01*
G37*
G36*
X221931000Y-64451000D02*
G01*
X220029000Y-64451000D01*
X220029000Y-62549000D01*
X221931000Y-62549000D01*
X221931000Y-64451000D01*
G37*
G36*
X223797395Y-62585546D02*
G01*
X223970466Y-62657234D01*
X223970467Y-62657235D01*
X224126227Y-62761310D01*
X224258690Y-62893773D01*
X224258691Y-62893775D01*
X224362766Y-63049534D01*
X224434454Y-63222605D01*
X224471000Y-63406333D01*
X224471000Y-63593667D01*
X224434454Y-63777395D01*
X224362766Y-63950466D01*
X224362765Y-63950467D01*
X224258690Y-64106227D01*
X224126227Y-64238690D01*
X224047818Y-64291081D01*
X223970466Y-64342766D01*
X223797395Y-64414454D01*
X223613667Y-64451000D01*
X223426333Y-64451000D01*
X223242605Y-64414454D01*
X223069534Y-64342766D01*
X222992182Y-64291081D01*
X222913773Y-64238690D01*
X222781310Y-64106227D01*
X222677235Y-63950467D01*
X222677234Y-63950466D01*
X222605546Y-63777395D01*
X222569000Y-63593667D01*
X222569000Y-63406333D01*
X222605546Y-63222605D01*
X222677234Y-63049534D01*
X222781309Y-62893775D01*
X222781310Y-62893773D01*
X222913773Y-62761310D01*
X223069533Y-62657235D01*
X223069534Y-62657234D01*
X223242605Y-62585546D01*
X223426333Y-62549000D01*
X223613667Y-62549000D01*
X223797395Y-62585546D01*
G37*
G36*
X185025512Y-61333927D02*
G01*
X185174812Y-61363624D01*
X185338784Y-61431544D01*
X185486354Y-61530147D01*
X185611853Y-61655646D01*
X185710456Y-61803216D01*
X185778376Y-61967188D01*
X185813000Y-62141259D01*
X185813000Y-62318741D01*
X185778376Y-62492812D01*
X185710456Y-62656784D01*
X185611853Y-62804354D01*
X185486354Y-62929853D01*
X185338784Y-63028456D01*
X185174812Y-63096376D01*
X185025512Y-63126073D01*
X185000742Y-63131000D01*
X184823258Y-63131000D01*
X184798488Y-63126073D01*
X184649188Y-63096376D01*
X184485216Y-63028456D01*
X184337646Y-62929853D01*
X184212147Y-62804354D01*
X184113544Y-62656784D01*
X184045624Y-62492812D01*
X184011000Y-62318741D01*
X184011000Y-62141259D01*
X184045624Y-61967188D01*
X184113544Y-61803216D01*
X184212147Y-61655646D01*
X184337646Y-61530147D01*
X184485216Y-61431544D01*
X184649188Y-61363624D01*
X184798488Y-61333927D01*
X184823258Y-61329000D01*
X185000742Y-61329000D01*
X185025512Y-61333927D01*
G37*
G36*
X185025512Y-58793927D02*
G01*
X185174812Y-58823624D01*
X185338784Y-58891544D01*
X185486354Y-58990147D01*
X185611853Y-59115646D01*
X185710456Y-59263216D01*
X185778376Y-59427188D01*
X185813000Y-59601259D01*
X185813000Y-59778741D01*
X185778376Y-59952812D01*
X185710456Y-60116784D01*
X185611853Y-60264354D01*
X185486354Y-60389853D01*
X185338784Y-60488456D01*
X185174812Y-60556376D01*
X185025512Y-60586073D01*
X185000742Y-60591000D01*
X184823258Y-60591000D01*
X184798488Y-60586073D01*
X184649188Y-60556376D01*
X184485216Y-60488456D01*
X184337646Y-60389853D01*
X184212147Y-60264354D01*
X184113544Y-60116784D01*
X184045624Y-59952812D01*
X184011000Y-59778741D01*
X184011000Y-59601259D01*
X184045624Y-59427188D01*
X184113544Y-59263216D01*
X184212147Y-59115646D01*
X184337646Y-58990147D01*
X184485216Y-58891544D01*
X184649188Y-58823624D01*
X184798488Y-58793927D01*
X184823258Y-58789000D01*
X185000742Y-58789000D01*
X185025512Y-58793927D01*
G37*
G36*
X185025512Y-56253927D02*
G01*
X185174812Y-56283624D01*
X185338784Y-56351544D01*
X185486354Y-56450147D01*
X185611853Y-56575646D01*
X185710456Y-56723216D01*
X185778376Y-56887188D01*
X185813000Y-57061259D01*
X185813000Y-57238741D01*
X185778376Y-57412812D01*
X185710456Y-57576784D01*
X185611853Y-57724354D01*
X185486354Y-57849853D01*
X185338784Y-57948456D01*
X185174812Y-58016376D01*
X185025512Y-58046073D01*
X185000742Y-58051000D01*
X184823258Y-58051000D01*
X184798488Y-58046073D01*
X184649188Y-58016376D01*
X184485216Y-57948456D01*
X184337646Y-57849853D01*
X184212147Y-57724354D01*
X184113544Y-57576784D01*
X184045624Y-57412812D01*
X184011000Y-57238741D01*
X184011000Y-57061259D01*
X184045624Y-56887188D01*
X184113544Y-56723216D01*
X184212147Y-56575646D01*
X184337646Y-56450147D01*
X184485216Y-56351544D01*
X184649188Y-56283624D01*
X184798488Y-56253927D01*
X184823258Y-56249000D01*
X185000742Y-56249000D01*
X185025512Y-56253927D01*
G37*
G36*
X221931000Y-57085000D02*
G01*
X220029000Y-57085000D01*
X220029000Y-55183000D01*
X221931000Y-55183000D01*
X221931000Y-57085000D01*
G37*
G36*
X223797395Y-55219546D02*
G01*
X223970466Y-55291234D01*
X223998331Y-55309853D01*
X224126227Y-55395310D01*
X224258690Y-55527773D01*
X224258691Y-55527775D01*
X224362766Y-55683534D01*
X224434454Y-55856605D01*
X224471000Y-56040333D01*
X224471000Y-56227667D01*
X224434454Y-56411395D01*
X224362766Y-56584466D01*
X224362765Y-56584467D01*
X224258690Y-56740227D01*
X224126227Y-56872690D01*
X224047818Y-56925081D01*
X223970466Y-56976766D01*
X223797395Y-57048454D01*
X223613667Y-57085000D01*
X223426333Y-57085000D01*
X223242605Y-57048454D01*
X223069534Y-56976766D01*
X222992182Y-56925081D01*
X222913773Y-56872690D01*
X222781310Y-56740227D01*
X222677235Y-56584467D01*
X222677234Y-56584466D01*
X222605546Y-56411395D01*
X222569000Y-56227667D01*
X222569000Y-56040333D01*
X222605546Y-55856605D01*
X222677234Y-55683534D01*
X222781309Y-55527775D01*
X222781310Y-55527773D01*
X222913773Y-55395310D01*
X223041669Y-55309853D01*
X223069534Y-55291234D01*
X223242605Y-55219546D01*
X223426333Y-55183000D01*
X223613667Y-55183000D01*
X223797395Y-55219546D01*
G37*
G36*
X185025512Y-53713927D02*
G01*
X185174812Y-53743624D01*
X185338784Y-53811544D01*
X185486354Y-53910147D01*
X185611853Y-54035646D01*
X185710456Y-54183216D01*
X185778376Y-54347188D01*
X185813000Y-54521259D01*
X185813000Y-54698741D01*
X185778376Y-54872812D01*
X185710456Y-55036784D01*
X185611853Y-55184354D01*
X185486354Y-55309853D01*
X185338784Y-55408456D01*
X185174812Y-55476376D01*
X185025512Y-55506073D01*
X185000742Y-55511000D01*
X184823258Y-55511000D01*
X184798488Y-55506073D01*
X184649188Y-55476376D01*
X184485216Y-55408456D01*
X184337646Y-55309853D01*
X184212147Y-55184354D01*
X184113544Y-55036784D01*
X184045624Y-54872812D01*
X184011000Y-54698741D01*
X184011000Y-54521259D01*
X184045624Y-54347188D01*
X184113544Y-54183216D01*
X184212147Y-54035646D01*
X184337646Y-53910147D01*
X184485216Y-53811544D01*
X184649188Y-53743624D01*
X184798488Y-53713927D01*
X184823258Y-53709000D01*
X185000742Y-53709000D01*
X185025512Y-53713927D01*
G37*
G36*
X185025512Y-51173927D02*
G01*
X185174812Y-51203624D01*
X185338784Y-51271544D01*
X185486354Y-51370147D01*
X185611853Y-51495646D01*
X185710456Y-51643216D01*
X185778376Y-51807188D01*
X185813000Y-51981259D01*
X185813000Y-52158741D01*
X185778376Y-52332812D01*
X185710456Y-52496784D01*
X185611853Y-52644354D01*
X185486354Y-52769853D01*
X185338784Y-52868456D01*
X185174812Y-52936376D01*
X185025512Y-52966073D01*
X185000742Y-52971000D01*
X184823258Y-52971000D01*
X184798488Y-52966073D01*
X184649188Y-52936376D01*
X184485216Y-52868456D01*
X184337646Y-52769853D01*
X184212147Y-52644354D01*
X184113544Y-52496784D01*
X184045624Y-52332812D01*
X184011000Y-52158741D01*
X184011000Y-51981259D01*
X184045624Y-51807188D01*
X184113544Y-51643216D01*
X184212147Y-51495646D01*
X184337646Y-51370147D01*
X184485216Y-51271544D01*
X184649188Y-51203624D01*
X184798488Y-51173927D01*
X184823258Y-51169000D01*
X185000742Y-51169000D01*
X185025512Y-51173927D01*
G37*
G36*
X185025512Y-48633927D02*
G01*
X185174812Y-48663624D01*
X185338784Y-48731544D01*
X185486354Y-48830147D01*
X185611853Y-48955646D01*
X185710456Y-49103216D01*
X185778376Y-49267188D01*
X185813000Y-49441259D01*
X185813000Y-49618741D01*
X185778376Y-49792812D01*
X185710456Y-49956784D01*
X185611853Y-50104354D01*
X185486354Y-50229853D01*
X185338784Y-50328456D01*
X185174812Y-50396376D01*
X185025512Y-50426073D01*
X185000742Y-50431000D01*
X184823258Y-50431000D01*
X184798488Y-50426073D01*
X184649188Y-50396376D01*
X184485216Y-50328456D01*
X184337646Y-50229853D01*
X184212147Y-50104354D01*
X184113544Y-49956784D01*
X184045624Y-49792812D01*
X184011000Y-49618741D01*
X184011000Y-49441259D01*
X184045624Y-49267188D01*
X184113544Y-49103216D01*
X184212147Y-48955646D01*
X184337646Y-48830147D01*
X184485216Y-48731544D01*
X184649188Y-48663624D01*
X184798488Y-48633927D01*
X184823258Y-48629000D01*
X185000742Y-48629000D01*
X185025512Y-48633927D01*
G37*
G36*
X221931000Y-49719000D02*
G01*
X220029000Y-49719000D01*
X220029000Y-47817000D01*
X221931000Y-47817000D01*
X221931000Y-49719000D01*
G37*
G36*
X223797395Y-47853546D02*
G01*
X223970466Y-47925234D01*
X223970467Y-47925235D01*
X224126227Y-48029310D01*
X224258690Y-48161773D01*
X224258691Y-48161775D01*
X224362766Y-48317534D01*
X224434454Y-48490605D01*
X224471000Y-48674333D01*
X224471000Y-48861667D01*
X224434454Y-49045395D01*
X224362766Y-49218466D01*
X224362765Y-49218467D01*
X224258690Y-49374227D01*
X224126227Y-49506690D01*
X224047818Y-49559081D01*
X223970466Y-49610766D01*
X223797395Y-49682454D01*
X223613667Y-49719000D01*
X223426333Y-49719000D01*
X223242605Y-49682454D01*
X223069534Y-49610766D01*
X222992182Y-49559081D01*
X222913773Y-49506690D01*
X222781310Y-49374227D01*
X222677235Y-49218467D01*
X222677234Y-49218466D01*
X222605546Y-49045395D01*
X222569000Y-48861667D01*
X222569000Y-48674333D01*
X222605546Y-48490605D01*
X222677234Y-48317534D01*
X222781309Y-48161775D01*
X222781310Y-48161773D01*
X222913773Y-48029310D01*
X223069533Y-47925235D01*
X223069534Y-47925234D01*
X223242605Y-47853546D01*
X223426333Y-47817000D01*
X223613667Y-47817000D01*
X223797395Y-47853546D01*
G37*
G36*
X185813000Y-47891000D02*
G01*
X184011000Y-47891000D01*
X184011000Y-46089000D01*
X185813000Y-46089000D01*
X185813000Y-47891000D01*
G37*
G36*
X223797395Y-40487546D02*
G01*
X223970466Y-40559234D01*
X223970467Y-40559235D01*
X224126227Y-40663310D01*
X224258690Y-40795773D01*
X224258691Y-40795775D01*
X224362766Y-40951534D01*
X224434454Y-41124605D01*
X224471000Y-41308333D01*
X224471000Y-41495667D01*
X224434454Y-41679395D01*
X224362766Y-41852466D01*
X224362765Y-41852467D01*
X224258690Y-42008227D01*
X224126227Y-42140690D01*
X224047818Y-42193081D01*
X223970466Y-42244766D01*
X223797395Y-42316454D01*
X223613667Y-42353000D01*
X223426333Y-42353000D01*
X223242605Y-42316454D01*
X223069534Y-42244766D01*
X222992182Y-42193081D01*
X222913773Y-42140690D01*
X222781310Y-42008227D01*
X222677235Y-41852467D01*
X222677234Y-41852466D01*
X222605546Y-41679395D01*
X222569000Y-41495667D01*
X222569000Y-41308333D01*
X222605546Y-41124605D01*
X222677234Y-40951534D01*
X222781309Y-40795775D01*
X222781310Y-40795773D01*
X222913773Y-40663310D01*
X223069533Y-40559235D01*
X223069534Y-40559234D01*
X223242605Y-40487546D01*
X223426333Y-40451000D01*
X223613667Y-40451000D01*
X223797395Y-40487546D01*
G37*
G36*
X221931000Y-42353000D02*
G01*
X220029000Y-42353000D01*
X220029000Y-40451000D01*
X221931000Y-40451000D01*
X221931000Y-42353000D01*
G37*
G36*
X183501512Y-35679927D02*
G01*
X183650812Y-35709624D01*
X183814784Y-35777544D01*
X183962354Y-35876147D01*
X184087853Y-36001646D01*
X184186456Y-36149216D01*
X184254376Y-36313188D01*
X184289000Y-36487259D01*
X184289000Y-36664741D01*
X184254376Y-36838812D01*
X184186456Y-37002784D01*
X184087853Y-37150354D01*
X183962354Y-37275853D01*
X183814784Y-37374456D01*
X183650812Y-37442376D01*
X183501512Y-37472073D01*
X183476742Y-37477000D01*
X183299258Y-37477000D01*
X183274488Y-37472073D01*
X183125188Y-37442376D01*
X182961216Y-37374456D01*
X182813646Y-37275853D01*
X182688147Y-37150354D01*
X182589544Y-37002784D01*
X182521624Y-36838812D01*
X182487000Y-36664741D01*
X182487000Y-36487259D01*
X182521624Y-36313188D01*
X182589544Y-36149216D01*
X182688147Y-36001646D01*
X182813646Y-35876147D01*
X182961216Y-35777544D01*
X183125188Y-35709624D01*
X183274488Y-35679927D01*
X183299258Y-35675000D01*
X183476742Y-35675000D01*
X183501512Y-35679927D01*
G37*
G36*
X223797395Y-33121546D02*
G01*
X223970466Y-33193234D01*
X223970467Y-33193235D01*
X224126227Y-33297310D01*
X224258690Y-33429773D01*
X224258691Y-33429775D01*
X224362766Y-33585534D01*
X224434454Y-33758605D01*
X224471000Y-33942333D01*
X224471000Y-34129667D01*
X224434454Y-34313395D01*
X224362766Y-34486466D01*
X224362765Y-34486467D01*
X224258690Y-34642227D01*
X224126227Y-34774690D01*
X224047818Y-34827081D01*
X223970466Y-34878766D01*
X223797395Y-34950454D01*
X223613667Y-34987000D01*
X223426333Y-34987000D01*
X223242605Y-34950454D01*
X223069534Y-34878766D01*
X222992182Y-34827081D01*
X222913773Y-34774690D01*
X222781310Y-34642227D01*
X222677235Y-34486467D01*
X222677234Y-34486466D01*
X222605546Y-34313395D01*
X222569000Y-34129667D01*
X222569000Y-33942333D01*
X222605546Y-33758605D01*
X222677234Y-33585534D01*
X222781309Y-33429775D01*
X222781310Y-33429773D01*
X222913773Y-33297310D01*
X223069533Y-33193235D01*
X223069534Y-33193234D01*
X223242605Y-33121546D01*
X223426333Y-33085000D01*
X223613667Y-33085000D01*
X223797395Y-33121546D01*
G37*
G36*
X221931000Y-34987000D02*
G01*
X220029000Y-34987000D01*
X220029000Y-33085000D01*
X221931000Y-33085000D01*
X221931000Y-34987000D01*
G37*
G36*
X183501512Y-33139927D02*
G01*
X183650812Y-33169624D01*
X183814784Y-33237544D01*
X183962354Y-33336147D01*
X184087853Y-33461646D01*
X184186456Y-33609216D01*
X184254376Y-33773188D01*
X184289000Y-33947259D01*
X184289000Y-34124741D01*
X184254376Y-34298812D01*
X184186456Y-34462784D01*
X184087853Y-34610354D01*
X183962354Y-34735853D01*
X183814784Y-34834456D01*
X183650812Y-34902376D01*
X183501512Y-34932073D01*
X183476742Y-34937000D01*
X183299258Y-34937000D01*
X183274488Y-34932073D01*
X183125188Y-34902376D01*
X182961216Y-34834456D01*
X182813646Y-34735853D01*
X182688147Y-34610354D01*
X182589544Y-34462784D01*
X182521624Y-34298812D01*
X182487000Y-34124741D01*
X182487000Y-33947259D01*
X182521624Y-33773188D01*
X182589544Y-33609216D01*
X182688147Y-33461646D01*
X182813646Y-33336147D01*
X182961216Y-33237544D01*
X183125188Y-33169624D01*
X183274488Y-33139927D01*
X183299258Y-33135000D01*
X183476742Y-33135000D01*
X183501512Y-33139927D01*
G37*
G36*
X183501512Y-30599927D02*
G01*
X183650812Y-30629624D01*
X183814784Y-30697544D01*
X183962354Y-30796147D01*
X184087853Y-30921646D01*
X184186456Y-31069216D01*
X184254376Y-31233188D01*
X184289000Y-31407259D01*
X184289000Y-31584741D01*
X184254376Y-31758812D01*
X184186456Y-31922784D01*
X184087853Y-32070354D01*
X183962354Y-32195853D01*
X183814784Y-32294456D01*
X183650812Y-32362376D01*
X183501512Y-32392073D01*
X183476742Y-32397000D01*
X183299258Y-32397000D01*
X183274488Y-32392073D01*
X183125188Y-32362376D01*
X182961216Y-32294456D01*
X182813646Y-32195853D01*
X182688147Y-32070354D01*
X182589544Y-31922784D01*
X182521624Y-31758812D01*
X182487000Y-31584741D01*
X182487000Y-31407259D01*
X182521624Y-31233188D01*
X182589544Y-31069216D01*
X182688147Y-30921646D01*
X182813646Y-30796147D01*
X182961216Y-30697544D01*
X183125188Y-30629624D01*
X183274488Y-30599927D01*
X183299258Y-30595000D01*
X183476742Y-30595000D01*
X183501512Y-30599927D01*
G37*
G36*
X183501512Y-28059927D02*
G01*
X183650812Y-28089624D01*
X183814784Y-28157544D01*
X183962354Y-28256147D01*
X184087853Y-28381646D01*
X184186456Y-28529216D01*
X184254376Y-28693188D01*
X184289000Y-28867259D01*
X184289000Y-29044741D01*
X184254376Y-29218812D01*
X184186456Y-29382784D01*
X184087853Y-29530354D01*
X183962354Y-29655853D01*
X183814784Y-29754456D01*
X183650812Y-29822376D01*
X183501512Y-29852073D01*
X183476742Y-29857000D01*
X183299258Y-29857000D01*
X183274488Y-29852073D01*
X183125188Y-29822376D01*
X182961216Y-29754456D01*
X182813646Y-29655853D01*
X182688147Y-29530354D01*
X182589544Y-29382784D01*
X182521624Y-29218812D01*
X182487000Y-29044741D01*
X182487000Y-28867259D01*
X182521624Y-28693188D01*
X182589544Y-28529216D01*
X182688147Y-28381646D01*
X182813646Y-28256147D01*
X182961216Y-28157544D01*
X183125188Y-28089624D01*
X183274488Y-28059927D01*
X183299258Y-28055000D01*
X183476742Y-28055000D01*
X183501512Y-28059927D01*
G37*
G36*
X221931000Y-27621000D02*
G01*
X220029000Y-27621000D01*
X220029000Y-25719000D01*
X221931000Y-25719000D01*
X221931000Y-27621000D01*
G37*
G36*
X223797395Y-25755546D02*
G01*
X223970466Y-25827234D01*
X223970467Y-25827235D01*
X224126227Y-25931310D01*
X224258690Y-26063773D01*
X224258691Y-26063775D01*
X224362766Y-26219534D01*
X224434454Y-26392605D01*
X224471000Y-26576333D01*
X224471000Y-26763667D01*
X224434454Y-26947395D01*
X224362766Y-27120466D01*
X224362765Y-27120467D01*
X224258690Y-27276227D01*
X224126227Y-27408690D01*
X224047818Y-27461081D01*
X223970466Y-27512766D01*
X223797395Y-27584454D01*
X223613667Y-27621000D01*
X223426333Y-27621000D01*
X223242605Y-27584454D01*
X223069534Y-27512766D01*
X222992182Y-27461081D01*
X222913773Y-27408690D01*
X222781310Y-27276227D01*
X222677235Y-27120467D01*
X222677234Y-27120466D01*
X222605546Y-26947395D01*
X222569000Y-26763667D01*
X222569000Y-26576333D01*
X222605546Y-26392605D01*
X222677234Y-26219534D01*
X222781309Y-26063775D01*
X222781310Y-26063773D01*
X222913773Y-25931310D01*
X223069533Y-25827235D01*
X223069534Y-25827234D01*
X223242605Y-25755546D01*
X223426333Y-25719000D01*
X223613667Y-25719000D01*
X223797395Y-25755546D01*
G37*
G36*
X184289000Y-27317000D02*
G01*
X182487000Y-27317000D01*
X182487000Y-25515000D01*
X184289000Y-25515000D01*
X184289000Y-27317000D01*
G37*
G36*
X189851512Y-25011927D02*
G01*
X190000812Y-25041624D01*
X190164784Y-25109544D01*
X190312354Y-25208147D01*
X190437853Y-25333646D01*
X190536456Y-25481216D01*
X190604376Y-25645188D01*
X190639000Y-25819259D01*
X190639000Y-25996741D01*
X190604376Y-26170812D01*
X190536456Y-26334784D01*
X190437853Y-26482354D01*
X190312354Y-26607853D01*
X190164784Y-26706456D01*
X190000812Y-26774376D01*
X189851512Y-26804073D01*
X189826742Y-26809000D01*
X189649258Y-26809000D01*
X189624488Y-26804073D01*
X189475188Y-26774376D01*
X189311216Y-26706456D01*
X189163646Y-26607853D01*
X189038147Y-26482354D01*
X188939544Y-26334784D01*
X188871624Y-26170812D01*
X188837000Y-25996741D01*
X188837000Y-25819259D01*
X188871624Y-25645188D01*
X188939544Y-25481216D01*
X189038147Y-25333646D01*
X189163646Y-25208147D01*
X189311216Y-25109544D01*
X189475188Y-25041624D01*
X189624488Y-25011927D01*
X189649258Y-25007000D01*
X189826742Y-25007000D01*
X189851512Y-25011927D01*
G37*
G36*
X193179000Y-26809000D02*
G01*
X191377000Y-26809000D01*
X191377000Y-25007000D01*
X193179000Y-25007000D01*
X193179000Y-26809000D01*
G37*
M02*
