M48
; DRILL file {KiCad (5.1.5-0-10_14)} date Thursday, February 27, 2020 at 08:06:30 PM
; FORMAT={-:-/ absolute / inch / decimal}
; #@! TF.CreationDate,2020-02-27T20:06:30-05:00
; #@! TF.GenerationSoftware,Kicad,Pcbnew,(5.1.5-0-10_14)
FMAT,2
INCH
T1C0.0157
T2C0.0354
T3C0.0394
T4C0.0433
%
G90
G05
T1
X7.34Y-1.405
X7.355Y-1.71
X7.38Y-1.52
X7.4085Y-1.405
X7.415Y-1.705
X7.415Y-1.8
X7.465Y-1.705
X7.465Y-1.8
X7.5295Y-1.8005
X7.53Y-1.67
X7.53Y-1.72
X7.5785Y-2.0433
X7.585Y-1.15
X7.625Y-2.935
X7.63Y-1.81
X7.6335Y-2.0783
X7.66Y-1.15
X7.685Y-1.05
X7.69Y-2.12
X7.705Y-2.855
X7.71Y-1.15
X7.735Y-2.17
X7.7535Y-1.8683
X7.775Y-1.16
X7.8035Y-1.9033
X7.805Y-1.565
X7.81Y-1.52
X7.8106Y-1.3043
X7.87Y-1.515
X7.87Y-1.94
X7.895Y-2.355
X7.925Y-1.98
X7.935Y-1.52
X7.9535Y-2.405
X8.01Y-0.9344
X8.03Y-1.26
X8.03Y-2.22
X8.0485Y-2.3
X8.275Y-2.3225
X8.28Y-2.83
X8.2826Y-3.3374
X8.285Y-3.119
X8.29Y-1.1675
X8.29Y-2.535
X8.3Y-1.36
X8.35Y-1.73
X8.35Y-2.02
T2
X8.7Y-1.34
X8.8Y-1.34
X8.7Y-2.79
X8.8Y-2.79
X8.7Y-2.21
X8.8Y-2.21
X8.7Y-1.05
X8.8Y-1.05
X8.7Y-3.08
X8.8Y-3.08
X8.7Y-1.63
X8.8Y-1.63
X8.7Y-2.5
X8.8Y-2.5
X8.7Y-3.37
X8.8Y-3.37
X8.7Y-1.92
X8.8Y-1.92
T3
X7.47Y-1.02
X7.57Y-1.02
X7.28Y-1.85
X7.28Y-1.95
X7.28Y-2.05
X7.28Y-2.15
X7.28Y-2.25
X7.28Y-2.35
X7.28Y-2.45
X7.28Y-2.55
X7.28Y-2.65
X7.22Y-1.04
X7.22Y-1.14
X7.22Y-1.24
X7.22Y-1.34
X7.22Y-1.44
X7.3278Y-2.8354
X7.4278Y-2.8354
X7.5278Y-2.8354
T4
X7.7741Y-3.0228
X7.7741Y-3.2
X8.03Y-3.0228
X8.03Y-3.2
X7.3141Y-3.0228
X7.3141Y-3.2
X7.57Y-3.0228
X7.57Y-3.2
T0
M30
