G04 #@! TF.GenerationSoftware,KiCad,Pcbnew,(5.1.5-0-10_14)*
G04 #@! TF.CreationDate,2020-02-27T20:03:29-05:00*
G04 #@! TF.ProjectId,led_level_pcb,6c65645f-6c65-4766-956c-5f7063622e6b,rev?*
G04 #@! TF.SameCoordinates,Original*
G04 #@! TF.FileFunction,Soldermask,Top*
G04 #@! TF.FilePolarity,Negative*
%FSLAX46Y46*%
G04 Gerber Fmt 4.6, Leading zero omitted, Abs format (unit mm)*
G04 Created by KiCad (PCBNEW (5.1.5-0-10_14)) date 2020-02-27 20:03:29*
%MOMM*%
%LPD*%
G04 APERTURE LIST*
%ADD10C,0.100000*%
G04 APERTURE END LIST*
D10*
G36*
X223797395Y-84683546D02*
G01*
X223970466Y-84755234D01*
X223970467Y-84755235D01*
X224126227Y-84859310D01*
X224258690Y-84991773D01*
X224258691Y-84991775D01*
X224362766Y-85147534D01*
X224434454Y-85320605D01*
X224471000Y-85504333D01*
X224471000Y-85691667D01*
X224434454Y-85875395D01*
X224362766Y-86048466D01*
X224362765Y-86048467D01*
X224258690Y-86204227D01*
X224126227Y-86336690D01*
X224047818Y-86389081D01*
X223970466Y-86440766D01*
X223797395Y-86512454D01*
X223613667Y-86549000D01*
X223426333Y-86549000D01*
X223242605Y-86512454D01*
X223069534Y-86440766D01*
X222992182Y-86389081D01*
X222913773Y-86336690D01*
X222781310Y-86204227D01*
X222677235Y-86048467D01*
X222677234Y-86048466D01*
X222605546Y-85875395D01*
X222569000Y-85691667D01*
X222569000Y-85504333D01*
X222605546Y-85320605D01*
X222677234Y-85147534D01*
X222781309Y-84991775D01*
X222781310Y-84991773D01*
X222913773Y-84859310D01*
X223069533Y-84755235D01*
X223069534Y-84755234D01*
X223242605Y-84683546D01*
X223426333Y-84647000D01*
X223613667Y-84647000D01*
X223797395Y-84683546D01*
G37*
G36*
X221931000Y-86549000D02*
G01*
X220029000Y-86549000D01*
X220029000Y-84647000D01*
X221931000Y-84647000D01*
X221931000Y-86549000D01*
G37*
G36*
X212353000Y-85221000D02*
G01*
X211351000Y-85221000D01*
X211351000Y-84319000D01*
X212353000Y-84319000D01*
X212353000Y-85221000D01*
G37*
G36*
X217951499Y-83298445D02*
G01*
X217988995Y-83309820D01*
X218023554Y-83328292D01*
X218053847Y-83353153D01*
X218078708Y-83383446D01*
X218097180Y-83418005D01*
X218108555Y-83455501D01*
X218113000Y-83500638D01*
X218113000Y-84139362D01*
X218108555Y-84184499D01*
X218097180Y-84221995D01*
X218078708Y-84256554D01*
X218053847Y-84286847D01*
X218023554Y-84311708D01*
X217988995Y-84330180D01*
X217951499Y-84341555D01*
X217906362Y-84346000D01*
X217167638Y-84346000D01*
X217122501Y-84341555D01*
X217085005Y-84330180D01*
X217050446Y-84311708D01*
X217020153Y-84286847D01*
X216995292Y-84256554D01*
X216976820Y-84221995D01*
X216965445Y-84184499D01*
X216961000Y-84139362D01*
X216961000Y-83500638D01*
X216965445Y-83455501D01*
X216976820Y-83418005D01*
X216995292Y-83383446D01*
X217020153Y-83353153D01*
X217050446Y-83328292D01*
X217085005Y-83309820D01*
X217122501Y-83298445D01*
X217167638Y-83294000D01*
X217906362Y-83294000D01*
X217951499Y-83298445D01*
G37*
G36*
X216201499Y-83298445D02*
G01*
X216238995Y-83309820D01*
X216273554Y-83328292D01*
X216303847Y-83353153D01*
X216328708Y-83383446D01*
X216347180Y-83418005D01*
X216358555Y-83455501D01*
X216363000Y-83500638D01*
X216363000Y-84139362D01*
X216358555Y-84184499D01*
X216347180Y-84221995D01*
X216328708Y-84256554D01*
X216303847Y-84286847D01*
X216273554Y-84311708D01*
X216238995Y-84330180D01*
X216201499Y-84341555D01*
X216156362Y-84346000D01*
X215417638Y-84346000D01*
X215372501Y-84341555D01*
X215335005Y-84330180D01*
X215300446Y-84311708D01*
X215270153Y-84286847D01*
X215245292Y-84256554D01*
X215226820Y-84221995D01*
X215215445Y-84184499D01*
X215211000Y-84139362D01*
X215211000Y-83500638D01*
X215215445Y-83455501D01*
X215226820Y-83418005D01*
X215245292Y-83383446D01*
X215270153Y-83353153D01*
X215300446Y-83328292D01*
X215335005Y-83309820D01*
X215372501Y-83298445D01*
X215417638Y-83294000D01*
X216156362Y-83294000D01*
X216201499Y-83298445D01*
G37*
G36*
X214353000Y-84271000D02*
G01*
X213351000Y-84271000D01*
X213351000Y-83369000D01*
X214353000Y-83369000D01*
X214353000Y-84271000D01*
G37*
G36*
X212353000Y-83321000D02*
G01*
X211351000Y-83321000D01*
X211351000Y-82419000D01*
X212353000Y-82419000D01*
X212353000Y-83321000D01*
G37*
G36*
X204268564Y-80269389D02*
G01*
X204459833Y-80348615D01*
X204459835Y-80348616D01*
X204631973Y-80463635D01*
X204778365Y-80610027D01*
X204893385Y-80782167D01*
X204972611Y-80973436D01*
X205013000Y-81176484D01*
X205013000Y-81383516D01*
X204972611Y-81586564D01*
X204893385Y-81777833D01*
X204893384Y-81777835D01*
X204778365Y-81949973D01*
X204631973Y-82096365D01*
X204459835Y-82211384D01*
X204459834Y-82211385D01*
X204459833Y-82211385D01*
X204268564Y-82290611D01*
X204065516Y-82331000D01*
X203858484Y-82331000D01*
X203655436Y-82290611D01*
X203464167Y-82211385D01*
X203464166Y-82211385D01*
X203464165Y-82211384D01*
X203292027Y-82096365D01*
X203145635Y-81949973D01*
X203030616Y-81777835D01*
X203030615Y-81777833D01*
X202951389Y-81586564D01*
X202911000Y-81383516D01*
X202911000Y-81176484D01*
X202951389Y-80973436D01*
X203030615Y-80782167D01*
X203145635Y-80610027D01*
X203292027Y-80463635D01*
X203464165Y-80348616D01*
X203464167Y-80348615D01*
X203655436Y-80269389D01*
X203858484Y-80229000D01*
X204065516Y-80229000D01*
X204268564Y-80269389D01*
G37*
G36*
X197768564Y-80269389D02*
G01*
X197959833Y-80348615D01*
X197959835Y-80348616D01*
X198131973Y-80463635D01*
X198278365Y-80610027D01*
X198393385Y-80782167D01*
X198472611Y-80973436D01*
X198513000Y-81176484D01*
X198513000Y-81383516D01*
X198472611Y-81586564D01*
X198393385Y-81777833D01*
X198393384Y-81777835D01*
X198278365Y-81949973D01*
X198131973Y-82096365D01*
X197959835Y-82211384D01*
X197959834Y-82211385D01*
X197959833Y-82211385D01*
X197768564Y-82290611D01*
X197565516Y-82331000D01*
X197358484Y-82331000D01*
X197155436Y-82290611D01*
X196964167Y-82211385D01*
X196964166Y-82211385D01*
X196964165Y-82211384D01*
X196792027Y-82096365D01*
X196645635Y-81949973D01*
X196530616Y-81777835D01*
X196530615Y-81777833D01*
X196451389Y-81586564D01*
X196411000Y-81383516D01*
X196411000Y-81176484D01*
X196451389Y-80973436D01*
X196530615Y-80782167D01*
X196645635Y-80610027D01*
X196792027Y-80463635D01*
X196964165Y-80348616D01*
X196964167Y-80348615D01*
X197155436Y-80269389D01*
X197358484Y-80229000D01*
X197565516Y-80229000D01*
X197768564Y-80269389D01*
G37*
G36*
X192584564Y-80269389D02*
G01*
X192775833Y-80348615D01*
X192775835Y-80348616D01*
X192947973Y-80463635D01*
X193094365Y-80610027D01*
X193209385Y-80782167D01*
X193288611Y-80973436D01*
X193329000Y-81176484D01*
X193329000Y-81383516D01*
X193288611Y-81586564D01*
X193209385Y-81777833D01*
X193209384Y-81777835D01*
X193094365Y-81949973D01*
X192947973Y-82096365D01*
X192775835Y-82211384D01*
X192775834Y-82211385D01*
X192775833Y-82211385D01*
X192584564Y-82290611D01*
X192381516Y-82331000D01*
X192174484Y-82331000D01*
X191971436Y-82290611D01*
X191780167Y-82211385D01*
X191780166Y-82211385D01*
X191780165Y-82211384D01*
X191608027Y-82096365D01*
X191461635Y-81949973D01*
X191346616Y-81777835D01*
X191346615Y-81777833D01*
X191267389Y-81586564D01*
X191227000Y-81383516D01*
X191227000Y-81176484D01*
X191267389Y-80973436D01*
X191346615Y-80782167D01*
X191461635Y-80610027D01*
X191608027Y-80463635D01*
X191780165Y-80348616D01*
X191780167Y-80348615D01*
X191971436Y-80269389D01*
X192174484Y-80229000D01*
X192381516Y-80229000D01*
X192584564Y-80269389D01*
G37*
G36*
X186084564Y-80269389D02*
G01*
X186275833Y-80348615D01*
X186275835Y-80348616D01*
X186447973Y-80463635D01*
X186594365Y-80610027D01*
X186709385Y-80782167D01*
X186788611Y-80973436D01*
X186829000Y-81176484D01*
X186829000Y-81383516D01*
X186788611Y-81586564D01*
X186709385Y-81777833D01*
X186709384Y-81777835D01*
X186594365Y-81949973D01*
X186447973Y-82096365D01*
X186275835Y-82211384D01*
X186275834Y-82211385D01*
X186275833Y-82211385D01*
X186084564Y-82290611D01*
X185881516Y-82331000D01*
X185674484Y-82331000D01*
X185471436Y-82290611D01*
X185280167Y-82211385D01*
X185280166Y-82211385D01*
X185280165Y-82211384D01*
X185108027Y-82096365D01*
X184961635Y-81949973D01*
X184846616Y-81777835D01*
X184846615Y-81777833D01*
X184767389Y-81586564D01*
X184727000Y-81383516D01*
X184727000Y-81176484D01*
X184767389Y-80973436D01*
X184846615Y-80782167D01*
X184961635Y-80610027D01*
X185108027Y-80463635D01*
X185280165Y-80348616D01*
X185280167Y-80348615D01*
X185471436Y-80269389D01*
X185674484Y-80229000D01*
X185881516Y-80229000D01*
X186084564Y-80269389D01*
G37*
G36*
X212861000Y-79633000D02*
G01*
X211859000Y-79633000D01*
X211859000Y-78731000D01*
X212861000Y-78731000D01*
X212861000Y-79633000D01*
G37*
G36*
X221931000Y-79183000D02*
G01*
X220029000Y-79183000D01*
X220029000Y-77281000D01*
X221931000Y-77281000D01*
X221931000Y-79183000D01*
G37*
G36*
X223797395Y-77317546D02*
G01*
X223970466Y-77389234D01*
X223970467Y-77389235D01*
X224126227Y-77493310D01*
X224258690Y-77625773D01*
X224258691Y-77625775D01*
X224362766Y-77781534D01*
X224434454Y-77954605D01*
X224471000Y-78138333D01*
X224471000Y-78325667D01*
X224434454Y-78509395D01*
X224362766Y-78682466D01*
X224325673Y-78737980D01*
X224258690Y-78838227D01*
X224126227Y-78970690D01*
X224047818Y-79023081D01*
X223970466Y-79074766D01*
X223797395Y-79146454D01*
X223613667Y-79183000D01*
X223426333Y-79183000D01*
X223242605Y-79146454D01*
X223069534Y-79074766D01*
X222992182Y-79023081D01*
X222913773Y-78970690D01*
X222781310Y-78838227D01*
X222714327Y-78737980D01*
X222677234Y-78682466D01*
X222605546Y-78509395D01*
X222569000Y-78325667D01*
X222569000Y-78138333D01*
X222605546Y-77954605D01*
X222677234Y-77781534D01*
X222781309Y-77625775D01*
X222781310Y-77625773D01*
X222913773Y-77493310D01*
X223069533Y-77389235D01*
X223069534Y-77389234D01*
X223242605Y-77317546D01*
X223426333Y-77281000D01*
X223613667Y-77281000D01*
X223797395Y-77317546D01*
G37*
G36*
X218205499Y-77710445D02*
G01*
X218242995Y-77721820D01*
X218277554Y-77740292D01*
X218307847Y-77765153D01*
X218332708Y-77795446D01*
X218351180Y-77830005D01*
X218362555Y-77867501D01*
X218367000Y-77912638D01*
X218367000Y-78551362D01*
X218362555Y-78596499D01*
X218351180Y-78633995D01*
X218332708Y-78668554D01*
X218307847Y-78698847D01*
X218277554Y-78723708D01*
X218242995Y-78742180D01*
X218205499Y-78753555D01*
X218160362Y-78758000D01*
X217421638Y-78758000D01*
X217376501Y-78753555D01*
X217339005Y-78742180D01*
X217304446Y-78723708D01*
X217274153Y-78698847D01*
X217249292Y-78668554D01*
X217230820Y-78633995D01*
X217219445Y-78596499D01*
X217215000Y-78551362D01*
X217215000Y-77912638D01*
X217219445Y-77867501D01*
X217230820Y-77830005D01*
X217249292Y-77795446D01*
X217274153Y-77765153D01*
X217304446Y-77740292D01*
X217339005Y-77721820D01*
X217376501Y-77710445D01*
X217421638Y-77706000D01*
X218160362Y-77706000D01*
X218205499Y-77710445D01*
G37*
G36*
X216455499Y-77710445D02*
G01*
X216492995Y-77721820D01*
X216527554Y-77740292D01*
X216557847Y-77765153D01*
X216582708Y-77795446D01*
X216601180Y-77830005D01*
X216612555Y-77867501D01*
X216617000Y-77912638D01*
X216617000Y-78551362D01*
X216612555Y-78596499D01*
X216601180Y-78633995D01*
X216582708Y-78668554D01*
X216557847Y-78698847D01*
X216527554Y-78723708D01*
X216492995Y-78742180D01*
X216455499Y-78753555D01*
X216410362Y-78758000D01*
X215671638Y-78758000D01*
X215626501Y-78753555D01*
X215589005Y-78742180D01*
X215554446Y-78723708D01*
X215524153Y-78698847D01*
X215499292Y-78668554D01*
X215480820Y-78633995D01*
X215469445Y-78596499D01*
X215465000Y-78551362D01*
X215465000Y-77912638D01*
X215469445Y-77867501D01*
X215480820Y-77830005D01*
X215499292Y-77795446D01*
X215524153Y-77765153D01*
X215554446Y-77740292D01*
X215589005Y-77721820D01*
X215626501Y-77710445D01*
X215671638Y-77706000D01*
X216410362Y-77706000D01*
X216455499Y-77710445D01*
G37*
G36*
X214861000Y-78683000D02*
G01*
X213859000Y-78683000D01*
X213859000Y-77781000D01*
X214861000Y-77781000D01*
X214861000Y-78683000D01*
G37*
G36*
X186084564Y-75769389D02*
G01*
X186275833Y-75848615D01*
X186275835Y-75848616D01*
X186447973Y-75963635D01*
X186594365Y-76110027D01*
X186709385Y-76282167D01*
X186788611Y-76473436D01*
X186829000Y-76676484D01*
X186829000Y-76883516D01*
X186788611Y-77086564D01*
X186709385Y-77277833D01*
X186709384Y-77277835D01*
X186594365Y-77449973D01*
X186447973Y-77596365D01*
X186275835Y-77711384D01*
X186275834Y-77711385D01*
X186275833Y-77711385D01*
X186084564Y-77790611D01*
X185881516Y-77831000D01*
X185674484Y-77831000D01*
X185471436Y-77790611D01*
X185280167Y-77711385D01*
X185280166Y-77711385D01*
X185280165Y-77711384D01*
X185108027Y-77596365D01*
X184961635Y-77449973D01*
X184846616Y-77277835D01*
X184846615Y-77277833D01*
X184767389Y-77086564D01*
X184727000Y-76883516D01*
X184727000Y-76676484D01*
X184767389Y-76473436D01*
X184846615Y-76282167D01*
X184961635Y-76110027D01*
X185108027Y-75963635D01*
X185280165Y-75848616D01*
X185280167Y-75848615D01*
X185471436Y-75769389D01*
X185674484Y-75729000D01*
X185881516Y-75729000D01*
X186084564Y-75769389D01*
G37*
G36*
X192584564Y-75769389D02*
G01*
X192775833Y-75848615D01*
X192775835Y-75848616D01*
X192947973Y-75963635D01*
X193094365Y-76110027D01*
X193209385Y-76282167D01*
X193288611Y-76473436D01*
X193329000Y-76676484D01*
X193329000Y-76883516D01*
X193288611Y-77086564D01*
X193209385Y-77277833D01*
X193209384Y-77277835D01*
X193094365Y-77449973D01*
X192947973Y-77596365D01*
X192775835Y-77711384D01*
X192775834Y-77711385D01*
X192775833Y-77711385D01*
X192584564Y-77790611D01*
X192381516Y-77831000D01*
X192174484Y-77831000D01*
X191971436Y-77790611D01*
X191780167Y-77711385D01*
X191780166Y-77711385D01*
X191780165Y-77711384D01*
X191608027Y-77596365D01*
X191461635Y-77449973D01*
X191346616Y-77277835D01*
X191346615Y-77277833D01*
X191267389Y-77086564D01*
X191227000Y-76883516D01*
X191227000Y-76676484D01*
X191267389Y-76473436D01*
X191346615Y-76282167D01*
X191461635Y-76110027D01*
X191608027Y-75963635D01*
X191780165Y-75848616D01*
X191780167Y-75848615D01*
X191971436Y-75769389D01*
X192174484Y-75729000D01*
X192381516Y-75729000D01*
X192584564Y-75769389D01*
G37*
G36*
X197768564Y-75769389D02*
G01*
X197959833Y-75848615D01*
X197959835Y-75848616D01*
X198131973Y-75963635D01*
X198278365Y-76110027D01*
X198393385Y-76282167D01*
X198472611Y-76473436D01*
X198513000Y-76676484D01*
X198513000Y-76883516D01*
X198472611Y-77086564D01*
X198393385Y-77277833D01*
X198393384Y-77277835D01*
X198278365Y-77449973D01*
X198131973Y-77596365D01*
X197959835Y-77711384D01*
X197959834Y-77711385D01*
X197959833Y-77711385D01*
X197768564Y-77790611D01*
X197565516Y-77831000D01*
X197358484Y-77831000D01*
X197155436Y-77790611D01*
X196964167Y-77711385D01*
X196964166Y-77711385D01*
X196964165Y-77711384D01*
X196792027Y-77596365D01*
X196645635Y-77449973D01*
X196530616Y-77277835D01*
X196530615Y-77277833D01*
X196451389Y-77086564D01*
X196411000Y-76883516D01*
X196411000Y-76676484D01*
X196451389Y-76473436D01*
X196530615Y-76282167D01*
X196645635Y-76110027D01*
X196792027Y-75963635D01*
X196964165Y-75848616D01*
X196964167Y-75848615D01*
X197155436Y-75769389D01*
X197358484Y-75729000D01*
X197565516Y-75729000D01*
X197768564Y-75769389D01*
G37*
G36*
X204268564Y-75769389D02*
G01*
X204459833Y-75848615D01*
X204459835Y-75848616D01*
X204631973Y-75963635D01*
X204778365Y-76110027D01*
X204893385Y-76282167D01*
X204972611Y-76473436D01*
X205013000Y-76676484D01*
X205013000Y-76883516D01*
X204972611Y-77086564D01*
X204893385Y-77277833D01*
X204893384Y-77277835D01*
X204778365Y-77449973D01*
X204631973Y-77596365D01*
X204459835Y-77711384D01*
X204459834Y-77711385D01*
X204459833Y-77711385D01*
X204268564Y-77790611D01*
X204065516Y-77831000D01*
X203858484Y-77831000D01*
X203655436Y-77790611D01*
X203464167Y-77711385D01*
X203464166Y-77711385D01*
X203464165Y-77711384D01*
X203292027Y-77596365D01*
X203145635Y-77449973D01*
X203030616Y-77277835D01*
X203030615Y-77277833D01*
X202951389Y-77086564D01*
X202911000Y-76883516D01*
X202911000Y-76676484D01*
X202951389Y-76473436D01*
X203030615Y-76282167D01*
X203145635Y-76110027D01*
X203292027Y-75963635D01*
X203464165Y-75848616D01*
X203464167Y-75848615D01*
X203655436Y-75769389D01*
X203858484Y-75729000D01*
X204065516Y-75729000D01*
X204268564Y-75769389D01*
G37*
G36*
X212861000Y-77733000D02*
G01*
X211859000Y-77733000D01*
X211859000Y-76831000D01*
X212861000Y-76831000D01*
X212861000Y-77733000D01*
G37*
G36*
X192105998Y-72920042D02*
G01*
X190303998Y-72920042D01*
X190303998Y-71118042D01*
X192105998Y-71118042D01*
X192105998Y-72920042D01*
G37*
G36*
X186238510Y-71122969D02*
G01*
X186387810Y-71152666D01*
X186551782Y-71220586D01*
X186699352Y-71319189D01*
X186824851Y-71444688D01*
X186923454Y-71592258D01*
X186991374Y-71756230D01*
X187025998Y-71930301D01*
X187025998Y-72107783D01*
X186991374Y-72281854D01*
X186923454Y-72445826D01*
X186824851Y-72593396D01*
X186699352Y-72718895D01*
X186551782Y-72817498D01*
X186387810Y-72885418D01*
X186238510Y-72915115D01*
X186213740Y-72920042D01*
X186036256Y-72920042D01*
X186011486Y-72915115D01*
X185862186Y-72885418D01*
X185698214Y-72817498D01*
X185550644Y-72718895D01*
X185425145Y-72593396D01*
X185326542Y-72445826D01*
X185258622Y-72281854D01*
X185223998Y-72107783D01*
X185223998Y-71930301D01*
X185258622Y-71756230D01*
X185326542Y-71592258D01*
X185425145Y-71444688D01*
X185550644Y-71319189D01*
X185698214Y-71220586D01*
X185862186Y-71152666D01*
X186011486Y-71122969D01*
X186036256Y-71118042D01*
X186213740Y-71118042D01*
X186238510Y-71122969D01*
G37*
G36*
X188778510Y-71122969D02*
G01*
X188927810Y-71152666D01*
X189091782Y-71220586D01*
X189239352Y-71319189D01*
X189364851Y-71444688D01*
X189463454Y-71592258D01*
X189531374Y-71756230D01*
X189565998Y-71930301D01*
X189565998Y-72107783D01*
X189531374Y-72281854D01*
X189463454Y-72445826D01*
X189364851Y-72593396D01*
X189239352Y-72718895D01*
X189091782Y-72817498D01*
X188927810Y-72885418D01*
X188778510Y-72915115D01*
X188753740Y-72920042D01*
X188576256Y-72920042D01*
X188551486Y-72915115D01*
X188402186Y-72885418D01*
X188238214Y-72817498D01*
X188090644Y-72718895D01*
X187965145Y-72593396D01*
X187866542Y-72445826D01*
X187798622Y-72281854D01*
X187763998Y-72107783D01*
X187763998Y-71930301D01*
X187798622Y-71756230D01*
X187866542Y-71592258D01*
X187965145Y-71444688D01*
X188090644Y-71319189D01*
X188238214Y-71220586D01*
X188402186Y-71152666D01*
X188551486Y-71122969D01*
X188576256Y-71118042D01*
X188753740Y-71118042D01*
X188778510Y-71122969D01*
G37*
G36*
X212607000Y-72267000D02*
G01*
X211605000Y-72267000D01*
X211605000Y-71365000D01*
X212607000Y-71365000D01*
X212607000Y-72267000D01*
G37*
G36*
X223797395Y-69951546D02*
G01*
X223970466Y-70023234D01*
X223970467Y-70023235D01*
X224126227Y-70127310D01*
X224258690Y-70259773D01*
X224258691Y-70259775D01*
X224362766Y-70415534D01*
X224434454Y-70588605D01*
X224471000Y-70772333D01*
X224471000Y-70959667D01*
X224434454Y-71143395D01*
X224362766Y-71316466D01*
X224325673Y-71371980D01*
X224258690Y-71472227D01*
X224126227Y-71604690D01*
X224047818Y-71657081D01*
X223970466Y-71708766D01*
X223797395Y-71780454D01*
X223613667Y-71817000D01*
X223426333Y-71817000D01*
X223242605Y-71780454D01*
X223069534Y-71708766D01*
X222992182Y-71657081D01*
X222913773Y-71604690D01*
X222781310Y-71472227D01*
X222714327Y-71371980D01*
X222677234Y-71316466D01*
X222605546Y-71143395D01*
X222569000Y-70959667D01*
X222569000Y-70772333D01*
X222605546Y-70588605D01*
X222677234Y-70415534D01*
X222781309Y-70259775D01*
X222781310Y-70259773D01*
X222913773Y-70127310D01*
X223069533Y-70023235D01*
X223069534Y-70023234D01*
X223242605Y-69951546D01*
X223426333Y-69915000D01*
X223613667Y-69915000D01*
X223797395Y-69951546D01*
G37*
G36*
X221931000Y-71817000D02*
G01*
X220029000Y-71817000D01*
X220029000Y-69915000D01*
X221931000Y-69915000D01*
X221931000Y-71817000D01*
G37*
G36*
X218205499Y-70344445D02*
G01*
X218242995Y-70355820D01*
X218277554Y-70374292D01*
X218307847Y-70399153D01*
X218332708Y-70429446D01*
X218351180Y-70464005D01*
X218362555Y-70501501D01*
X218367000Y-70546638D01*
X218367000Y-71185362D01*
X218362555Y-71230499D01*
X218351180Y-71267995D01*
X218332708Y-71302554D01*
X218307847Y-71332847D01*
X218277554Y-71357708D01*
X218242995Y-71376180D01*
X218205499Y-71387555D01*
X218160362Y-71392000D01*
X217421638Y-71392000D01*
X217376501Y-71387555D01*
X217339005Y-71376180D01*
X217304446Y-71357708D01*
X217274153Y-71332847D01*
X217249292Y-71302554D01*
X217230820Y-71267995D01*
X217219445Y-71230499D01*
X217215000Y-71185362D01*
X217215000Y-70546638D01*
X217219445Y-70501501D01*
X217230820Y-70464005D01*
X217249292Y-70429446D01*
X217274153Y-70399153D01*
X217304446Y-70374292D01*
X217339005Y-70355820D01*
X217376501Y-70344445D01*
X217421638Y-70340000D01*
X218160362Y-70340000D01*
X218205499Y-70344445D01*
G37*
G36*
X216455499Y-70344445D02*
G01*
X216492995Y-70355820D01*
X216527554Y-70374292D01*
X216557847Y-70399153D01*
X216582708Y-70429446D01*
X216601180Y-70464005D01*
X216612555Y-70501501D01*
X216617000Y-70546638D01*
X216617000Y-71185362D01*
X216612555Y-71230499D01*
X216601180Y-71267995D01*
X216582708Y-71302554D01*
X216557847Y-71332847D01*
X216527554Y-71357708D01*
X216492995Y-71376180D01*
X216455499Y-71387555D01*
X216410362Y-71392000D01*
X215671638Y-71392000D01*
X215626501Y-71387555D01*
X215589005Y-71376180D01*
X215554446Y-71357708D01*
X215524153Y-71332847D01*
X215499292Y-71302554D01*
X215480820Y-71267995D01*
X215469445Y-71230499D01*
X215465000Y-71185362D01*
X215465000Y-70546638D01*
X215469445Y-70501501D01*
X215480820Y-70464005D01*
X215499292Y-70429446D01*
X215524153Y-70399153D01*
X215554446Y-70374292D01*
X215589005Y-70355820D01*
X215626501Y-70344445D01*
X215671638Y-70340000D01*
X216410362Y-70340000D01*
X216455499Y-70344445D01*
G37*
G36*
X214607000Y-71317000D02*
G01*
X213605000Y-71317000D01*
X213605000Y-70415000D01*
X214607000Y-70415000D01*
X214607000Y-71317000D01*
G37*
G36*
X212607000Y-70367000D02*
G01*
X211605000Y-70367000D01*
X211605000Y-69465000D01*
X212607000Y-69465000D01*
X212607000Y-70367000D01*
G37*
G36*
X185025512Y-66413927D02*
G01*
X185174812Y-66443624D01*
X185338784Y-66511544D01*
X185486354Y-66610147D01*
X185611853Y-66735646D01*
X185710456Y-66883216D01*
X185778376Y-67047188D01*
X185813000Y-67221259D01*
X185813000Y-67398741D01*
X185778376Y-67572812D01*
X185710456Y-67736784D01*
X185611853Y-67884354D01*
X185486354Y-68009853D01*
X185338784Y-68108456D01*
X185174812Y-68176376D01*
X185025512Y-68206073D01*
X185000742Y-68211000D01*
X184823258Y-68211000D01*
X184798488Y-68206073D01*
X184649188Y-68176376D01*
X184485216Y-68108456D01*
X184337646Y-68009853D01*
X184212147Y-67884354D01*
X184113544Y-67736784D01*
X184045624Y-67572812D01*
X184011000Y-67398741D01*
X184011000Y-67221259D01*
X184045624Y-67047188D01*
X184113544Y-66883216D01*
X184212147Y-66735646D01*
X184337646Y-66610147D01*
X184485216Y-66511544D01*
X184649188Y-66443624D01*
X184798488Y-66413927D01*
X184823258Y-66409000D01*
X185000742Y-66409000D01*
X185025512Y-66413927D01*
G37*
G36*
X185025512Y-63873927D02*
G01*
X185174812Y-63903624D01*
X185338784Y-63971544D01*
X185486354Y-64070147D01*
X185611853Y-64195646D01*
X185710456Y-64343216D01*
X185778376Y-64507188D01*
X185813000Y-64681259D01*
X185813000Y-64858741D01*
X185778376Y-65032812D01*
X185710456Y-65196784D01*
X185611853Y-65344354D01*
X185486354Y-65469853D01*
X185338784Y-65568456D01*
X185174812Y-65636376D01*
X185025512Y-65666073D01*
X185000742Y-65671000D01*
X184823258Y-65671000D01*
X184798488Y-65666073D01*
X184649188Y-65636376D01*
X184485216Y-65568456D01*
X184337646Y-65469853D01*
X184212147Y-65344354D01*
X184113544Y-65196784D01*
X184045624Y-65032812D01*
X184011000Y-64858741D01*
X184011000Y-64681259D01*
X184045624Y-64507188D01*
X184113544Y-64343216D01*
X184212147Y-64195646D01*
X184337646Y-64070147D01*
X184485216Y-63971544D01*
X184649188Y-63903624D01*
X184798488Y-63873927D01*
X184823258Y-63869000D01*
X185000742Y-63869000D01*
X185025512Y-63873927D01*
G37*
G36*
X212607000Y-64901000D02*
G01*
X211605000Y-64901000D01*
X211605000Y-63999000D01*
X212607000Y-63999000D01*
X212607000Y-64901000D01*
G37*
G36*
X223797395Y-62585546D02*
G01*
X223970466Y-62657234D01*
X223970467Y-62657235D01*
X224126227Y-62761310D01*
X224258690Y-62893773D01*
X224258691Y-62893775D01*
X224362766Y-63049534D01*
X224434454Y-63222605D01*
X224471000Y-63406333D01*
X224471000Y-63593667D01*
X224434454Y-63777395D01*
X224362766Y-63950466D01*
X224325673Y-64005980D01*
X224258690Y-64106227D01*
X224126227Y-64238690D01*
X224047818Y-64291081D01*
X223970466Y-64342766D01*
X223797395Y-64414454D01*
X223613667Y-64451000D01*
X223426333Y-64451000D01*
X223242605Y-64414454D01*
X223069534Y-64342766D01*
X222992182Y-64291081D01*
X222913773Y-64238690D01*
X222781310Y-64106227D01*
X222714327Y-64005980D01*
X222677234Y-63950466D01*
X222605546Y-63777395D01*
X222569000Y-63593667D01*
X222569000Y-63406333D01*
X222605546Y-63222605D01*
X222677234Y-63049534D01*
X222781309Y-62893775D01*
X222781310Y-62893773D01*
X222913773Y-62761310D01*
X223069533Y-62657235D01*
X223069534Y-62657234D01*
X223242605Y-62585546D01*
X223426333Y-62549000D01*
X223613667Y-62549000D01*
X223797395Y-62585546D01*
G37*
G36*
X221931000Y-64451000D02*
G01*
X220029000Y-64451000D01*
X220029000Y-62549000D01*
X221931000Y-62549000D01*
X221931000Y-64451000D01*
G37*
G36*
X218459499Y-62978445D02*
G01*
X218496995Y-62989820D01*
X218531554Y-63008292D01*
X218561847Y-63033153D01*
X218586708Y-63063446D01*
X218605180Y-63098005D01*
X218616555Y-63135501D01*
X218621000Y-63180638D01*
X218621000Y-63819362D01*
X218616555Y-63864499D01*
X218605180Y-63901995D01*
X218586708Y-63936554D01*
X218561847Y-63966847D01*
X218531554Y-63991708D01*
X218496995Y-64010180D01*
X218459499Y-64021555D01*
X218414362Y-64026000D01*
X217675638Y-64026000D01*
X217630501Y-64021555D01*
X217593005Y-64010180D01*
X217558446Y-63991708D01*
X217528153Y-63966847D01*
X217503292Y-63936554D01*
X217484820Y-63901995D01*
X217473445Y-63864499D01*
X217469000Y-63819362D01*
X217469000Y-63180638D01*
X217473445Y-63135501D01*
X217484820Y-63098005D01*
X217503292Y-63063446D01*
X217528153Y-63033153D01*
X217558446Y-63008292D01*
X217593005Y-62989820D01*
X217630501Y-62978445D01*
X217675638Y-62974000D01*
X218414362Y-62974000D01*
X218459499Y-62978445D01*
G37*
G36*
X216709499Y-62978445D02*
G01*
X216746995Y-62989820D01*
X216781554Y-63008292D01*
X216811847Y-63033153D01*
X216836708Y-63063446D01*
X216855180Y-63098005D01*
X216866555Y-63135501D01*
X216871000Y-63180638D01*
X216871000Y-63819362D01*
X216866555Y-63864499D01*
X216855180Y-63901995D01*
X216836708Y-63936554D01*
X216811847Y-63966847D01*
X216781554Y-63991708D01*
X216746995Y-64010180D01*
X216709499Y-64021555D01*
X216664362Y-64026000D01*
X215925638Y-64026000D01*
X215880501Y-64021555D01*
X215843005Y-64010180D01*
X215808446Y-63991708D01*
X215778153Y-63966847D01*
X215753292Y-63936554D01*
X215734820Y-63901995D01*
X215723445Y-63864499D01*
X215719000Y-63819362D01*
X215719000Y-63180638D01*
X215723445Y-63135501D01*
X215734820Y-63098005D01*
X215753292Y-63063446D01*
X215778153Y-63033153D01*
X215808446Y-63008292D01*
X215843005Y-62989820D01*
X215880501Y-62978445D01*
X215925638Y-62974000D01*
X216664362Y-62974000D01*
X216709499Y-62978445D01*
G37*
G36*
X214607000Y-63951000D02*
G01*
X213605000Y-63951000D01*
X213605000Y-63049000D01*
X214607000Y-63049000D01*
X214607000Y-63951000D01*
G37*
G36*
X185025512Y-61333927D02*
G01*
X185174812Y-61363624D01*
X185338784Y-61431544D01*
X185486354Y-61530147D01*
X185611853Y-61655646D01*
X185710456Y-61803216D01*
X185778376Y-61967188D01*
X185813000Y-62141259D01*
X185813000Y-62318741D01*
X185778376Y-62492812D01*
X185710456Y-62656784D01*
X185611853Y-62804354D01*
X185486354Y-62929853D01*
X185338784Y-63028456D01*
X185174812Y-63096376D01*
X185025512Y-63126073D01*
X185000742Y-63131000D01*
X184823258Y-63131000D01*
X184798488Y-63126073D01*
X184649188Y-63096376D01*
X184485216Y-63028456D01*
X184337646Y-62929853D01*
X184212147Y-62804354D01*
X184113544Y-62656784D01*
X184045624Y-62492812D01*
X184011000Y-62318741D01*
X184011000Y-62141259D01*
X184045624Y-61967188D01*
X184113544Y-61803216D01*
X184212147Y-61655646D01*
X184337646Y-61530147D01*
X184485216Y-61431544D01*
X184649188Y-61363624D01*
X184798488Y-61333927D01*
X184823258Y-61329000D01*
X185000742Y-61329000D01*
X185025512Y-61333927D01*
G37*
G36*
X212607000Y-63001000D02*
G01*
X211605000Y-63001000D01*
X211605000Y-62099000D01*
X212607000Y-62099000D01*
X212607000Y-63001000D01*
G37*
G36*
X185025512Y-58793927D02*
G01*
X185174812Y-58823624D01*
X185338784Y-58891544D01*
X185486354Y-58990147D01*
X185611853Y-59115646D01*
X185710456Y-59263216D01*
X185778376Y-59427188D01*
X185813000Y-59601259D01*
X185813000Y-59778741D01*
X185778376Y-59952812D01*
X185710456Y-60116784D01*
X185611853Y-60264354D01*
X185486354Y-60389853D01*
X185338784Y-60488456D01*
X185174812Y-60556376D01*
X185025512Y-60586073D01*
X185000742Y-60591000D01*
X184823258Y-60591000D01*
X184798488Y-60586073D01*
X184649188Y-60556376D01*
X184485216Y-60488456D01*
X184337646Y-60389853D01*
X184212147Y-60264354D01*
X184113544Y-60116784D01*
X184045624Y-59952812D01*
X184011000Y-59778741D01*
X184011000Y-59601259D01*
X184045624Y-59427188D01*
X184113544Y-59263216D01*
X184212147Y-59115646D01*
X184337646Y-58990147D01*
X184485216Y-58891544D01*
X184649188Y-58823624D01*
X184798488Y-58793927D01*
X184823258Y-58789000D01*
X185000742Y-58789000D01*
X185025512Y-58793927D01*
G37*
G36*
X185025512Y-56253927D02*
G01*
X185174812Y-56283624D01*
X185338784Y-56351544D01*
X185486354Y-56450147D01*
X185611853Y-56575646D01*
X185710456Y-56723216D01*
X185778376Y-56887188D01*
X185813000Y-57061259D01*
X185813000Y-57238741D01*
X185778376Y-57412812D01*
X185710456Y-57576784D01*
X185611853Y-57724354D01*
X185486354Y-57849853D01*
X185338784Y-57948456D01*
X185174812Y-58016376D01*
X185025512Y-58046073D01*
X185000742Y-58051000D01*
X184823258Y-58051000D01*
X184798488Y-58046073D01*
X184649188Y-58016376D01*
X184485216Y-57948456D01*
X184337646Y-57849853D01*
X184212147Y-57724354D01*
X184113544Y-57576784D01*
X184045624Y-57412812D01*
X184011000Y-57238741D01*
X184011000Y-57061259D01*
X184045624Y-56887188D01*
X184113544Y-56723216D01*
X184212147Y-56575646D01*
X184337646Y-56450147D01*
X184485216Y-56351544D01*
X184649188Y-56283624D01*
X184798488Y-56253927D01*
X184823258Y-56249000D01*
X185000742Y-56249000D01*
X185025512Y-56253927D01*
G37*
G36*
X210385170Y-56804803D02*
G01*
X210396875Y-56808354D01*
X210407665Y-56814121D01*
X210417119Y-56821881D01*
X210424879Y-56831335D01*
X210430646Y-56842125D01*
X210434197Y-56853830D01*
X210436000Y-56872138D01*
X210436000Y-57295862D01*
X210434197Y-57314170D01*
X210430645Y-57325877D01*
X210420383Y-57345077D01*
X210411006Y-57367716D01*
X210406226Y-57391749D01*
X210406226Y-57416253D01*
X210411007Y-57440286D01*
X210420383Y-57462923D01*
X210430645Y-57482123D01*
X210434197Y-57493830D01*
X210436000Y-57512138D01*
X210436000Y-57935862D01*
X210434197Y-57954170D01*
X210430646Y-57965875D01*
X210424879Y-57976665D01*
X210417119Y-57986119D01*
X210407665Y-57993879D01*
X210396875Y-57999646D01*
X210385170Y-58003197D01*
X210366862Y-58005000D01*
X210003138Y-58005000D01*
X209984830Y-58003197D01*
X209973125Y-57999646D01*
X209962335Y-57993879D01*
X209952881Y-57986119D01*
X209945121Y-57976665D01*
X209939354Y-57965875D01*
X209935803Y-57954170D01*
X209934000Y-57935862D01*
X209934000Y-57512138D01*
X209935803Y-57493830D01*
X209939355Y-57482123D01*
X209949617Y-57462923D01*
X209958994Y-57440284D01*
X209963774Y-57416251D01*
X209963774Y-57391747D01*
X209958993Y-57367714D01*
X209949617Y-57345077D01*
X209939355Y-57325877D01*
X209935803Y-57314170D01*
X209934000Y-57295862D01*
X209934000Y-56872138D01*
X209935803Y-56853830D01*
X209939354Y-56842125D01*
X209945121Y-56831335D01*
X209952881Y-56821881D01*
X209962335Y-56814121D01*
X209973125Y-56808354D01*
X209984830Y-56804803D01*
X210003138Y-56803000D01*
X210366862Y-56803000D01*
X210385170Y-56804803D01*
G37*
G36*
X212353000Y-57535000D02*
G01*
X211351000Y-57535000D01*
X211351000Y-56633000D01*
X212353000Y-56633000D01*
X212353000Y-57535000D01*
G37*
G36*
X223797395Y-55219546D02*
G01*
X223970466Y-55291234D01*
X223998331Y-55309853D01*
X224126227Y-55395310D01*
X224258690Y-55527773D01*
X224258691Y-55527775D01*
X224362766Y-55683534D01*
X224434454Y-55856605D01*
X224471000Y-56040333D01*
X224471000Y-56227667D01*
X224434454Y-56411395D01*
X224362766Y-56584466D01*
X224325673Y-56639980D01*
X224258690Y-56740227D01*
X224126227Y-56872690D01*
X224079344Y-56904016D01*
X223970466Y-56976766D01*
X223797395Y-57048454D01*
X223613667Y-57085000D01*
X223426333Y-57085000D01*
X223242605Y-57048454D01*
X223069534Y-56976766D01*
X222960656Y-56904016D01*
X222913773Y-56872690D01*
X222781310Y-56740227D01*
X222714327Y-56639980D01*
X222677234Y-56584466D01*
X222605546Y-56411395D01*
X222569000Y-56227667D01*
X222569000Y-56040333D01*
X222605546Y-55856605D01*
X222677234Y-55683534D01*
X222781309Y-55527775D01*
X222781310Y-55527773D01*
X222913773Y-55395310D01*
X223041669Y-55309853D01*
X223069534Y-55291234D01*
X223242605Y-55219546D01*
X223426333Y-55183000D01*
X223613667Y-55183000D01*
X223797395Y-55219546D01*
G37*
G36*
X221931000Y-57085000D02*
G01*
X220029000Y-57085000D01*
X220029000Y-55183000D01*
X221931000Y-55183000D01*
X221931000Y-57085000D01*
G37*
G36*
X216455499Y-55612445D02*
G01*
X216492995Y-55623820D01*
X216527554Y-55642292D01*
X216557847Y-55667153D01*
X216582708Y-55697446D01*
X216601180Y-55732005D01*
X216612555Y-55769501D01*
X216617000Y-55814638D01*
X216617000Y-56453362D01*
X216612555Y-56498499D01*
X216601180Y-56535995D01*
X216582708Y-56570554D01*
X216557847Y-56600847D01*
X216527554Y-56625708D01*
X216492995Y-56644180D01*
X216455499Y-56655555D01*
X216410362Y-56660000D01*
X215671638Y-56660000D01*
X215626501Y-56655555D01*
X215589005Y-56644180D01*
X215554446Y-56625708D01*
X215524153Y-56600847D01*
X215499292Y-56570554D01*
X215480820Y-56535995D01*
X215469445Y-56498499D01*
X215465000Y-56453362D01*
X215465000Y-55814638D01*
X215469445Y-55769501D01*
X215480820Y-55732005D01*
X215499292Y-55697446D01*
X215524153Y-55667153D01*
X215554446Y-55642292D01*
X215589005Y-55623820D01*
X215626501Y-55612445D01*
X215671638Y-55608000D01*
X216410362Y-55608000D01*
X216455499Y-55612445D01*
G37*
G36*
X218205499Y-55612445D02*
G01*
X218242995Y-55623820D01*
X218277554Y-55642292D01*
X218307847Y-55667153D01*
X218332708Y-55697446D01*
X218351180Y-55732005D01*
X218362555Y-55769501D01*
X218367000Y-55814638D01*
X218367000Y-56453362D01*
X218362555Y-56498499D01*
X218351180Y-56535995D01*
X218332708Y-56570554D01*
X218307847Y-56600847D01*
X218277554Y-56625708D01*
X218242995Y-56644180D01*
X218205499Y-56655555D01*
X218160362Y-56660000D01*
X217421638Y-56660000D01*
X217376501Y-56655555D01*
X217339005Y-56644180D01*
X217304446Y-56625708D01*
X217274153Y-56600847D01*
X217249292Y-56570554D01*
X217230820Y-56535995D01*
X217219445Y-56498499D01*
X217215000Y-56453362D01*
X217215000Y-55814638D01*
X217219445Y-55769501D01*
X217230820Y-55732005D01*
X217249292Y-55697446D01*
X217274153Y-55667153D01*
X217304446Y-55642292D01*
X217339005Y-55623820D01*
X217376501Y-55612445D01*
X217421638Y-55608000D01*
X218160362Y-55608000D01*
X218205499Y-55612445D01*
G37*
G36*
X214353000Y-56585000D02*
G01*
X213351000Y-56585000D01*
X213351000Y-55683000D01*
X214353000Y-55683000D01*
X214353000Y-56585000D01*
G37*
G36*
X212353000Y-55635000D02*
G01*
X211351000Y-55635000D01*
X211351000Y-54733000D01*
X212353000Y-54733000D01*
X212353000Y-55635000D01*
G37*
G36*
X185025512Y-53713927D02*
G01*
X185174812Y-53743624D01*
X185338784Y-53811544D01*
X185486354Y-53910147D01*
X185611853Y-54035646D01*
X185710456Y-54183216D01*
X185778376Y-54347188D01*
X185813000Y-54521259D01*
X185813000Y-54698741D01*
X185778376Y-54872812D01*
X185710456Y-55036784D01*
X185611853Y-55184354D01*
X185486354Y-55309853D01*
X185338784Y-55408456D01*
X185174812Y-55476376D01*
X185025512Y-55506073D01*
X185000742Y-55511000D01*
X184823258Y-55511000D01*
X184798488Y-55506073D01*
X184649188Y-55476376D01*
X184485216Y-55408456D01*
X184337646Y-55309853D01*
X184212147Y-55184354D01*
X184113544Y-55036784D01*
X184045624Y-54872812D01*
X184011000Y-54698741D01*
X184011000Y-54521259D01*
X184045624Y-54347188D01*
X184113544Y-54183216D01*
X184212147Y-54035646D01*
X184337646Y-53910147D01*
X184485216Y-53811544D01*
X184649188Y-53743624D01*
X184798488Y-53713927D01*
X184823258Y-53709000D01*
X185000742Y-53709000D01*
X185025512Y-53713927D01*
G37*
G36*
X185025512Y-51173927D02*
G01*
X185174812Y-51203624D01*
X185338784Y-51271544D01*
X185486354Y-51370147D01*
X185611853Y-51495646D01*
X185710456Y-51643216D01*
X185778376Y-51807188D01*
X185813000Y-51981259D01*
X185813000Y-52158741D01*
X185778376Y-52332812D01*
X185710456Y-52496784D01*
X185611853Y-52644354D01*
X185486354Y-52769853D01*
X185338784Y-52868456D01*
X185174812Y-52936376D01*
X185025512Y-52966073D01*
X185000742Y-52971000D01*
X184823258Y-52971000D01*
X184798488Y-52966073D01*
X184649188Y-52936376D01*
X184485216Y-52868456D01*
X184337646Y-52769853D01*
X184212147Y-52644354D01*
X184113544Y-52496784D01*
X184045624Y-52332812D01*
X184011000Y-52158741D01*
X184011000Y-51981259D01*
X184045624Y-51807188D01*
X184113544Y-51643216D01*
X184212147Y-51495646D01*
X184337646Y-51370147D01*
X184485216Y-51271544D01*
X184649188Y-51203624D01*
X184798488Y-51173927D01*
X184823258Y-51169000D01*
X185000742Y-51169000D01*
X185025512Y-51173927D01*
G37*
G36*
X185025512Y-48633927D02*
G01*
X185174812Y-48663624D01*
X185338784Y-48731544D01*
X185486354Y-48830147D01*
X185611853Y-48955646D01*
X185710456Y-49103216D01*
X185778376Y-49267188D01*
X185813000Y-49441259D01*
X185813000Y-49618741D01*
X185778376Y-49792812D01*
X185710456Y-49956784D01*
X185611853Y-50104354D01*
X185486354Y-50229853D01*
X185338784Y-50328456D01*
X185174812Y-50396376D01*
X185025512Y-50426073D01*
X185000742Y-50431000D01*
X184823258Y-50431000D01*
X184798488Y-50426073D01*
X184649188Y-50396376D01*
X184485216Y-50328456D01*
X184337646Y-50229853D01*
X184212147Y-50104354D01*
X184113544Y-49956784D01*
X184045624Y-49792812D01*
X184011000Y-49618741D01*
X184011000Y-49441259D01*
X184045624Y-49267188D01*
X184113544Y-49103216D01*
X184212147Y-48955646D01*
X184337646Y-48830147D01*
X184485216Y-48731544D01*
X184649188Y-48663624D01*
X184798488Y-48633927D01*
X184823258Y-48629000D01*
X185000742Y-48629000D01*
X185025512Y-48633927D01*
G37*
G36*
X212607000Y-50169000D02*
G01*
X211605000Y-50169000D01*
X211605000Y-49267000D01*
X212607000Y-49267000D01*
X212607000Y-50169000D01*
G37*
G36*
X223797395Y-47853546D02*
G01*
X223970466Y-47925234D01*
X223970467Y-47925235D01*
X224126227Y-48029310D01*
X224258690Y-48161773D01*
X224258691Y-48161775D01*
X224362766Y-48317534D01*
X224434454Y-48490605D01*
X224471000Y-48674333D01*
X224471000Y-48861667D01*
X224434454Y-49045395D01*
X224362766Y-49218466D01*
X224330211Y-49267188D01*
X224258690Y-49374227D01*
X224126227Y-49506690D01*
X224047818Y-49559081D01*
X223970466Y-49610766D01*
X223797395Y-49682454D01*
X223613667Y-49719000D01*
X223426333Y-49719000D01*
X223242605Y-49682454D01*
X223069534Y-49610766D01*
X222992182Y-49559081D01*
X222913773Y-49506690D01*
X222781310Y-49374227D01*
X222709789Y-49267188D01*
X222677234Y-49218466D01*
X222605546Y-49045395D01*
X222569000Y-48861667D01*
X222569000Y-48674333D01*
X222605546Y-48490605D01*
X222677234Y-48317534D01*
X222781309Y-48161775D01*
X222781310Y-48161773D01*
X222913773Y-48029310D01*
X223069533Y-47925235D01*
X223069534Y-47925234D01*
X223242605Y-47853546D01*
X223426333Y-47817000D01*
X223613667Y-47817000D01*
X223797395Y-47853546D01*
G37*
G36*
X221931000Y-49719000D02*
G01*
X220029000Y-49719000D01*
X220029000Y-47817000D01*
X221931000Y-47817000D01*
X221931000Y-49719000D01*
G37*
G36*
X218205499Y-48246445D02*
G01*
X218242995Y-48257820D01*
X218277554Y-48276292D01*
X218307847Y-48301153D01*
X218332708Y-48331446D01*
X218351180Y-48366005D01*
X218362555Y-48403501D01*
X218367000Y-48448638D01*
X218367000Y-49087362D01*
X218362555Y-49132499D01*
X218351180Y-49169995D01*
X218332708Y-49204554D01*
X218307847Y-49234847D01*
X218277554Y-49259708D01*
X218242995Y-49278180D01*
X218205499Y-49289555D01*
X218160362Y-49294000D01*
X217421638Y-49294000D01*
X217376501Y-49289555D01*
X217339005Y-49278180D01*
X217304446Y-49259708D01*
X217274153Y-49234847D01*
X217249292Y-49204554D01*
X217230820Y-49169995D01*
X217219445Y-49132499D01*
X217215000Y-49087362D01*
X217215000Y-48448638D01*
X217219445Y-48403501D01*
X217230820Y-48366005D01*
X217249292Y-48331446D01*
X217274153Y-48301153D01*
X217304446Y-48276292D01*
X217339005Y-48257820D01*
X217376501Y-48246445D01*
X217421638Y-48242000D01*
X218160362Y-48242000D01*
X218205499Y-48246445D01*
G37*
G36*
X216455499Y-48246445D02*
G01*
X216492995Y-48257820D01*
X216527554Y-48276292D01*
X216557847Y-48301153D01*
X216582708Y-48331446D01*
X216601180Y-48366005D01*
X216612555Y-48403501D01*
X216617000Y-48448638D01*
X216617000Y-49087362D01*
X216612555Y-49132499D01*
X216601180Y-49169995D01*
X216582708Y-49204554D01*
X216557847Y-49234847D01*
X216527554Y-49259708D01*
X216492995Y-49278180D01*
X216455499Y-49289555D01*
X216410362Y-49294000D01*
X215671638Y-49294000D01*
X215626501Y-49289555D01*
X215589005Y-49278180D01*
X215554446Y-49259708D01*
X215524153Y-49234847D01*
X215499292Y-49204554D01*
X215480820Y-49169995D01*
X215469445Y-49132499D01*
X215465000Y-49087362D01*
X215465000Y-48448638D01*
X215469445Y-48403501D01*
X215480820Y-48366005D01*
X215499292Y-48331446D01*
X215524153Y-48301153D01*
X215554446Y-48276292D01*
X215589005Y-48257820D01*
X215626501Y-48246445D01*
X215671638Y-48242000D01*
X216410362Y-48242000D01*
X216455499Y-48246445D01*
G37*
G36*
X214607000Y-49219000D02*
G01*
X213605000Y-49219000D01*
X213605000Y-48317000D01*
X214607000Y-48317000D01*
X214607000Y-49219000D01*
G37*
G36*
X212607000Y-48269000D02*
G01*
X211605000Y-48269000D01*
X211605000Y-47367000D01*
X212607000Y-47367000D01*
X212607000Y-48269000D01*
G37*
G36*
X185813000Y-47891000D02*
G01*
X184011000Y-47891000D01*
X184011000Y-46089000D01*
X185813000Y-46089000D01*
X185813000Y-47891000D01*
G37*
G36*
X193562562Y-41623181D02*
G01*
X193597481Y-41633774D01*
X193629663Y-41650976D01*
X193657873Y-41674127D01*
X193681024Y-41702337D01*
X193698226Y-41734519D01*
X193708819Y-41769438D01*
X193713000Y-41811895D01*
X193713000Y-43278105D01*
X193708819Y-43320562D01*
X193698226Y-43355481D01*
X193681024Y-43387663D01*
X193657873Y-43415873D01*
X193629663Y-43439024D01*
X193597481Y-43456226D01*
X193562562Y-43466819D01*
X193520105Y-43471000D01*
X192378895Y-43471000D01*
X192336438Y-43466819D01*
X192301519Y-43456226D01*
X192269337Y-43439024D01*
X192241127Y-43415873D01*
X192217976Y-43387663D01*
X192200774Y-43355481D01*
X192190181Y-43320562D01*
X192186000Y-43278105D01*
X192186000Y-41811895D01*
X192190181Y-41769438D01*
X192200774Y-41734519D01*
X192217976Y-41702337D01*
X192241127Y-41674127D01*
X192269337Y-41650976D01*
X192301519Y-41633774D01*
X192336438Y-41623181D01*
X192378895Y-41619000D01*
X193520105Y-41619000D01*
X193562562Y-41623181D01*
G37*
G36*
X196537562Y-41623181D02*
G01*
X196572481Y-41633774D01*
X196604663Y-41650976D01*
X196632873Y-41674127D01*
X196656024Y-41702337D01*
X196673226Y-41734519D01*
X196683819Y-41769438D01*
X196688000Y-41811895D01*
X196688000Y-43278105D01*
X196683819Y-43320562D01*
X196673226Y-43355481D01*
X196656024Y-43387663D01*
X196632873Y-43415873D01*
X196604663Y-43439024D01*
X196572481Y-43456226D01*
X196537562Y-43466819D01*
X196495105Y-43471000D01*
X195353895Y-43471000D01*
X195311438Y-43466819D01*
X195276519Y-43456226D01*
X195244337Y-43439024D01*
X195216127Y-43415873D01*
X195192976Y-43387663D01*
X195175774Y-43355481D01*
X195165181Y-43320562D01*
X195161000Y-43278105D01*
X195161000Y-41811895D01*
X195165181Y-41769438D01*
X195175774Y-41734519D01*
X195192976Y-41702337D01*
X195216127Y-41674127D01*
X195244337Y-41650976D01*
X195276519Y-41633774D01*
X195311438Y-41623181D01*
X195353895Y-41619000D01*
X196495105Y-41619000D01*
X196537562Y-41623181D01*
G37*
G36*
X212607000Y-42803000D02*
G01*
X211605000Y-42803000D01*
X211605000Y-41901000D01*
X212607000Y-41901000D01*
X212607000Y-42803000D01*
G37*
G36*
X223797395Y-40487546D02*
G01*
X223970466Y-40559234D01*
X223999093Y-40578362D01*
X224126227Y-40663310D01*
X224258690Y-40795773D01*
X224258691Y-40795775D01*
X224362766Y-40951534D01*
X224434454Y-41124605D01*
X224471000Y-41308333D01*
X224471000Y-41495667D01*
X224434454Y-41679395D01*
X224362766Y-41852466D01*
X224325673Y-41907980D01*
X224258690Y-42008227D01*
X224126227Y-42140690D01*
X224047818Y-42193081D01*
X223970466Y-42244766D01*
X223797395Y-42316454D01*
X223613667Y-42353000D01*
X223426333Y-42353000D01*
X223242605Y-42316454D01*
X223069534Y-42244766D01*
X222992182Y-42193081D01*
X222913773Y-42140690D01*
X222781310Y-42008227D01*
X222714327Y-41907980D01*
X222677234Y-41852466D01*
X222605546Y-41679395D01*
X222569000Y-41495667D01*
X222569000Y-41308333D01*
X222605546Y-41124605D01*
X222677234Y-40951534D01*
X222781309Y-40795775D01*
X222781310Y-40795773D01*
X222913773Y-40663310D01*
X223040907Y-40578362D01*
X223069534Y-40559234D01*
X223242605Y-40487546D01*
X223426333Y-40451000D01*
X223613667Y-40451000D01*
X223797395Y-40487546D01*
G37*
G36*
X221931000Y-42353000D02*
G01*
X220029000Y-42353000D01*
X220029000Y-40451000D01*
X221931000Y-40451000D01*
X221931000Y-42353000D01*
G37*
G36*
X216455499Y-40880445D02*
G01*
X216492995Y-40891820D01*
X216527554Y-40910292D01*
X216557847Y-40935153D01*
X216582708Y-40965446D01*
X216601180Y-41000005D01*
X216612555Y-41037501D01*
X216617000Y-41082638D01*
X216617000Y-41721362D01*
X216612555Y-41766499D01*
X216601180Y-41803995D01*
X216582708Y-41838554D01*
X216557847Y-41868847D01*
X216527554Y-41893708D01*
X216492995Y-41912180D01*
X216455499Y-41923555D01*
X216410362Y-41928000D01*
X215671638Y-41928000D01*
X215626501Y-41923555D01*
X215589005Y-41912180D01*
X215554446Y-41893708D01*
X215524153Y-41868847D01*
X215499292Y-41838554D01*
X215480820Y-41803995D01*
X215469445Y-41766499D01*
X215465000Y-41721362D01*
X215465000Y-41082638D01*
X215469445Y-41037501D01*
X215480820Y-41000005D01*
X215499292Y-40965446D01*
X215524153Y-40935153D01*
X215554446Y-40910292D01*
X215589005Y-40891820D01*
X215626501Y-40880445D01*
X215671638Y-40876000D01*
X216410362Y-40876000D01*
X216455499Y-40880445D01*
G37*
G36*
X218205499Y-40880445D02*
G01*
X218242995Y-40891820D01*
X218277554Y-40910292D01*
X218307847Y-40935153D01*
X218332708Y-40965446D01*
X218351180Y-41000005D01*
X218362555Y-41037501D01*
X218367000Y-41082638D01*
X218367000Y-41721362D01*
X218362555Y-41766499D01*
X218351180Y-41803995D01*
X218332708Y-41838554D01*
X218307847Y-41868847D01*
X218277554Y-41893708D01*
X218242995Y-41912180D01*
X218205499Y-41923555D01*
X218160362Y-41928000D01*
X217421638Y-41928000D01*
X217376501Y-41923555D01*
X217339005Y-41912180D01*
X217304446Y-41893708D01*
X217274153Y-41868847D01*
X217249292Y-41838554D01*
X217230820Y-41803995D01*
X217219445Y-41766499D01*
X217215000Y-41721362D01*
X217215000Y-41082638D01*
X217219445Y-41037501D01*
X217230820Y-41000005D01*
X217249292Y-40965446D01*
X217274153Y-40935153D01*
X217304446Y-40910292D01*
X217339005Y-40891820D01*
X217376501Y-40880445D01*
X217421638Y-40876000D01*
X218160362Y-40876000D01*
X218205499Y-40880445D01*
G37*
G36*
X214607000Y-41853000D02*
G01*
X213605000Y-41853000D01*
X213605000Y-40951000D01*
X214607000Y-40951000D01*
X214607000Y-41853000D01*
G37*
G36*
X212607000Y-40903000D02*
G01*
X211605000Y-40903000D01*
X211605000Y-40001000D01*
X212607000Y-40001000D01*
X212607000Y-40903000D01*
G37*
G36*
X194964499Y-39737445D02*
G01*
X195001995Y-39748820D01*
X195036554Y-39767292D01*
X195066847Y-39792153D01*
X195091708Y-39822446D01*
X195110180Y-39857005D01*
X195121555Y-39894501D01*
X195126000Y-39939638D01*
X195126000Y-40578362D01*
X195121555Y-40623499D01*
X195110180Y-40660995D01*
X195091708Y-40695554D01*
X195066847Y-40725847D01*
X195036554Y-40750708D01*
X195001995Y-40769180D01*
X194964499Y-40780555D01*
X194919362Y-40785000D01*
X194180638Y-40785000D01*
X194135501Y-40780555D01*
X194098005Y-40769180D01*
X194063446Y-40750708D01*
X194033153Y-40725847D01*
X194008292Y-40695554D01*
X193989820Y-40660995D01*
X193978445Y-40623499D01*
X193974000Y-40578362D01*
X193974000Y-39939638D01*
X193978445Y-39894501D01*
X193989820Y-39857005D01*
X194008292Y-39822446D01*
X194033153Y-39792153D01*
X194063446Y-39767292D01*
X194098005Y-39748820D01*
X194135501Y-39737445D01*
X194180638Y-39733000D01*
X194919362Y-39733000D01*
X194964499Y-39737445D01*
G37*
G36*
X193214499Y-39737445D02*
G01*
X193251995Y-39748820D01*
X193286554Y-39767292D01*
X193316847Y-39792153D01*
X193341708Y-39822446D01*
X193360180Y-39857005D01*
X193371555Y-39894501D01*
X193376000Y-39939638D01*
X193376000Y-40578362D01*
X193371555Y-40623499D01*
X193360180Y-40660995D01*
X193341708Y-40695554D01*
X193316847Y-40725847D01*
X193286554Y-40750708D01*
X193251995Y-40769180D01*
X193214499Y-40780555D01*
X193169362Y-40785000D01*
X192430638Y-40785000D01*
X192385501Y-40780555D01*
X192348005Y-40769180D01*
X192313446Y-40750708D01*
X192283153Y-40725847D01*
X192258292Y-40695554D01*
X192239820Y-40660995D01*
X192228445Y-40623499D01*
X192224000Y-40578362D01*
X192224000Y-39939638D01*
X192228445Y-39894501D01*
X192239820Y-39857005D01*
X192258292Y-39822446D01*
X192283153Y-39792153D01*
X192313446Y-39767292D01*
X192348005Y-39748820D01*
X192385501Y-39737445D01*
X192430638Y-39733000D01*
X193169362Y-39733000D01*
X193214499Y-39737445D01*
G37*
G36*
X196635998Y-37743042D02*
G01*
X190233998Y-37743042D01*
X190233998Y-36191042D01*
X196635998Y-36191042D01*
X196635998Y-37743042D01*
G37*
G36*
X183501512Y-35679927D02*
G01*
X183650812Y-35709624D01*
X183814784Y-35777544D01*
X183962354Y-35876147D01*
X184087853Y-36001646D01*
X184186456Y-36149216D01*
X184254376Y-36313188D01*
X184289000Y-36487259D01*
X184289000Y-36664741D01*
X184254376Y-36838812D01*
X184186456Y-37002784D01*
X184087853Y-37150354D01*
X183962354Y-37275853D01*
X183814784Y-37374456D01*
X183650812Y-37442376D01*
X183501512Y-37472073D01*
X183476742Y-37477000D01*
X183299258Y-37477000D01*
X183274488Y-37472073D01*
X183125188Y-37442376D01*
X182961216Y-37374456D01*
X182813646Y-37275853D01*
X182688147Y-37150354D01*
X182589544Y-37002784D01*
X182521624Y-36838812D01*
X182487000Y-36664741D01*
X182487000Y-36487259D01*
X182521624Y-36313188D01*
X182589544Y-36149216D01*
X182688147Y-36001646D01*
X182813646Y-35876147D01*
X182961216Y-35777544D01*
X183125188Y-35709624D01*
X183274488Y-35679927D01*
X183299258Y-35675000D01*
X183476742Y-35675000D01*
X183501512Y-35679927D01*
G37*
G36*
X212861000Y-35437000D02*
G01*
X211859000Y-35437000D01*
X211859000Y-34535000D01*
X212861000Y-34535000D01*
X212861000Y-35437000D01*
G37*
G36*
X221931000Y-34987000D02*
G01*
X220029000Y-34987000D01*
X220029000Y-33085000D01*
X221931000Y-33085000D01*
X221931000Y-34987000D01*
G37*
G36*
X223797395Y-33121546D02*
G01*
X223970466Y-33193234D01*
X223970467Y-33193235D01*
X224126227Y-33297310D01*
X224258690Y-33429773D01*
X224258691Y-33429775D01*
X224362766Y-33585534D01*
X224434454Y-33758605D01*
X224471000Y-33942333D01*
X224471000Y-34129667D01*
X224434454Y-34313395D01*
X224362766Y-34486466D01*
X224325673Y-34541980D01*
X224258690Y-34642227D01*
X224126227Y-34774690D01*
X224047818Y-34827081D01*
X223970466Y-34878766D01*
X223797395Y-34950454D01*
X223613667Y-34987000D01*
X223426333Y-34987000D01*
X223242605Y-34950454D01*
X223069534Y-34878766D01*
X222992182Y-34827081D01*
X222913773Y-34774690D01*
X222781310Y-34642227D01*
X222714327Y-34541980D01*
X222677234Y-34486466D01*
X222605546Y-34313395D01*
X222569000Y-34129667D01*
X222569000Y-33942333D01*
X222605546Y-33758605D01*
X222677234Y-33585534D01*
X222781309Y-33429775D01*
X222781310Y-33429773D01*
X222913773Y-33297310D01*
X223069533Y-33193235D01*
X223069534Y-33193234D01*
X223242605Y-33121546D01*
X223426333Y-33085000D01*
X223613667Y-33085000D01*
X223797395Y-33121546D01*
G37*
G36*
X183501512Y-33139927D02*
G01*
X183650812Y-33169624D01*
X183814784Y-33237544D01*
X183962354Y-33336147D01*
X184087853Y-33461646D01*
X184186456Y-33609216D01*
X184254376Y-33773188D01*
X184289000Y-33947259D01*
X184289000Y-34124741D01*
X184254376Y-34298812D01*
X184186456Y-34462784D01*
X184087853Y-34610354D01*
X183962354Y-34735853D01*
X183814784Y-34834456D01*
X183650812Y-34902376D01*
X183501512Y-34932073D01*
X183476742Y-34937000D01*
X183299258Y-34937000D01*
X183274488Y-34932073D01*
X183125188Y-34902376D01*
X182961216Y-34834456D01*
X182813646Y-34735853D01*
X182688147Y-34610354D01*
X182589544Y-34462784D01*
X182521624Y-34298812D01*
X182487000Y-34124741D01*
X182487000Y-33947259D01*
X182521624Y-33773188D01*
X182589544Y-33609216D01*
X182688147Y-33461646D01*
X182813646Y-33336147D01*
X182961216Y-33237544D01*
X183125188Y-33169624D01*
X183274488Y-33139927D01*
X183299258Y-33135000D01*
X183476742Y-33135000D01*
X183501512Y-33139927D01*
G37*
G36*
X218459499Y-33514445D02*
G01*
X218496995Y-33525820D01*
X218531554Y-33544292D01*
X218561847Y-33569153D01*
X218586708Y-33599446D01*
X218605180Y-33634005D01*
X218616555Y-33671501D01*
X218621000Y-33716638D01*
X218621000Y-34355362D01*
X218616555Y-34400499D01*
X218605180Y-34437995D01*
X218586708Y-34472554D01*
X218561847Y-34502847D01*
X218531554Y-34527708D01*
X218496995Y-34546180D01*
X218459499Y-34557555D01*
X218414362Y-34562000D01*
X217675638Y-34562000D01*
X217630501Y-34557555D01*
X217593005Y-34546180D01*
X217558446Y-34527708D01*
X217528153Y-34502847D01*
X217503292Y-34472554D01*
X217484820Y-34437995D01*
X217473445Y-34400499D01*
X217469000Y-34355362D01*
X217469000Y-33716638D01*
X217473445Y-33671501D01*
X217484820Y-33634005D01*
X217503292Y-33599446D01*
X217528153Y-33569153D01*
X217558446Y-33544292D01*
X217593005Y-33525820D01*
X217630501Y-33514445D01*
X217675638Y-33510000D01*
X218414362Y-33510000D01*
X218459499Y-33514445D01*
G37*
G36*
X216709499Y-33514445D02*
G01*
X216746995Y-33525820D01*
X216781554Y-33544292D01*
X216811847Y-33569153D01*
X216836708Y-33599446D01*
X216855180Y-33634005D01*
X216866555Y-33671501D01*
X216871000Y-33716638D01*
X216871000Y-34355362D01*
X216866555Y-34400499D01*
X216855180Y-34437995D01*
X216836708Y-34472554D01*
X216811847Y-34502847D01*
X216781554Y-34527708D01*
X216746995Y-34546180D01*
X216709499Y-34557555D01*
X216664362Y-34562000D01*
X215925638Y-34562000D01*
X215880501Y-34557555D01*
X215843005Y-34546180D01*
X215808446Y-34527708D01*
X215778153Y-34502847D01*
X215753292Y-34472554D01*
X215734820Y-34437995D01*
X215723445Y-34400499D01*
X215719000Y-34355362D01*
X215719000Y-33716638D01*
X215723445Y-33671501D01*
X215734820Y-33634005D01*
X215753292Y-33599446D01*
X215778153Y-33569153D01*
X215808446Y-33544292D01*
X215843005Y-33525820D01*
X215880501Y-33514445D01*
X215925638Y-33510000D01*
X216664362Y-33510000D01*
X216709499Y-33514445D01*
G37*
G36*
X214861000Y-34487000D02*
G01*
X213859000Y-34487000D01*
X213859000Y-33585000D01*
X214861000Y-33585000D01*
X214861000Y-34487000D01*
G37*
G36*
X212861000Y-33537000D02*
G01*
X211859000Y-33537000D01*
X211859000Y-32635000D01*
X212861000Y-32635000D01*
X212861000Y-33537000D01*
G37*
G36*
X202705562Y-31335181D02*
G01*
X202740481Y-31345774D01*
X202772663Y-31362976D01*
X202800873Y-31386127D01*
X202824024Y-31414337D01*
X202841226Y-31446519D01*
X202851819Y-31481438D01*
X202856000Y-31523895D01*
X202856000Y-32665105D01*
X202851819Y-32707562D01*
X202841226Y-32742481D01*
X202824024Y-32774663D01*
X202800873Y-32802873D01*
X202772663Y-32826024D01*
X202740481Y-32843226D01*
X202705562Y-32853819D01*
X202663105Y-32858000D01*
X201196895Y-32858000D01*
X201154438Y-32853819D01*
X201119519Y-32843226D01*
X201087337Y-32826024D01*
X201059127Y-32802873D01*
X201035976Y-32774663D01*
X201018774Y-32742481D01*
X201008181Y-32707562D01*
X201004000Y-32665105D01*
X201004000Y-31523895D01*
X201008181Y-31481438D01*
X201018774Y-31446519D01*
X201035976Y-31414337D01*
X201059127Y-31386127D01*
X201087337Y-31362976D01*
X201119519Y-31345774D01*
X201154438Y-31335181D01*
X201196895Y-31331000D01*
X202663105Y-31331000D01*
X202705562Y-31335181D01*
G37*
G36*
X183501512Y-30599927D02*
G01*
X183650812Y-30629624D01*
X183814784Y-30697544D01*
X183962354Y-30796147D01*
X184087853Y-30921646D01*
X184186456Y-31069216D01*
X184254376Y-31233188D01*
X184289000Y-31407259D01*
X184289000Y-31584741D01*
X184254376Y-31758812D01*
X184186456Y-31922784D01*
X184087853Y-32070354D01*
X183962354Y-32195853D01*
X183814784Y-32294456D01*
X183650812Y-32362376D01*
X183501512Y-32392073D01*
X183476742Y-32397000D01*
X183299258Y-32397000D01*
X183274488Y-32392073D01*
X183125188Y-32362376D01*
X182961216Y-32294456D01*
X182813646Y-32195853D01*
X182688147Y-32070354D01*
X182589544Y-31922784D01*
X182521624Y-31758812D01*
X182487000Y-31584741D01*
X182487000Y-31407259D01*
X182521624Y-31233188D01*
X182589544Y-31069216D01*
X182688147Y-30921646D01*
X182813646Y-30796147D01*
X182961216Y-30697544D01*
X183125188Y-30629624D01*
X183274488Y-30599927D01*
X183299258Y-30595000D01*
X183476742Y-30595000D01*
X183501512Y-30599927D01*
G37*
G36*
X199514497Y-31145487D02*
G01*
X199551993Y-31156862D01*
X199586552Y-31175334D01*
X199616845Y-31200195D01*
X199641706Y-31230488D01*
X199660178Y-31265047D01*
X199671553Y-31302543D01*
X199675998Y-31347680D01*
X199675998Y-32086404D01*
X199671553Y-32131541D01*
X199660178Y-32169037D01*
X199641706Y-32203596D01*
X199616845Y-32233889D01*
X199586552Y-32258750D01*
X199551993Y-32277222D01*
X199514497Y-32288597D01*
X199469360Y-32293042D01*
X198830636Y-32293042D01*
X198785499Y-32288597D01*
X198748003Y-32277222D01*
X198713444Y-32258750D01*
X198683151Y-32233889D01*
X198658290Y-32203596D01*
X198639818Y-32169037D01*
X198628443Y-32131541D01*
X198623998Y-32086404D01*
X198623998Y-31347680D01*
X198628443Y-31302543D01*
X198639818Y-31265047D01*
X198658290Y-31230488D01*
X198683151Y-31200195D01*
X198713444Y-31175334D01*
X198748003Y-31156862D01*
X198785499Y-31145487D01*
X198830636Y-31141042D01*
X199469360Y-31141042D01*
X199514497Y-31145487D01*
G37*
G36*
X196635998Y-31843042D02*
G01*
X190233998Y-31843042D01*
X190233998Y-30291042D01*
X196635998Y-30291042D01*
X196635998Y-31843042D01*
G37*
G36*
X205278999Y-29957945D02*
G01*
X205316495Y-29969320D01*
X205351054Y-29987792D01*
X205381347Y-30012653D01*
X205406208Y-30042946D01*
X205424680Y-30077505D01*
X205436055Y-30115001D01*
X205440500Y-30160138D01*
X205440500Y-30898862D01*
X205436055Y-30943999D01*
X205424680Y-30981495D01*
X205406208Y-31016054D01*
X205381347Y-31046347D01*
X205351054Y-31071208D01*
X205316495Y-31089680D01*
X205278999Y-31101055D01*
X205233862Y-31105500D01*
X204595138Y-31105500D01*
X204550001Y-31101055D01*
X204512505Y-31089680D01*
X204477946Y-31071208D01*
X204447653Y-31046347D01*
X204422792Y-31016054D01*
X204404320Y-30981495D01*
X204392945Y-30943999D01*
X204388500Y-30898862D01*
X204388500Y-30160138D01*
X204392945Y-30115001D01*
X204404320Y-30077505D01*
X204422792Y-30042946D01*
X204447653Y-30012653D01*
X204477946Y-29987792D01*
X204512505Y-29969320D01*
X204550001Y-29957945D01*
X204595138Y-29953500D01*
X205233862Y-29953500D01*
X205278999Y-29957945D01*
G37*
G36*
X199514497Y-29395487D02*
G01*
X199551993Y-29406862D01*
X199586552Y-29425334D01*
X199616845Y-29450195D01*
X199641706Y-29480488D01*
X199660178Y-29515047D01*
X199671553Y-29552543D01*
X199675998Y-29597680D01*
X199675998Y-30336404D01*
X199671553Y-30381541D01*
X199660178Y-30419037D01*
X199641706Y-30453596D01*
X199616845Y-30483889D01*
X199586552Y-30508750D01*
X199551993Y-30527222D01*
X199514497Y-30538597D01*
X199469360Y-30543042D01*
X198830636Y-30543042D01*
X198785499Y-30538597D01*
X198748003Y-30527222D01*
X198713444Y-30508750D01*
X198683151Y-30483889D01*
X198658290Y-30453596D01*
X198639818Y-30419037D01*
X198628443Y-30381541D01*
X198623998Y-30336404D01*
X198623998Y-29597680D01*
X198628443Y-29552543D01*
X198639818Y-29515047D01*
X198658290Y-29480488D01*
X198683151Y-29450195D01*
X198713444Y-29425334D01*
X198748003Y-29406862D01*
X198785499Y-29395487D01*
X198830636Y-29391042D01*
X199469360Y-29391042D01*
X199514497Y-29395487D01*
G37*
G36*
X202705562Y-28360181D02*
G01*
X202740481Y-28370774D01*
X202772663Y-28387976D01*
X202800873Y-28411127D01*
X202824024Y-28439337D01*
X202841226Y-28471519D01*
X202851819Y-28506438D01*
X202856000Y-28548895D01*
X202856000Y-29690105D01*
X202851819Y-29732562D01*
X202841226Y-29767481D01*
X202824024Y-29799663D01*
X202800873Y-29827873D01*
X202772663Y-29851024D01*
X202740481Y-29868226D01*
X202705562Y-29878819D01*
X202663105Y-29883000D01*
X201196895Y-29883000D01*
X201154438Y-29878819D01*
X201119519Y-29868226D01*
X201087337Y-29851024D01*
X201059127Y-29827873D01*
X201035976Y-29799663D01*
X201018774Y-29767481D01*
X201008181Y-29732562D01*
X201004000Y-29690105D01*
X201004000Y-28548895D01*
X201008181Y-28506438D01*
X201018774Y-28471519D01*
X201035976Y-28439337D01*
X201059127Y-28411127D01*
X201087337Y-28387976D01*
X201119519Y-28370774D01*
X201154438Y-28360181D01*
X201196895Y-28356000D01*
X202663105Y-28356000D01*
X202705562Y-28360181D01*
G37*
G36*
X183501512Y-28059927D02*
G01*
X183650812Y-28089624D01*
X183814784Y-28157544D01*
X183962354Y-28256147D01*
X184087853Y-28381646D01*
X184186456Y-28529216D01*
X184254376Y-28693188D01*
X184289000Y-28867259D01*
X184289000Y-29044741D01*
X184254376Y-29218812D01*
X184186456Y-29382784D01*
X184087853Y-29530354D01*
X183962354Y-29655853D01*
X183814784Y-29754456D01*
X183650812Y-29822376D01*
X183506785Y-29851024D01*
X183476742Y-29857000D01*
X183299258Y-29857000D01*
X183269215Y-29851024D01*
X183125188Y-29822376D01*
X182961216Y-29754456D01*
X182813646Y-29655853D01*
X182688147Y-29530354D01*
X182589544Y-29382784D01*
X182521624Y-29218812D01*
X182487000Y-29044741D01*
X182487000Y-28867259D01*
X182521624Y-28693188D01*
X182589544Y-28529216D01*
X182688147Y-28381646D01*
X182813646Y-28256147D01*
X182961216Y-28157544D01*
X183125188Y-28089624D01*
X183274488Y-28059927D01*
X183299258Y-28055000D01*
X183476742Y-28055000D01*
X183501512Y-28059927D01*
G37*
G36*
X205278999Y-28207945D02*
G01*
X205316495Y-28219320D01*
X205351054Y-28237792D01*
X205381347Y-28262653D01*
X205406208Y-28292946D01*
X205424680Y-28327505D01*
X205436055Y-28365001D01*
X205440500Y-28410138D01*
X205440500Y-29148862D01*
X205436055Y-29193999D01*
X205424680Y-29231495D01*
X205406208Y-29266054D01*
X205381347Y-29296347D01*
X205351054Y-29321208D01*
X205316495Y-29339680D01*
X205278999Y-29351055D01*
X205233862Y-29355500D01*
X204595138Y-29355500D01*
X204550001Y-29351055D01*
X204512505Y-29339680D01*
X204477946Y-29321208D01*
X204447653Y-29296347D01*
X204422792Y-29266054D01*
X204404320Y-29231495D01*
X204392945Y-29193999D01*
X204388500Y-29148862D01*
X204388500Y-28410138D01*
X204392945Y-28365001D01*
X204404320Y-28327505D01*
X204422792Y-28292946D01*
X204447653Y-28262653D01*
X204477946Y-28237792D01*
X204512505Y-28219320D01*
X204550001Y-28207945D01*
X204595138Y-28203500D01*
X205233862Y-28203500D01*
X205278999Y-28207945D01*
G37*
G36*
X210766170Y-27467803D02*
G01*
X210777875Y-27471354D01*
X210788665Y-27477121D01*
X210798119Y-27484881D01*
X210805879Y-27494335D01*
X210811646Y-27505125D01*
X210815197Y-27516830D01*
X210817000Y-27535138D01*
X210817000Y-27958862D01*
X210815197Y-27977170D01*
X210811645Y-27988877D01*
X210801383Y-28008077D01*
X210792006Y-28030716D01*
X210787226Y-28054749D01*
X210787226Y-28079253D01*
X210792007Y-28103286D01*
X210801383Y-28125923D01*
X210811645Y-28145123D01*
X210815197Y-28156830D01*
X210817000Y-28175138D01*
X210817000Y-28598862D01*
X210815197Y-28617170D01*
X210811646Y-28628875D01*
X210805879Y-28639665D01*
X210798119Y-28649119D01*
X210788665Y-28656879D01*
X210777875Y-28662646D01*
X210766170Y-28666197D01*
X210747862Y-28668000D01*
X210384138Y-28668000D01*
X210365830Y-28666197D01*
X210354125Y-28662646D01*
X210343335Y-28656879D01*
X210333881Y-28649119D01*
X210326121Y-28639665D01*
X210320354Y-28628875D01*
X210316803Y-28617170D01*
X210315000Y-28598862D01*
X210315000Y-28175138D01*
X210316803Y-28156830D01*
X210320355Y-28145123D01*
X210330617Y-28125923D01*
X210339994Y-28103284D01*
X210344774Y-28079251D01*
X210344774Y-28054747D01*
X210339993Y-28030714D01*
X210330617Y-28008077D01*
X210320355Y-27988877D01*
X210316803Y-27977170D01*
X210315000Y-27958862D01*
X210315000Y-27535138D01*
X210316803Y-27516830D01*
X210320354Y-27505125D01*
X210326121Y-27494335D01*
X210333881Y-27484881D01*
X210343335Y-27477121D01*
X210354125Y-27471354D01*
X210365830Y-27467803D01*
X210384138Y-27466000D01*
X210747862Y-27466000D01*
X210766170Y-27467803D01*
G37*
G36*
X212861000Y-28071000D02*
G01*
X211859000Y-28071000D01*
X211859000Y-27169000D01*
X212861000Y-27169000D01*
X212861000Y-28071000D01*
G37*
G36*
X223797395Y-25755546D02*
G01*
X223970466Y-25827234D01*
X224003041Y-25849000D01*
X224126227Y-25931310D01*
X224258690Y-26063773D01*
X224299148Y-26124323D01*
X224362766Y-26219534D01*
X224434454Y-26392605D01*
X224471000Y-26576333D01*
X224471000Y-26763667D01*
X224434454Y-26947395D01*
X224362766Y-27120466D01*
X224327766Y-27172847D01*
X224258690Y-27276227D01*
X224126227Y-27408690D01*
X224083111Y-27437499D01*
X223970466Y-27512766D01*
X223797395Y-27584454D01*
X223613667Y-27621000D01*
X223426333Y-27621000D01*
X223242605Y-27584454D01*
X223069534Y-27512766D01*
X222956889Y-27437499D01*
X222913773Y-27408690D01*
X222781310Y-27276227D01*
X222712234Y-27172847D01*
X222677234Y-27120466D01*
X222605546Y-26947395D01*
X222569000Y-26763667D01*
X222569000Y-26576333D01*
X222605546Y-26392605D01*
X222677234Y-26219534D01*
X222740852Y-26124323D01*
X222781310Y-26063773D01*
X222913773Y-25931310D01*
X223036959Y-25849000D01*
X223069534Y-25827234D01*
X223242605Y-25755546D01*
X223426333Y-25719000D01*
X223613667Y-25719000D01*
X223797395Y-25755546D01*
G37*
G36*
X221931000Y-27621000D02*
G01*
X220029000Y-27621000D01*
X220029000Y-25719000D01*
X221931000Y-25719000D01*
X221931000Y-27621000D01*
G37*
G36*
X203818499Y-26451445D02*
G01*
X203855995Y-26462820D01*
X203890554Y-26481292D01*
X203920847Y-26506153D01*
X203945708Y-26536446D01*
X203964180Y-26571005D01*
X203975555Y-26608501D01*
X203980000Y-26653638D01*
X203980000Y-27392362D01*
X203975555Y-27437499D01*
X203964180Y-27474995D01*
X203945708Y-27509554D01*
X203920847Y-27539847D01*
X203890554Y-27564708D01*
X203855995Y-27583180D01*
X203818499Y-27594555D01*
X203773362Y-27599000D01*
X203134638Y-27599000D01*
X203089501Y-27594555D01*
X203052005Y-27583180D01*
X203017446Y-27564708D01*
X202987153Y-27539847D01*
X202962292Y-27509554D01*
X202943820Y-27474995D01*
X202932445Y-27437499D01*
X202928000Y-27392362D01*
X202928000Y-26653638D01*
X202932445Y-26608501D01*
X202943820Y-26571005D01*
X202962292Y-26536446D01*
X202987153Y-26506153D01*
X203017446Y-26481292D01*
X203052005Y-26462820D01*
X203089501Y-26451445D01*
X203134638Y-26447000D01*
X203773362Y-26447000D01*
X203818499Y-26451445D01*
G37*
G36*
X201351000Y-27589000D02*
G01*
X200599000Y-27589000D01*
X200599000Y-26427000D01*
X201351000Y-26427000D01*
X201351000Y-27589000D01*
G37*
G36*
X199451000Y-27589000D02*
G01*
X198699000Y-27589000D01*
X198699000Y-26427000D01*
X199451000Y-26427000D01*
X199451000Y-27589000D01*
G37*
G36*
X184289000Y-27317000D02*
G01*
X182487000Y-27317000D01*
X182487000Y-25515000D01*
X184289000Y-25515000D01*
X184289000Y-27317000D01*
G37*
G36*
X197087499Y-26084445D02*
G01*
X197124995Y-26095820D01*
X197159554Y-26114292D01*
X197189847Y-26139153D01*
X197214708Y-26169446D01*
X197233180Y-26204005D01*
X197244555Y-26241501D01*
X197249000Y-26286638D01*
X197249000Y-27025362D01*
X197244555Y-27070499D01*
X197233180Y-27107995D01*
X197214708Y-27142554D01*
X197189847Y-27172847D01*
X197159554Y-27197708D01*
X197124995Y-27216180D01*
X197087499Y-27227555D01*
X197042362Y-27232000D01*
X196403638Y-27232000D01*
X196358501Y-27227555D01*
X196321005Y-27216180D01*
X196286446Y-27197708D01*
X196256153Y-27172847D01*
X196231292Y-27142554D01*
X196212820Y-27107995D01*
X196201445Y-27070499D01*
X196197000Y-27025362D01*
X196197000Y-26286638D01*
X196201445Y-26241501D01*
X196212820Y-26204005D01*
X196231292Y-26169446D01*
X196256153Y-26139153D01*
X196286446Y-26114292D01*
X196321005Y-26095820D01*
X196358501Y-26084445D01*
X196403638Y-26080000D01*
X197042362Y-26080000D01*
X197087499Y-26084445D01*
G37*
G36*
X216709499Y-26148445D02*
G01*
X216746995Y-26159820D01*
X216781554Y-26178292D01*
X216811847Y-26203153D01*
X216836708Y-26233446D01*
X216855180Y-26268005D01*
X216866555Y-26305501D01*
X216871000Y-26350638D01*
X216871000Y-26989362D01*
X216866555Y-27034499D01*
X216855180Y-27071995D01*
X216836708Y-27106554D01*
X216811847Y-27136847D01*
X216781554Y-27161708D01*
X216746995Y-27180180D01*
X216709499Y-27191555D01*
X216664362Y-27196000D01*
X215925638Y-27196000D01*
X215880501Y-27191555D01*
X215843005Y-27180180D01*
X215808446Y-27161708D01*
X215778153Y-27136847D01*
X215753292Y-27106554D01*
X215734820Y-27071995D01*
X215723445Y-27034499D01*
X215719000Y-26989362D01*
X215719000Y-26350638D01*
X215723445Y-26305501D01*
X215734820Y-26268005D01*
X215753292Y-26233446D01*
X215778153Y-26203153D01*
X215808446Y-26178292D01*
X215843005Y-26159820D01*
X215880501Y-26148445D01*
X215925638Y-26144000D01*
X216664362Y-26144000D01*
X216709499Y-26148445D01*
G37*
G36*
X218459499Y-26148445D02*
G01*
X218496995Y-26159820D01*
X218531554Y-26178292D01*
X218561847Y-26203153D01*
X218586708Y-26233446D01*
X218605180Y-26268005D01*
X218616555Y-26305501D01*
X218621000Y-26350638D01*
X218621000Y-26989362D01*
X218616555Y-27034499D01*
X218605180Y-27071995D01*
X218586708Y-27106554D01*
X218561847Y-27136847D01*
X218531554Y-27161708D01*
X218496995Y-27180180D01*
X218459499Y-27191555D01*
X218414362Y-27196000D01*
X217675638Y-27196000D01*
X217630501Y-27191555D01*
X217593005Y-27180180D01*
X217558446Y-27161708D01*
X217528153Y-27136847D01*
X217503292Y-27106554D01*
X217484820Y-27071995D01*
X217473445Y-27034499D01*
X217469000Y-26989362D01*
X217469000Y-26350638D01*
X217473445Y-26305501D01*
X217484820Y-26268005D01*
X217503292Y-26233446D01*
X217528153Y-26203153D01*
X217558446Y-26178292D01*
X217593005Y-26159820D01*
X217630501Y-26148445D01*
X217675638Y-26144000D01*
X218414362Y-26144000D01*
X218459499Y-26148445D01*
G37*
G36*
X214861000Y-27121000D02*
G01*
X213859000Y-27121000D01*
X213859000Y-26219000D01*
X214861000Y-26219000D01*
X214861000Y-27121000D01*
G37*
G36*
X193179000Y-26809000D02*
G01*
X191377000Y-26809000D01*
X191377000Y-25007000D01*
X193179000Y-25007000D01*
X193179000Y-26809000D01*
G37*
G36*
X189851512Y-25011927D02*
G01*
X190000812Y-25041624D01*
X190164784Y-25109544D01*
X190312354Y-25208147D01*
X190437853Y-25333646D01*
X190536456Y-25481216D01*
X190604376Y-25645188D01*
X190639000Y-25819259D01*
X190639000Y-25996741D01*
X190604376Y-26170812D01*
X190536456Y-26334784D01*
X190437853Y-26482354D01*
X190312354Y-26607853D01*
X190164784Y-26706456D01*
X190000812Y-26774376D01*
X189851512Y-26804073D01*
X189826742Y-26809000D01*
X189649258Y-26809000D01*
X189624488Y-26804073D01*
X189475188Y-26774376D01*
X189311216Y-26706456D01*
X189163646Y-26607853D01*
X189038147Y-26482354D01*
X188939544Y-26334784D01*
X188871624Y-26170812D01*
X188837000Y-25996741D01*
X188837000Y-25819259D01*
X188871624Y-25645188D01*
X188939544Y-25481216D01*
X189038147Y-25333646D01*
X189163646Y-25208147D01*
X189311216Y-25109544D01*
X189475188Y-25041624D01*
X189624488Y-25011927D01*
X189649258Y-25007000D01*
X189826742Y-25007000D01*
X189851512Y-25011927D01*
G37*
G36*
X212861000Y-26171000D02*
G01*
X211859000Y-26171000D01*
X211859000Y-25269000D01*
X212861000Y-25269000D01*
X212861000Y-26171000D01*
G37*
G36*
X203818499Y-24701445D02*
G01*
X203855995Y-24712820D01*
X203890554Y-24731292D01*
X203920847Y-24756153D01*
X203945708Y-24786446D01*
X203964180Y-24821005D01*
X203975555Y-24858501D01*
X203980000Y-24903638D01*
X203980000Y-25642362D01*
X203975555Y-25687499D01*
X203964180Y-25724995D01*
X203945708Y-25759554D01*
X203920847Y-25789847D01*
X203890554Y-25814708D01*
X203855995Y-25833180D01*
X203818499Y-25844555D01*
X203773362Y-25849000D01*
X203134638Y-25849000D01*
X203089501Y-25844555D01*
X203052005Y-25833180D01*
X203017446Y-25814708D01*
X202987153Y-25789847D01*
X202962292Y-25759554D01*
X202943820Y-25724995D01*
X202932445Y-25687499D01*
X202928000Y-25642362D01*
X202928000Y-24903638D01*
X202932445Y-24858501D01*
X202943820Y-24821005D01*
X202962292Y-24786446D01*
X202987153Y-24756153D01*
X203017446Y-24731292D01*
X203052005Y-24712820D01*
X203089501Y-24701445D01*
X203134638Y-24697000D01*
X203773362Y-24697000D01*
X203818499Y-24701445D01*
G37*
G36*
X197087499Y-24334445D02*
G01*
X197124995Y-24345820D01*
X197159554Y-24364292D01*
X197189847Y-24389153D01*
X197214708Y-24419446D01*
X197233180Y-24454005D01*
X197244555Y-24491501D01*
X197249000Y-24536638D01*
X197249000Y-25275362D01*
X197244555Y-25320499D01*
X197233180Y-25357995D01*
X197214708Y-25392554D01*
X197189847Y-25422847D01*
X197159554Y-25447708D01*
X197124995Y-25466180D01*
X197087499Y-25477555D01*
X197042362Y-25482000D01*
X196403638Y-25482000D01*
X196358501Y-25477555D01*
X196321005Y-25466180D01*
X196286446Y-25447708D01*
X196256153Y-25422847D01*
X196231292Y-25392554D01*
X196212820Y-25357995D01*
X196201445Y-25320499D01*
X196197000Y-25275362D01*
X196197000Y-24536638D01*
X196201445Y-24491501D01*
X196212820Y-24454005D01*
X196231292Y-24419446D01*
X196256153Y-24389153D01*
X196286446Y-24364292D01*
X196321005Y-24345820D01*
X196358501Y-24334445D01*
X196403638Y-24330000D01*
X197042362Y-24330000D01*
X197087499Y-24334445D01*
G37*
G36*
X201351000Y-25389000D02*
G01*
X198699000Y-25389000D01*
X198699000Y-24227000D01*
X201351000Y-24227000D01*
X201351000Y-25389000D01*
G37*
M02*
