G04 #@! TF.GenerationSoftware,KiCad,Pcbnew,(5.1.5-0-10_14)*
G04 #@! TF.CreationDate,2020-02-27T20:03:29-05:00*
G04 #@! TF.ProjectId,led_level_pcb,6c65645f-6c65-4766-956c-5f7063622e6b,rev?*
G04 #@! TF.SameCoordinates,Original*
G04 #@! TF.FileFunction,Copper,L2,Bot*
G04 #@! TF.FilePolarity,Positive*
%FSLAX46Y46*%
G04 Gerber Fmt 4.6, Leading zero omitted, Abs format (unit mm)*
G04 Created by KiCad (PCBNEW (5.1.5-0-10_14)) date 2020-02-27 20:03:29*
%MOMM*%
%LPD*%
G04 APERTURE LIST*
%ADD10R,1.700000X1.700000*%
%ADD11C,1.700000*%
%ADD12C,1.800000*%
%ADD13R,1.800000X1.800000*%
%ADD14O,1.700000X1.700000*%
%ADD15C,2.000000*%
%ADD16C,0.800000*%
%ADD17C,0.250000*%
%ADD18C,0.254000*%
G04 APERTURE END LIST*
D10*
X184912000Y-46990000D03*
D11*
X184912000Y-49530000D03*
X184912000Y-52070000D03*
X184912000Y-54610000D03*
X184912000Y-57150000D03*
X184912000Y-59690000D03*
X184912000Y-62230000D03*
X184912000Y-64770000D03*
X184912000Y-67310000D03*
D12*
X223520000Y-85598000D03*
D13*
X220980000Y-85598000D03*
X220980000Y-26670000D03*
D12*
X223520000Y-26670000D03*
D13*
X220980000Y-34036000D03*
D12*
X223520000Y-34036000D03*
X223520000Y-41402000D03*
D13*
X220980000Y-41402000D03*
D12*
X223520000Y-48768000D03*
D13*
X220980000Y-48768000D03*
X220980000Y-56134000D03*
D12*
X223520000Y-56134000D03*
D13*
X220980000Y-63500000D03*
D12*
X223520000Y-63500000D03*
X223520000Y-70866000D03*
D13*
X220980000Y-70866000D03*
X220980000Y-78232000D03*
D12*
X223520000Y-78232000D03*
D10*
X183388000Y-26416000D03*
D14*
X183388000Y-28956000D03*
X183388000Y-31496000D03*
X183388000Y-34036000D03*
X183388000Y-36576000D03*
D10*
X192278000Y-25908000D03*
D14*
X189738000Y-25908000D03*
D15*
X185778000Y-81280000D03*
X185778000Y-76780000D03*
X192278000Y-81280000D03*
X192278000Y-76780000D03*
X203962000Y-76780000D03*
X203962000Y-81280000D03*
X197462000Y-76780000D03*
X197462000Y-81280000D03*
D10*
X191204998Y-72019042D03*
D14*
X188664998Y-72019042D03*
X186124998Y-72019042D03*
D16*
X198374000Y-38608000D03*
X187452000Y-38608000D03*
X210820000Y-34544000D03*
X212090000Y-43942000D03*
X212090000Y-51308000D03*
X210566000Y-64389000D03*
X210312000Y-71882000D03*
X210439000Y-79222600D03*
X210378000Y-84770000D03*
X198387998Y-33128042D03*
X203962000Y-32004000D03*
X195199000Y-26670000D03*
X203454000Y-23735000D03*
X191262000Y-42418000D03*
X210185000Y-58991500D03*
X210566000Y-29654500D03*
X198247000Y-39751000D03*
X194564000Y-29210000D03*
X186436000Y-35687000D03*
X188177000Y-35687000D03*
X192659000Y-29210000D03*
X186817000Y-43434000D03*
X193802000Y-45974000D03*
X188341000Y-43307000D03*
X188341000Y-45720000D03*
X204431672Y-58420000D03*
X202018672Y-61087000D03*
X189611000Y-43307000D03*
X189611000Y-45720000D03*
X203962000Y-56388000D03*
X200533000Y-59817000D03*
X191249699Y-45732301D03*
X191262000Y-43688000D03*
X193675000Y-74549000D03*
X195707000Y-72517000D03*
X196469000Y-55118000D03*
X201295000Y-50292000D03*
X201549000Y-38608000D03*
X197485000Y-29464000D03*
X195834000Y-29210000D03*
X195326000Y-53848000D03*
X199898000Y-49276000D03*
X199898000Y-38481000D03*
X196939000Y-47455000D03*
X192494000Y-51900000D03*
X193891000Y-52789000D03*
X198209000Y-48344000D03*
D17*
X187452000Y-38608000D02*
X198374000Y-38608000D01*
X185547000Y-36195000D02*
X185547000Y-38354000D01*
X183388000Y-34036000D02*
X185547000Y-36195000D01*
X197675314Y-39744999D02*
X186696001Y-39744999D01*
X197681315Y-39751000D02*
X197675314Y-39744999D01*
X198247000Y-39751000D02*
X197681315Y-39751000D01*
X185547000Y-38595998D02*
X185547000Y-38354000D01*
X186696001Y-39744999D02*
X185547000Y-38595998D01*
X186436000Y-35687000D02*
X188177000Y-35687000D01*
X192659000Y-29210000D02*
X194564000Y-29210000D01*
X187808302Y-46457302D02*
X186817000Y-45466000D01*
X186817000Y-45466000D02*
X186817000Y-43434000D01*
X193318698Y-46457302D02*
X187808302Y-46457302D01*
X193802000Y-45974000D02*
X193318698Y-46457302D01*
X188341000Y-43307000D02*
X188341000Y-45720000D01*
X202018672Y-60833000D02*
X202018672Y-61087000D01*
X204431672Y-58420000D02*
X202018672Y-60833000D01*
X189611000Y-43307000D02*
X189611000Y-45720000D01*
X203962000Y-56388000D02*
X203562001Y-56787999D01*
X203562001Y-56787999D02*
X200533000Y-59817000D01*
X191249699Y-43700301D02*
X191262000Y-43688000D01*
X191249699Y-45732301D02*
X191249699Y-43700301D01*
X193675000Y-74549000D02*
X195707000Y-72517000D01*
X196469000Y-55118000D02*
X201295000Y-50292000D01*
X201549000Y-38608000D02*
X201149001Y-38208001D01*
X201549000Y-38608000D02*
X195834000Y-32893000D01*
X195834000Y-31115000D02*
X197485000Y-29464000D01*
X195834000Y-32893000D02*
X195834000Y-31115000D01*
X195326000Y-53848000D02*
X199898000Y-49276000D01*
X195072000Y-29972000D02*
X195834000Y-29210000D01*
X199898000Y-37915315D02*
X195072000Y-33089315D01*
X195072000Y-33089315D02*
X195072000Y-29972000D01*
X199898000Y-38481000D02*
X199898000Y-37915315D01*
X196939000Y-47455000D02*
X193244847Y-51149153D01*
X193244847Y-51149153D02*
X192494000Y-51900000D01*
X194290999Y-52389001D02*
X194290999Y-52262001D01*
X193891000Y-52789000D02*
X194290999Y-52389001D01*
X194290999Y-52262001D02*
X198209000Y-48344000D01*
D18*
G36*
X213995248Y-87757000D02*
G01*
X181229248Y-87757000D01*
X181242209Y-81118967D01*
X184143000Y-81118967D01*
X184143000Y-81441033D01*
X184205832Y-81756912D01*
X184329082Y-82054463D01*
X184508013Y-82322252D01*
X184735748Y-82549987D01*
X185003537Y-82728918D01*
X185301088Y-82852168D01*
X185616967Y-82915000D01*
X185939033Y-82915000D01*
X186254912Y-82852168D01*
X186552463Y-82728918D01*
X186820252Y-82549987D01*
X187047987Y-82322252D01*
X187226918Y-82054463D01*
X187350168Y-81756912D01*
X187413000Y-81441033D01*
X187413000Y-81118967D01*
X190643000Y-81118967D01*
X190643000Y-81441033D01*
X190705832Y-81756912D01*
X190829082Y-82054463D01*
X191008013Y-82322252D01*
X191235748Y-82549987D01*
X191503537Y-82728918D01*
X191801088Y-82852168D01*
X192116967Y-82915000D01*
X192439033Y-82915000D01*
X192754912Y-82852168D01*
X193052463Y-82728918D01*
X193320252Y-82549987D01*
X193547987Y-82322252D01*
X193726918Y-82054463D01*
X193850168Y-81756912D01*
X193913000Y-81441033D01*
X193913000Y-81118967D01*
X195827000Y-81118967D01*
X195827000Y-81441033D01*
X195889832Y-81756912D01*
X196013082Y-82054463D01*
X196192013Y-82322252D01*
X196419748Y-82549987D01*
X196687537Y-82728918D01*
X196985088Y-82852168D01*
X197300967Y-82915000D01*
X197623033Y-82915000D01*
X197938912Y-82852168D01*
X198236463Y-82728918D01*
X198504252Y-82549987D01*
X198731987Y-82322252D01*
X198910918Y-82054463D01*
X199034168Y-81756912D01*
X199097000Y-81441033D01*
X199097000Y-81118967D01*
X202327000Y-81118967D01*
X202327000Y-81441033D01*
X202389832Y-81756912D01*
X202513082Y-82054463D01*
X202692013Y-82322252D01*
X202919748Y-82549987D01*
X203187537Y-82728918D01*
X203485088Y-82852168D01*
X203800967Y-82915000D01*
X204123033Y-82915000D01*
X204438912Y-82852168D01*
X204736463Y-82728918D01*
X205004252Y-82549987D01*
X205231987Y-82322252D01*
X205410918Y-82054463D01*
X205534168Y-81756912D01*
X205597000Y-81441033D01*
X205597000Y-81118967D01*
X205534168Y-80803088D01*
X205410918Y-80505537D01*
X205231987Y-80237748D01*
X205004252Y-80010013D01*
X204736463Y-79831082D01*
X204438912Y-79707832D01*
X204123033Y-79645000D01*
X203800967Y-79645000D01*
X203485088Y-79707832D01*
X203187537Y-79831082D01*
X202919748Y-80010013D01*
X202692013Y-80237748D01*
X202513082Y-80505537D01*
X202389832Y-80803088D01*
X202327000Y-81118967D01*
X199097000Y-81118967D01*
X199034168Y-80803088D01*
X198910918Y-80505537D01*
X198731987Y-80237748D01*
X198504252Y-80010013D01*
X198236463Y-79831082D01*
X197938912Y-79707832D01*
X197623033Y-79645000D01*
X197300967Y-79645000D01*
X196985088Y-79707832D01*
X196687537Y-79831082D01*
X196419748Y-80010013D01*
X196192013Y-80237748D01*
X196013082Y-80505537D01*
X195889832Y-80803088D01*
X195827000Y-81118967D01*
X193913000Y-81118967D01*
X193850168Y-80803088D01*
X193726918Y-80505537D01*
X193547987Y-80237748D01*
X193320252Y-80010013D01*
X193052463Y-79831082D01*
X192754912Y-79707832D01*
X192439033Y-79645000D01*
X192116967Y-79645000D01*
X191801088Y-79707832D01*
X191503537Y-79831082D01*
X191235748Y-80010013D01*
X191008013Y-80237748D01*
X190829082Y-80505537D01*
X190705832Y-80803088D01*
X190643000Y-81118967D01*
X187413000Y-81118967D01*
X187350168Y-80803088D01*
X187226918Y-80505537D01*
X187047987Y-80237748D01*
X186820252Y-80010013D01*
X186552463Y-79831082D01*
X186254912Y-79707832D01*
X185939033Y-79645000D01*
X185616967Y-79645000D01*
X185301088Y-79707832D01*
X185003537Y-79831082D01*
X184735748Y-80010013D01*
X184508013Y-80237748D01*
X184329082Y-80505537D01*
X184205832Y-80803088D01*
X184143000Y-81118967D01*
X181242209Y-81118967D01*
X181250996Y-76618967D01*
X184143000Y-76618967D01*
X184143000Y-76941033D01*
X184205832Y-77256912D01*
X184329082Y-77554463D01*
X184508013Y-77822252D01*
X184735748Y-78049987D01*
X185003537Y-78228918D01*
X185301088Y-78352168D01*
X185616967Y-78415000D01*
X185939033Y-78415000D01*
X186254912Y-78352168D01*
X186552463Y-78228918D01*
X186820252Y-78049987D01*
X187047987Y-77822252D01*
X187226918Y-77554463D01*
X187350168Y-77256912D01*
X187413000Y-76941033D01*
X187413000Y-76618967D01*
X190643000Y-76618967D01*
X190643000Y-76941033D01*
X190705832Y-77256912D01*
X190829082Y-77554463D01*
X191008013Y-77822252D01*
X191235748Y-78049987D01*
X191503537Y-78228918D01*
X191801088Y-78352168D01*
X192116967Y-78415000D01*
X192439033Y-78415000D01*
X192754912Y-78352168D01*
X193052463Y-78228918D01*
X193320252Y-78049987D01*
X193547987Y-77822252D01*
X193726918Y-77554463D01*
X193850168Y-77256912D01*
X193913000Y-76941033D01*
X193913000Y-76618967D01*
X195827000Y-76618967D01*
X195827000Y-76941033D01*
X195889832Y-77256912D01*
X196013082Y-77554463D01*
X196192013Y-77822252D01*
X196419748Y-78049987D01*
X196687537Y-78228918D01*
X196985088Y-78352168D01*
X197300967Y-78415000D01*
X197623033Y-78415000D01*
X197938912Y-78352168D01*
X198236463Y-78228918D01*
X198504252Y-78049987D01*
X198731987Y-77822252D01*
X198910918Y-77554463D01*
X199034168Y-77256912D01*
X199097000Y-76941033D01*
X199097000Y-76618967D01*
X202327000Y-76618967D01*
X202327000Y-76941033D01*
X202389832Y-77256912D01*
X202513082Y-77554463D01*
X202692013Y-77822252D01*
X202919748Y-78049987D01*
X203187537Y-78228918D01*
X203485088Y-78352168D01*
X203800967Y-78415000D01*
X204123033Y-78415000D01*
X204438912Y-78352168D01*
X204736463Y-78228918D01*
X205004252Y-78049987D01*
X205231987Y-77822252D01*
X205410918Y-77554463D01*
X205534168Y-77256912D01*
X205597000Y-76941033D01*
X205597000Y-76618967D01*
X205534168Y-76303088D01*
X205410918Y-76005537D01*
X205231987Y-75737748D01*
X205004252Y-75510013D01*
X204736463Y-75331082D01*
X204438912Y-75207832D01*
X204123033Y-75145000D01*
X203800967Y-75145000D01*
X203485088Y-75207832D01*
X203187537Y-75331082D01*
X202919748Y-75510013D01*
X202692013Y-75737748D01*
X202513082Y-76005537D01*
X202389832Y-76303088D01*
X202327000Y-76618967D01*
X199097000Y-76618967D01*
X199034168Y-76303088D01*
X198910918Y-76005537D01*
X198731987Y-75737748D01*
X198504252Y-75510013D01*
X198236463Y-75331082D01*
X197938912Y-75207832D01*
X197623033Y-75145000D01*
X197300967Y-75145000D01*
X196985088Y-75207832D01*
X196687537Y-75331082D01*
X196419748Y-75510013D01*
X196192013Y-75737748D01*
X196013082Y-76005537D01*
X195889832Y-76303088D01*
X195827000Y-76618967D01*
X193913000Y-76618967D01*
X193850168Y-76303088D01*
X193726918Y-76005537D01*
X193547987Y-75737748D01*
X193341286Y-75531047D01*
X193373102Y-75544226D01*
X193573061Y-75584000D01*
X193776939Y-75584000D01*
X193976898Y-75544226D01*
X194165256Y-75466205D01*
X194334774Y-75352937D01*
X194478937Y-75208774D01*
X194592205Y-75039256D01*
X194670226Y-74850898D01*
X194710000Y-74650939D01*
X194710000Y-74588801D01*
X195746802Y-73552000D01*
X195808939Y-73552000D01*
X196008898Y-73512226D01*
X196197256Y-73434205D01*
X196366774Y-73320937D01*
X196510937Y-73176774D01*
X196624205Y-73007256D01*
X196702226Y-72818898D01*
X196742000Y-72618939D01*
X196742000Y-72415061D01*
X196702226Y-72215102D01*
X196624205Y-72026744D01*
X196510937Y-71857226D01*
X196366774Y-71713063D01*
X196197256Y-71599795D01*
X196008898Y-71521774D01*
X195808939Y-71482000D01*
X195605061Y-71482000D01*
X195405102Y-71521774D01*
X195216744Y-71599795D01*
X195047226Y-71713063D01*
X194903063Y-71857226D01*
X194789795Y-72026744D01*
X194711774Y-72215102D01*
X194672000Y-72415061D01*
X194672000Y-72477198D01*
X193635199Y-73514000D01*
X193573061Y-73514000D01*
X193373102Y-73553774D01*
X193184744Y-73631795D01*
X193015226Y-73745063D01*
X192871063Y-73889226D01*
X192757795Y-74058744D01*
X192679774Y-74247102D01*
X192640000Y-74447061D01*
X192640000Y-74650939D01*
X192679774Y-74850898D01*
X192757795Y-75039256D01*
X192871063Y-75208774D01*
X192951586Y-75289297D01*
X192754912Y-75207832D01*
X192439033Y-75145000D01*
X192116967Y-75145000D01*
X191801088Y-75207832D01*
X191503537Y-75331082D01*
X191235748Y-75510013D01*
X191008013Y-75737748D01*
X190829082Y-76005537D01*
X190705832Y-76303088D01*
X190643000Y-76618967D01*
X187413000Y-76618967D01*
X187350168Y-76303088D01*
X187226918Y-76005537D01*
X187047987Y-75737748D01*
X186820252Y-75510013D01*
X186552463Y-75331082D01*
X186254912Y-75207832D01*
X185939033Y-75145000D01*
X185616967Y-75145000D01*
X185301088Y-75207832D01*
X185003537Y-75331082D01*
X184735748Y-75510013D01*
X184508013Y-75737748D01*
X184329082Y-76005537D01*
X184205832Y-76303088D01*
X184143000Y-76618967D01*
X181250996Y-76618967D01*
X181260263Y-71872782D01*
X184639998Y-71872782D01*
X184639998Y-72165302D01*
X184697066Y-72452200D01*
X184809008Y-72722453D01*
X184971523Y-72965674D01*
X185178366Y-73172517D01*
X185421587Y-73335032D01*
X185691840Y-73446974D01*
X185978738Y-73504042D01*
X186271258Y-73504042D01*
X186558156Y-73446974D01*
X186828409Y-73335032D01*
X187071630Y-73172517D01*
X187278473Y-72965674D01*
X187394998Y-72791282D01*
X187511523Y-72965674D01*
X187718366Y-73172517D01*
X187961587Y-73335032D01*
X188231840Y-73446974D01*
X188518738Y-73504042D01*
X188811258Y-73504042D01*
X189098156Y-73446974D01*
X189368409Y-73335032D01*
X189611630Y-73172517D01*
X189743485Y-73040662D01*
X189765496Y-73113222D01*
X189824461Y-73223536D01*
X189903813Y-73320227D01*
X190000504Y-73399579D01*
X190110818Y-73458544D01*
X190230516Y-73494854D01*
X190354998Y-73507114D01*
X192054998Y-73507114D01*
X192179480Y-73494854D01*
X192299178Y-73458544D01*
X192409492Y-73399579D01*
X192506183Y-73320227D01*
X192585535Y-73223536D01*
X192644500Y-73113222D01*
X192680810Y-72993524D01*
X192693070Y-72869042D01*
X192693070Y-71169042D01*
X192680810Y-71044560D01*
X192644500Y-70924862D01*
X192585535Y-70814548D01*
X192506183Y-70717857D01*
X192409492Y-70638505D01*
X192299178Y-70579540D01*
X192179480Y-70543230D01*
X192054998Y-70530970D01*
X190354998Y-70530970D01*
X190230516Y-70543230D01*
X190110818Y-70579540D01*
X190000504Y-70638505D01*
X189903813Y-70717857D01*
X189824461Y-70814548D01*
X189765496Y-70924862D01*
X189743485Y-70997422D01*
X189611630Y-70865567D01*
X189368409Y-70703052D01*
X189098156Y-70591110D01*
X188811258Y-70534042D01*
X188518738Y-70534042D01*
X188231840Y-70591110D01*
X187961587Y-70703052D01*
X187718366Y-70865567D01*
X187511523Y-71072410D01*
X187394998Y-71246802D01*
X187278473Y-71072410D01*
X187071630Y-70865567D01*
X186828409Y-70703052D01*
X186558156Y-70591110D01*
X186271258Y-70534042D01*
X185978738Y-70534042D01*
X185691840Y-70591110D01*
X185421587Y-70703052D01*
X185178366Y-70865567D01*
X184971523Y-71072410D01*
X184809008Y-71315631D01*
X184697066Y-71585884D01*
X184639998Y-71872782D01*
X181260263Y-71872782D01*
X181279379Y-62083740D01*
X183427000Y-62083740D01*
X183427000Y-62376260D01*
X183484068Y-62663158D01*
X183596010Y-62933411D01*
X183758525Y-63176632D01*
X183965368Y-63383475D01*
X184139760Y-63500000D01*
X183965368Y-63616525D01*
X183758525Y-63823368D01*
X183596010Y-64066589D01*
X183484068Y-64336842D01*
X183427000Y-64623740D01*
X183427000Y-64916260D01*
X183484068Y-65203158D01*
X183596010Y-65473411D01*
X183758525Y-65716632D01*
X183965368Y-65923475D01*
X184139760Y-66040000D01*
X183965368Y-66156525D01*
X183758525Y-66363368D01*
X183596010Y-66606589D01*
X183484068Y-66876842D01*
X183427000Y-67163740D01*
X183427000Y-67456260D01*
X183484068Y-67743158D01*
X183596010Y-68013411D01*
X183758525Y-68256632D01*
X183965368Y-68463475D01*
X184208589Y-68625990D01*
X184478842Y-68737932D01*
X184765740Y-68795000D01*
X185058260Y-68795000D01*
X185345158Y-68737932D01*
X185615411Y-68625990D01*
X185858632Y-68463475D01*
X186065475Y-68256632D01*
X186227990Y-68013411D01*
X186339932Y-67743158D01*
X186397000Y-67456260D01*
X186397000Y-67163740D01*
X186339932Y-66876842D01*
X186227990Y-66606589D01*
X186065475Y-66363368D01*
X185858632Y-66156525D01*
X185684240Y-66040000D01*
X185858632Y-65923475D01*
X186065475Y-65716632D01*
X186227990Y-65473411D01*
X186339932Y-65203158D01*
X186397000Y-64916260D01*
X186397000Y-64623740D01*
X186339932Y-64336842D01*
X186227990Y-64066589D01*
X186065475Y-63823368D01*
X185858632Y-63616525D01*
X185684240Y-63500000D01*
X185858632Y-63383475D01*
X186065475Y-63176632D01*
X186227990Y-62933411D01*
X186339932Y-62663158D01*
X186397000Y-62376260D01*
X186397000Y-62083740D01*
X186339932Y-61796842D01*
X186227990Y-61526589D01*
X186065475Y-61283368D01*
X185858632Y-61076525D01*
X185685271Y-60960689D01*
X185760792Y-60718397D01*
X184912000Y-59869605D01*
X184063208Y-60718397D01*
X184138729Y-60960689D01*
X183965368Y-61076525D01*
X183758525Y-61283368D01*
X183596010Y-61526589D01*
X183484068Y-61796842D01*
X183427000Y-62083740D01*
X181279379Y-62083740D01*
X181283920Y-59758531D01*
X183421389Y-59758531D01*
X183463401Y-60048019D01*
X183561081Y-60323747D01*
X183634528Y-60461157D01*
X183883603Y-60538792D01*
X184732395Y-59690000D01*
X185091605Y-59690000D01*
X185940397Y-60538792D01*
X186189472Y-60461157D01*
X186315371Y-60197117D01*
X186387339Y-59913589D01*
X186397718Y-59715061D01*
X199498000Y-59715061D01*
X199498000Y-59918939D01*
X199537774Y-60118898D01*
X199615795Y-60307256D01*
X199729063Y-60476774D01*
X199873226Y-60620937D01*
X200042744Y-60734205D01*
X200231102Y-60812226D01*
X200431061Y-60852000D01*
X200634939Y-60852000D01*
X200834898Y-60812226D01*
X201023256Y-60734205D01*
X201052669Y-60714552D01*
X201023446Y-60785102D01*
X200983672Y-60985061D01*
X200983672Y-61188939D01*
X201023446Y-61388898D01*
X201101467Y-61577256D01*
X201214735Y-61746774D01*
X201358898Y-61890937D01*
X201528416Y-62004205D01*
X201716774Y-62082226D01*
X201916733Y-62122000D01*
X202120611Y-62122000D01*
X202320570Y-62082226D01*
X202508928Y-62004205D01*
X202678446Y-61890937D01*
X202822609Y-61746774D01*
X202935877Y-61577256D01*
X203013898Y-61388898D01*
X203053672Y-61188939D01*
X203053672Y-60985061D01*
X203035047Y-60891426D01*
X204471474Y-59455000D01*
X204533611Y-59455000D01*
X204733570Y-59415226D01*
X204921928Y-59337205D01*
X205091446Y-59223937D01*
X205235609Y-59079774D01*
X205348877Y-58910256D01*
X205426898Y-58721898D01*
X205466672Y-58521939D01*
X205466672Y-58318061D01*
X205426898Y-58118102D01*
X205348877Y-57929744D01*
X205235609Y-57760226D01*
X205091446Y-57616063D01*
X204921928Y-57502795D01*
X204733570Y-57424774D01*
X204533611Y-57385000D01*
X204329733Y-57385000D01*
X204129774Y-57424774D01*
X203941416Y-57502795D01*
X203882924Y-57541878D01*
X204001802Y-57423000D01*
X204063939Y-57423000D01*
X204263898Y-57383226D01*
X204452256Y-57305205D01*
X204621774Y-57191937D01*
X204765937Y-57047774D01*
X204879205Y-56878256D01*
X204957226Y-56689898D01*
X204997000Y-56489939D01*
X204997000Y-56286061D01*
X204957226Y-56086102D01*
X204879205Y-55897744D01*
X204765937Y-55728226D01*
X204621774Y-55584063D01*
X204452256Y-55470795D01*
X204263898Y-55392774D01*
X204063939Y-55353000D01*
X203860061Y-55353000D01*
X203660102Y-55392774D01*
X203471744Y-55470795D01*
X203302226Y-55584063D01*
X203158063Y-55728226D01*
X203044795Y-55897744D01*
X202966774Y-56086102D01*
X202927000Y-56286061D01*
X202927000Y-56348198D01*
X200493199Y-58782000D01*
X200431061Y-58782000D01*
X200231102Y-58821774D01*
X200042744Y-58899795D01*
X199873226Y-59013063D01*
X199729063Y-59157226D01*
X199615795Y-59326744D01*
X199537774Y-59515102D01*
X199498000Y-59715061D01*
X186397718Y-59715061D01*
X186402611Y-59621469D01*
X186360599Y-59331981D01*
X186262919Y-59056253D01*
X186189472Y-58918843D01*
X185940397Y-58841208D01*
X185091605Y-59690000D01*
X184732395Y-59690000D01*
X183883603Y-58841208D01*
X183634528Y-58918843D01*
X183508629Y-59182883D01*
X183436661Y-59466411D01*
X183421389Y-59758531D01*
X181283920Y-59758531D01*
X181294258Y-54463740D01*
X183427000Y-54463740D01*
X183427000Y-54756260D01*
X183484068Y-55043158D01*
X183596010Y-55313411D01*
X183758525Y-55556632D01*
X183965368Y-55763475D01*
X184139760Y-55880000D01*
X183965368Y-55996525D01*
X183758525Y-56203368D01*
X183596010Y-56446589D01*
X183484068Y-56716842D01*
X183427000Y-57003740D01*
X183427000Y-57296260D01*
X183484068Y-57583158D01*
X183596010Y-57853411D01*
X183758525Y-58096632D01*
X183965368Y-58303475D01*
X184138729Y-58419311D01*
X184063208Y-58661603D01*
X184912000Y-59510395D01*
X185760792Y-58661603D01*
X185685271Y-58419311D01*
X185858632Y-58303475D01*
X186065475Y-58096632D01*
X186227990Y-57853411D01*
X186339932Y-57583158D01*
X186397000Y-57296260D01*
X186397000Y-57003740D01*
X186339932Y-56716842D01*
X186227990Y-56446589D01*
X186065475Y-56203368D01*
X185858632Y-55996525D01*
X185684240Y-55880000D01*
X185858632Y-55763475D01*
X186065475Y-55556632D01*
X186227990Y-55313411D01*
X186339932Y-55043158D01*
X186397000Y-54756260D01*
X186397000Y-54463740D01*
X186339932Y-54176842D01*
X186227990Y-53906589D01*
X186065475Y-53663368D01*
X185858632Y-53456525D01*
X185685271Y-53340689D01*
X185760792Y-53098397D01*
X184912000Y-52249605D01*
X184063208Y-53098397D01*
X184138729Y-53340689D01*
X183965368Y-53456525D01*
X183758525Y-53663368D01*
X183596010Y-53906589D01*
X183484068Y-54176842D01*
X183427000Y-54463740D01*
X181294258Y-54463740D01*
X181298799Y-52138531D01*
X183421389Y-52138531D01*
X183463401Y-52428019D01*
X183561081Y-52703747D01*
X183634528Y-52841157D01*
X183883603Y-52918792D01*
X184732395Y-52070000D01*
X185091605Y-52070000D01*
X185940397Y-52918792D01*
X186189472Y-52841157D01*
X186315371Y-52577117D01*
X186387339Y-52293589D01*
X186402611Y-52001469D01*
X186373092Y-51798061D01*
X191459000Y-51798061D01*
X191459000Y-52001939D01*
X191498774Y-52201898D01*
X191576795Y-52390256D01*
X191690063Y-52559774D01*
X191834226Y-52703937D01*
X192003744Y-52817205D01*
X192192102Y-52895226D01*
X192392061Y-52935000D01*
X192595939Y-52935000D01*
X192795898Y-52895226D01*
X192856000Y-52870331D01*
X192856000Y-52890939D01*
X192895774Y-53090898D01*
X192973795Y-53279256D01*
X193087063Y-53448774D01*
X193231226Y-53592937D01*
X193400744Y-53706205D01*
X193589102Y-53784226D01*
X193789061Y-53824000D01*
X193992939Y-53824000D01*
X194192898Y-53784226D01*
X194291536Y-53743369D01*
X194291000Y-53746061D01*
X194291000Y-53949939D01*
X194330774Y-54149898D01*
X194408795Y-54338256D01*
X194522063Y-54507774D01*
X194666226Y-54651937D01*
X194835744Y-54765205D01*
X195024102Y-54843226D01*
X195224061Y-54883000D01*
X195427939Y-54883000D01*
X195461807Y-54876263D01*
X195434000Y-55016061D01*
X195434000Y-55219939D01*
X195473774Y-55419898D01*
X195551795Y-55608256D01*
X195665063Y-55777774D01*
X195809226Y-55921937D01*
X195978744Y-56035205D01*
X196167102Y-56113226D01*
X196367061Y-56153000D01*
X196570939Y-56153000D01*
X196770898Y-56113226D01*
X196959256Y-56035205D01*
X197128774Y-55921937D01*
X197272937Y-55777774D01*
X197386205Y-55608256D01*
X197464226Y-55419898D01*
X197504000Y-55219939D01*
X197504000Y-55157801D01*
X201334802Y-51327000D01*
X201396939Y-51327000D01*
X201596898Y-51287226D01*
X201785256Y-51209205D01*
X201954774Y-51095937D01*
X202098937Y-50951774D01*
X202212205Y-50782256D01*
X202290226Y-50593898D01*
X202330000Y-50393939D01*
X202330000Y-50190061D01*
X202290226Y-49990102D01*
X202212205Y-49801744D01*
X202098937Y-49632226D01*
X201954774Y-49488063D01*
X201785256Y-49374795D01*
X201596898Y-49296774D01*
X201396939Y-49257000D01*
X201193061Y-49257000D01*
X200993102Y-49296774D01*
X200933000Y-49321669D01*
X200933000Y-49174061D01*
X200893226Y-48974102D01*
X200815205Y-48785744D01*
X200701937Y-48616226D01*
X200557774Y-48472063D01*
X200388256Y-48358795D01*
X200199898Y-48280774D01*
X199999939Y-48241000D01*
X199796061Y-48241000D01*
X199596102Y-48280774D01*
X199407744Y-48358795D01*
X199238892Y-48471618D01*
X199244000Y-48445939D01*
X199244000Y-48242061D01*
X199204226Y-48042102D01*
X199126205Y-47853744D01*
X199012937Y-47684226D01*
X198868774Y-47540063D01*
X198699256Y-47426795D01*
X198510898Y-47348774D01*
X198310939Y-47309000D01*
X198107061Y-47309000D01*
X197970634Y-47336137D01*
X197934226Y-47153102D01*
X197856205Y-46964744D01*
X197742937Y-46795226D01*
X197598774Y-46651063D01*
X197429256Y-46537795D01*
X197240898Y-46459774D01*
X197040939Y-46420000D01*
X196837061Y-46420000D01*
X196637102Y-46459774D01*
X196448744Y-46537795D01*
X196279226Y-46651063D01*
X196135063Y-46795226D01*
X196021795Y-46964744D01*
X195943774Y-47153102D01*
X195904000Y-47353061D01*
X195904000Y-47415198D01*
X192454198Y-50865000D01*
X192392061Y-50865000D01*
X192192102Y-50904774D01*
X192003744Y-50982795D01*
X191834226Y-51096063D01*
X191690063Y-51240226D01*
X191576795Y-51409744D01*
X191498774Y-51598102D01*
X191459000Y-51798061D01*
X186373092Y-51798061D01*
X186360599Y-51711981D01*
X186262919Y-51436253D01*
X186189472Y-51298843D01*
X185940397Y-51221208D01*
X185091605Y-52070000D01*
X184732395Y-52070000D01*
X183883603Y-51221208D01*
X183634528Y-51298843D01*
X183508629Y-51562883D01*
X183436661Y-51846411D01*
X183421389Y-52138531D01*
X181298799Y-52138531D01*
X181310512Y-46140000D01*
X183423928Y-46140000D01*
X183423928Y-47840000D01*
X183436188Y-47964482D01*
X183472498Y-48084180D01*
X183531463Y-48194494D01*
X183610815Y-48291185D01*
X183707506Y-48370537D01*
X183817820Y-48429502D01*
X183890380Y-48451513D01*
X183758525Y-48583368D01*
X183596010Y-48826589D01*
X183484068Y-49096842D01*
X183427000Y-49383740D01*
X183427000Y-49676260D01*
X183484068Y-49963158D01*
X183596010Y-50233411D01*
X183758525Y-50476632D01*
X183965368Y-50683475D01*
X184138729Y-50799311D01*
X184063208Y-51041603D01*
X184912000Y-51890395D01*
X185760792Y-51041603D01*
X185685271Y-50799311D01*
X185858632Y-50683475D01*
X186065475Y-50476632D01*
X186227990Y-50233411D01*
X186339932Y-49963158D01*
X186397000Y-49676260D01*
X186397000Y-49383740D01*
X186339932Y-49096842D01*
X186227990Y-48826589D01*
X186065475Y-48583368D01*
X185933620Y-48451513D01*
X186006180Y-48429502D01*
X186116494Y-48370537D01*
X186213185Y-48291185D01*
X186292537Y-48194494D01*
X186351502Y-48084180D01*
X186387812Y-47964482D01*
X186400072Y-47840000D01*
X186400072Y-46140000D01*
X186398310Y-46122111D01*
X187244503Y-46968305D01*
X187268301Y-46997303D01*
X187384026Y-47092276D01*
X187516055Y-47162848D01*
X187659316Y-47206305D01*
X187770969Y-47217302D01*
X187770977Y-47217302D01*
X187808302Y-47220978D01*
X187845627Y-47217302D01*
X193281376Y-47217302D01*
X193318698Y-47220978D01*
X193356020Y-47217302D01*
X193356031Y-47217302D01*
X193467684Y-47206305D01*
X193610945Y-47162848D01*
X193742974Y-47092276D01*
X193844446Y-47009000D01*
X193903939Y-47009000D01*
X194103898Y-46969226D01*
X194292256Y-46891205D01*
X194461774Y-46777937D01*
X194605937Y-46633774D01*
X194719205Y-46464256D01*
X194797226Y-46275898D01*
X194837000Y-46075939D01*
X194837000Y-45872061D01*
X194797226Y-45672102D01*
X194719205Y-45483744D01*
X194605937Y-45314226D01*
X194461774Y-45170063D01*
X194292256Y-45056795D01*
X194103898Y-44978774D01*
X193903939Y-44939000D01*
X193700061Y-44939000D01*
X193500102Y-44978774D01*
X193311744Y-45056795D01*
X193142226Y-45170063D01*
X192998063Y-45314226D01*
X192884795Y-45483744D01*
X192806774Y-45672102D01*
X192801761Y-45697302D01*
X192284699Y-45697302D01*
X192284699Y-45630362D01*
X192244925Y-45430403D01*
X192166904Y-45242045D01*
X192053636Y-45072527D01*
X192009699Y-45028590D01*
X192009699Y-44404012D01*
X192065937Y-44347774D01*
X192179205Y-44178256D01*
X192257226Y-43989898D01*
X192297000Y-43789939D01*
X192297000Y-43586061D01*
X192257226Y-43386102D01*
X192179205Y-43197744D01*
X192065937Y-43028226D01*
X191921774Y-42884063D01*
X191752256Y-42770795D01*
X191563898Y-42692774D01*
X191363939Y-42653000D01*
X191160061Y-42653000D01*
X190960102Y-42692774D01*
X190771744Y-42770795D01*
X190602226Y-42884063D01*
X190569603Y-42916686D01*
X190528205Y-42816744D01*
X190414937Y-42647226D01*
X190270774Y-42503063D01*
X190101256Y-42389795D01*
X189912898Y-42311774D01*
X189712939Y-42272000D01*
X189509061Y-42272000D01*
X189309102Y-42311774D01*
X189120744Y-42389795D01*
X188976000Y-42486510D01*
X188831256Y-42389795D01*
X188642898Y-42311774D01*
X188442939Y-42272000D01*
X188239061Y-42272000D01*
X188039102Y-42311774D01*
X187850744Y-42389795D01*
X187681226Y-42503063D01*
X187537063Y-42647226D01*
X187519789Y-42673078D01*
X187476774Y-42630063D01*
X187307256Y-42516795D01*
X187118898Y-42438774D01*
X186918939Y-42399000D01*
X186715061Y-42399000D01*
X186515102Y-42438774D01*
X186326744Y-42516795D01*
X186157226Y-42630063D01*
X186013063Y-42774226D01*
X185899795Y-42943744D01*
X185821774Y-43132102D01*
X185782000Y-43332061D01*
X185782000Y-43535939D01*
X185821774Y-43735898D01*
X185899795Y-43924256D01*
X186013063Y-44093774D01*
X186057001Y-44137712D01*
X186057000Y-45428677D01*
X186053324Y-45466000D01*
X186057000Y-45503322D01*
X186057000Y-45503332D01*
X186064728Y-45581793D01*
X186006180Y-45550498D01*
X185886482Y-45514188D01*
X185762000Y-45501928D01*
X184062000Y-45501928D01*
X183937518Y-45514188D01*
X183817820Y-45550498D01*
X183707506Y-45609463D01*
X183610815Y-45688815D01*
X183531463Y-45785506D01*
X183472498Y-45895820D01*
X183436188Y-46015518D01*
X183423928Y-46140000D01*
X181310512Y-46140000D01*
X181334434Y-33889740D01*
X181903000Y-33889740D01*
X181903000Y-34182260D01*
X181960068Y-34469158D01*
X182072010Y-34739411D01*
X182234525Y-34982632D01*
X182441368Y-35189475D01*
X182615760Y-35306000D01*
X182441368Y-35422525D01*
X182234525Y-35629368D01*
X182072010Y-35872589D01*
X181960068Y-36142842D01*
X181903000Y-36429740D01*
X181903000Y-36722260D01*
X181960068Y-37009158D01*
X182072010Y-37279411D01*
X182234525Y-37522632D01*
X182441368Y-37729475D01*
X182684589Y-37891990D01*
X182954842Y-38003932D01*
X183241740Y-38061000D01*
X183534260Y-38061000D01*
X183821158Y-38003932D01*
X184091411Y-37891990D01*
X184334632Y-37729475D01*
X184541475Y-37522632D01*
X184703990Y-37279411D01*
X184787000Y-37079005D01*
X184787001Y-38316657D01*
X184787000Y-38316667D01*
X184787000Y-38558676D01*
X184783324Y-38595998D01*
X184787000Y-38633320D01*
X184787000Y-38633330D01*
X184797997Y-38744983D01*
X184841454Y-38888244D01*
X184912026Y-39020274D01*
X184927766Y-39039453D01*
X185006999Y-39135999D01*
X185036003Y-39159802D01*
X186132201Y-40256001D01*
X186156000Y-40285000D01*
X186271725Y-40379973D01*
X186403754Y-40450545D01*
X186547015Y-40494002D01*
X186658668Y-40504999D01*
X186658676Y-40504999D01*
X186696001Y-40508675D01*
X186733326Y-40504999D01*
X197537288Y-40504999D01*
X197587226Y-40554937D01*
X197756744Y-40668205D01*
X197945102Y-40746226D01*
X198145061Y-40786000D01*
X198348939Y-40786000D01*
X198548898Y-40746226D01*
X198737256Y-40668205D01*
X198906774Y-40554937D01*
X199050937Y-40410774D01*
X199164205Y-40241256D01*
X199242226Y-40052898D01*
X199282000Y-39852939D01*
X199282000Y-39649061D01*
X199242226Y-39449102D01*
X199170286Y-39275425D01*
X199177937Y-39267774D01*
X199195211Y-39241922D01*
X199238226Y-39284937D01*
X199407744Y-39398205D01*
X199596102Y-39476226D01*
X199796061Y-39516000D01*
X199999939Y-39516000D01*
X200199898Y-39476226D01*
X200388256Y-39398205D01*
X200557774Y-39284937D01*
X200676920Y-39165791D01*
X200745063Y-39267774D01*
X200889226Y-39411937D01*
X201058744Y-39525205D01*
X201247102Y-39603226D01*
X201447061Y-39643000D01*
X201650939Y-39643000D01*
X201850898Y-39603226D01*
X202039256Y-39525205D01*
X202208774Y-39411937D01*
X202352937Y-39267774D01*
X202466205Y-39098256D01*
X202544226Y-38909898D01*
X202584000Y-38709939D01*
X202584000Y-38506061D01*
X202544226Y-38306102D01*
X202466205Y-38117744D01*
X202352937Y-37948226D01*
X202208774Y-37804063D01*
X202039256Y-37690795D01*
X201850898Y-37612774D01*
X201650939Y-37573000D01*
X201588802Y-37573000D01*
X196594000Y-32578199D01*
X196594000Y-31429801D01*
X197524802Y-30499000D01*
X197586939Y-30499000D01*
X197786898Y-30459226D01*
X197975256Y-30381205D01*
X198144774Y-30267937D01*
X198288937Y-30123774D01*
X198402205Y-29954256D01*
X198480226Y-29765898D01*
X198520000Y-29565939D01*
X198520000Y-29362061D01*
X198480226Y-29162102D01*
X198402205Y-28973744D01*
X198288937Y-28804226D01*
X198144774Y-28660063D01*
X197975256Y-28546795D01*
X197786898Y-28468774D01*
X197586939Y-28429000D01*
X197383061Y-28429000D01*
X197183102Y-28468774D01*
X196994744Y-28546795D01*
X196825226Y-28660063D01*
X196755405Y-28729884D01*
X196751205Y-28719744D01*
X196637937Y-28550226D01*
X196493774Y-28406063D01*
X196324256Y-28292795D01*
X196135898Y-28214774D01*
X195935939Y-28175000D01*
X195732061Y-28175000D01*
X195532102Y-28214774D01*
X195343744Y-28292795D01*
X195199000Y-28389510D01*
X195054256Y-28292795D01*
X194865898Y-28214774D01*
X194665939Y-28175000D01*
X194462061Y-28175000D01*
X194262102Y-28214774D01*
X194073744Y-28292795D01*
X193904226Y-28406063D01*
X193860289Y-28450000D01*
X193362711Y-28450000D01*
X193318774Y-28406063D01*
X193149256Y-28292795D01*
X192960898Y-28214774D01*
X192760939Y-28175000D01*
X192557061Y-28175000D01*
X192357102Y-28214774D01*
X192168744Y-28292795D01*
X191999226Y-28406063D01*
X191855063Y-28550226D01*
X191741795Y-28719744D01*
X191663774Y-28908102D01*
X191624000Y-29108061D01*
X191624000Y-29311939D01*
X191663774Y-29511898D01*
X191741795Y-29700256D01*
X191855063Y-29869774D01*
X191999226Y-30013937D01*
X192168744Y-30127205D01*
X192357102Y-30205226D01*
X192557061Y-30245000D01*
X192760939Y-30245000D01*
X192960898Y-30205226D01*
X193149256Y-30127205D01*
X193318774Y-30013937D01*
X193362711Y-29970000D01*
X193860289Y-29970000D01*
X193904226Y-30013937D01*
X194073744Y-30127205D01*
X194262102Y-30205226D01*
X194312001Y-30215151D01*
X194312000Y-33051992D01*
X194308324Y-33089315D01*
X194312000Y-33126637D01*
X194312000Y-33126647D01*
X194322997Y-33238300D01*
X194346954Y-33317276D01*
X194366454Y-33381561D01*
X194437026Y-33513591D01*
X194476871Y-33562141D01*
X194531999Y-33629316D01*
X194561003Y-33653119D01*
X198482111Y-37574228D01*
X198475939Y-37573000D01*
X198272061Y-37573000D01*
X198072102Y-37612774D01*
X197883744Y-37690795D01*
X197714226Y-37804063D01*
X197670289Y-37848000D01*
X188155711Y-37848000D01*
X188111774Y-37804063D01*
X187942256Y-37690795D01*
X187753898Y-37612774D01*
X187553939Y-37573000D01*
X187350061Y-37573000D01*
X187150102Y-37612774D01*
X186961744Y-37690795D01*
X186792226Y-37804063D01*
X186648063Y-37948226D01*
X186534795Y-38117744D01*
X186456774Y-38306102D01*
X186436057Y-38410254D01*
X186307000Y-38281197D01*
X186307000Y-36716617D01*
X186334061Y-36722000D01*
X186537939Y-36722000D01*
X186737898Y-36682226D01*
X186926256Y-36604205D01*
X187095774Y-36490937D01*
X187139711Y-36447000D01*
X187473289Y-36447000D01*
X187517226Y-36490937D01*
X187686744Y-36604205D01*
X187875102Y-36682226D01*
X188075061Y-36722000D01*
X188278939Y-36722000D01*
X188478898Y-36682226D01*
X188667256Y-36604205D01*
X188836774Y-36490937D01*
X188980937Y-36346774D01*
X189094205Y-36177256D01*
X189172226Y-35988898D01*
X189212000Y-35788939D01*
X189212000Y-35585061D01*
X189172226Y-35385102D01*
X189094205Y-35196744D01*
X188980937Y-35027226D01*
X188836774Y-34883063D01*
X188667256Y-34769795D01*
X188478898Y-34691774D01*
X188278939Y-34652000D01*
X188075061Y-34652000D01*
X187875102Y-34691774D01*
X187686744Y-34769795D01*
X187517226Y-34883063D01*
X187473289Y-34927000D01*
X187139711Y-34927000D01*
X187095774Y-34883063D01*
X186926256Y-34769795D01*
X186737898Y-34691774D01*
X186537939Y-34652000D01*
X186334061Y-34652000D01*
X186134102Y-34691774D01*
X185945744Y-34769795D01*
X185776226Y-34883063D01*
X185632063Y-35027226D01*
X185560752Y-35133950D01*
X184829209Y-34402408D01*
X184873000Y-34182260D01*
X184873000Y-33889740D01*
X184815932Y-33602842D01*
X184703990Y-33332589D01*
X184541475Y-33089368D01*
X184334632Y-32882525D01*
X184152466Y-32760805D01*
X184269355Y-32691178D01*
X184485588Y-32496269D01*
X184659641Y-32262920D01*
X184784825Y-32000099D01*
X184829476Y-31852890D01*
X184708155Y-31623000D01*
X183515000Y-31623000D01*
X183515000Y-31643000D01*
X183261000Y-31643000D01*
X183261000Y-31623000D01*
X182067845Y-31623000D01*
X181946524Y-31852890D01*
X181991175Y-32000099D01*
X182116359Y-32262920D01*
X182290412Y-32496269D01*
X182506645Y-32691178D01*
X182623534Y-32760805D01*
X182441368Y-32882525D01*
X182234525Y-33089368D01*
X182072010Y-33332589D01*
X181960068Y-33602842D01*
X181903000Y-33889740D01*
X181334434Y-33889740D01*
X181350688Y-25566000D01*
X181899928Y-25566000D01*
X181899928Y-27266000D01*
X181912188Y-27390482D01*
X181948498Y-27510180D01*
X182007463Y-27620494D01*
X182086815Y-27717185D01*
X182183506Y-27796537D01*
X182293820Y-27855502D01*
X182366380Y-27877513D01*
X182234525Y-28009368D01*
X182072010Y-28252589D01*
X181960068Y-28522842D01*
X181903000Y-28809740D01*
X181903000Y-29102260D01*
X181960068Y-29389158D01*
X182072010Y-29659411D01*
X182234525Y-29902632D01*
X182441368Y-30109475D01*
X182623534Y-30231195D01*
X182506645Y-30300822D01*
X182290412Y-30495731D01*
X182116359Y-30729080D01*
X181991175Y-30991901D01*
X181946524Y-31139110D01*
X182067845Y-31369000D01*
X183261000Y-31369000D01*
X183261000Y-31349000D01*
X183515000Y-31349000D01*
X183515000Y-31369000D01*
X184708155Y-31369000D01*
X184829476Y-31139110D01*
X184784825Y-30991901D01*
X184659641Y-30729080D01*
X184485588Y-30495731D01*
X184269355Y-30300822D01*
X184152466Y-30231195D01*
X184334632Y-30109475D01*
X184541475Y-29902632D01*
X184703990Y-29659411D01*
X184815932Y-29389158D01*
X184873000Y-29102260D01*
X184873000Y-28809740D01*
X184815932Y-28522842D01*
X184703990Y-28252589D01*
X184541475Y-28009368D01*
X184409620Y-27877513D01*
X184482180Y-27855502D01*
X184592494Y-27796537D01*
X184689185Y-27717185D01*
X184768537Y-27620494D01*
X184827502Y-27510180D01*
X184863812Y-27390482D01*
X184876072Y-27266000D01*
X184876072Y-26264891D01*
X188296519Y-26264891D01*
X188393843Y-26539252D01*
X188542822Y-26789355D01*
X188737731Y-27005588D01*
X188971080Y-27179641D01*
X189233901Y-27304825D01*
X189381110Y-27349476D01*
X189611000Y-27228155D01*
X189611000Y-26035000D01*
X188417186Y-26035000D01*
X188296519Y-26264891D01*
X184876072Y-26264891D01*
X184876072Y-25566000D01*
X184874606Y-25551109D01*
X188296519Y-25551109D01*
X188417186Y-25781000D01*
X189611000Y-25781000D01*
X189611000Y-24587845D01*
X189865000Y-24587845D01*
X189865000Y-25781000D01*
X189885000Y-25781000D01*
X189885000Y-26035000D01*
X189865000Y-26035000D01*
X189865000Y-27228155D01*
X190094890Y-27349476D01*
X190242099Y-27304825D01*
X190504920Y-27179641D01*
X190738269Y-27005588D01*
X190814034Y-26921534D01*
X190838498Y-27002180D01*
X190897463Y-27112494D01*
X190976815Y-27209185D01*
X191073506Y-27288537D01*
X191183820Y-27347502D01*
X191303518Y-27383812D01*
X191428000Y-27396072D01*
X193128000Y-27396072D01*
X193252482Y-27383812D01*
X193372180Y-27347502D01*
X193482494Y-27288537D01*
X193579185Y-27209185D01*
X193658537Y-27112494D01*
X193717502Y-27002180D01*
X193753812Y-26882482D01*
X193766072Y-26758000D01*
X193766072Y-25058000D01*
X193753812Y-24933518D01*
X193717502Y-24813820D01*
X193658537Y-24703506D01*
X193579185Y-24606815D01*
X193482494Y-24527463D01*
X193372180Y-24468498D01*
X193252482Y-24432188D01*
X193128000Y-24419928D01*
X191428000Y-24419928D01*
X191303518Y-24432188D01*
X191183820Y-24468498D01*
X191073506Y-24527463D01*
X190976815Y-24606815D01*
X190897463Y-24703506D01*
X190838498Y-24813820D01*
X190814034Y-24894466D01*
X190738269Y-24810412D01*
X190504920Y-24636359D01*
X190242099Y-24511175D01*
X190094890Y-24466524D01*
X189865000Y-24587845D01*
X189611000Y-24587845D01*
X189381110Y-24466524D01*
X189233901Y-24511175D01*
X188971080Y-24636359D01*
X188737731Y-24810412D01*
X188542822Y-25026645D01*
X188393843Y-25276748D01*
X188296519Y-25551109D01*
X184874606Y-25551109D01*
X184863812Y-25441518D01*
X184827502Y-25321820D01*
X184768537Y-25211506D01*
X184689185Y-25114815D01*
X184592494Y-25035463D01*
X184482180Y-24976498D01*
X184362482Y-24940188D01*
X184238000Y-24927928D01*
X182538000Y-24927928D01*
X182413518Y-24940188D01*
X182293820Y-24976498D01*
X182183506Y-25035463D01*
X182086815Y-25114815D01*
X182007463Y-25211506D01*
X181948498Y-25321820D01*
X181912188Y-25441518D01*
X181899928Y-25566000D01*
X181350688Y-25566000D01*
X181354834Y-23443000D01*
X214120834Y-23443000D01*
X213995248Y-87757000D01*
G37*
X213995248Y-87757000D02*
X181229248Y-87757000D01*
X181242209Y-81118967D01*
X184143000Y-81118967D01*
X184143000Y-81441033D01*
X184205832Y-81756912D01*
X184329082Y-82054463D01*
X184508013Y-82322252D01*
X184735748Y-82549987D01*
X185003537Y-82728918D01*
X185301088Y-82852168D01*
X185616967Y-82915000D01*
X185939033Y-82915000D01*
X186254912Y-82852168D01*
X186552463Y-82728918D01*
X186820252Y-82549987D01*
X187047987Y-82322252D01*
X187226918Y-82054463D01*
X187350168Y-81756912D01*
X187413000Y-81441033D01*
X187413000Y-81118967D01*
X190643000Y-81118967D01*
X190643000Y-81441033D01*
X190705832Y-81756912D01*
X190829082Y-82054463D01*
X191008013Y-82322252D01*
X191235748Y-82549987D01*
X191503537Y-82728918D01*
X191801088Y-82852168D01*
X192116967Y-82915000D01*
X192439033Y-82915000D01*
X192754912Y-82852168D01*
X193052463Y-82728918D01*
X193320252Y-82549987D01*
X193547987Y-82322252D01*
X193726918Y-82054463D01*
X193850168Y-81756912D01*
X193913000Y-81441033D01*
X193913000Y-81118967D01*
X195827000Y-81118967D01*
X195827000Y-81441033D01*
X195889832Y-81756912D01*
X196013082Y-82054463D01*
X196192013Y-82322252D01*
X196419748Y-82549987D01*
X196687537Y-82728918D01*
X196985088Y-82852168D01*
X197300967Y-82915000D01*
X197623033Y-82915000D01*
X197938912Y-82852168D01*
X198236463Y-82728918D01*
X198504252Y-82549987D01*
X198731987Y-82322252D01*
X198910918Y-82054463D01*
X199034168Y-81756912D01*
X199097000Y-81441033D01*
X199097000Y-81118967D01*
X202327000Y-81118967D01*
X202327000Y-81441033D01*
X202389832Y-81756912D01*
X202513082Y-82054463D01*
X202692013Y-82322252D01*
X202919748Y-82549987D01*
X203187537Y-82728918D01*
X203485088Y-82852168D01*
X203800967Y-82915000D01*
X204123033Y-82915000D01*
X204438912Y-82852168D01*
X204736463Y-82728918D01*
X205004252Y-82549987D01*
X205231987Y-82322252D01*
X205410918Y-82054463D01*
X205534168Y-81756912D01*
X205597000Y-81441033D01*
X205597000Y-81118967D01*
X205534168Y-80803088D01*
X205410918Y-80505537D01*
X205231987Y-80237748D01*
X205004252Y-80010013D01*
X204736463Y-79831082D01*
X204438912Y-79707832D01*
X204123033Y-79645000D01*
X203800967Y-79645000D01*
X203485088Y-79707832D01*
X203187537Y-79831082D01*
X202919748Y-80010013D01*
X202692013Y-80237748D01*
X202513082Y-80505537D01*
X202389832Y-80803088D01*
X202327000Y-81118967D01*
X199097000Y-81118967D01*
X199034168Y-80803088D01*
X198910918Y-80505537D01*
X198731987Y-80237748D01*
X198504252Y-80010013D01*
X198236463Y-79831082D01*
X197938912Y-79707832D01*
X197623033Y-79645000D01*
X197300967Y-79645000D01*
X196985088Y-79707832D01*
X196687537Y-79831082D01*
X196419748Y-80010013D01*
X196192013Y-80237748D01*
X196013082Y-80505537D01*
X195889832Y-80803088D01*
X195827000Y-81118967D01*
X193913000Y-81118967D01*
X193850168Y-80803088D01*
X193726918Y-80505537D01*
X193547987Y-80237748D01*
X193320252Y-80010013D01*
X193052463Y-79831082D01*
X192754912Y-79707832D01*
X192439033Y-79645000D01*
X192116967Y-79645000D01*
X191801088Y-79707832D01*
X191503537Y-79831082D01*
X191235748Y-80010013D01*
X191008013Y-80237748D01*
X190829082Y-80505537D01*
X190705832Y-80803088D01*
X190643000Y-81118967D01*
X187413000Y-81118967D01*
X187350168Y-80803088D01*
X187226918Y-80505537D01*
X187047987Y-80237748D01*
X186820252Y-80010013D01*
X186552463Y-79831082D01*
X186254912Y-79707832D01*
X185939033Y-79645000D01*
X185616967Y-79645000D01*
X185301088Y-79707832D01*
X185003537Y-79831082D01*
X184735748Y-80010013D01*
X184508013Y-80237748D01*
X184329082Y-80505537D01*
X184205832Y-80803088D01*
X184143000Y-81118967D01*
X181242209Y-81118967D01*
X181250996Y-76618967D01*
X184143000Y-76618967D01*
X184143000Y-76941033D01*
X184205832Y-77256912D01*
X184329082Y-77554463D01*
X184508013Y-77822252D01*
X184735748Y-78049987D01*
X185003537Y-78228918D01*
X185301088Y-78352168D01*
X185616967Y-78415000D01*
X185939033Y-78415000D01*
X186254912Y-78352168D01*
X186552463Y-78228918D01*
X186820252Y-78049987D01*
X187047987Y-77822252D01*
X187226918Y-77554463D01*
X187350168Y-77256912D01*
X187413000Y-76941033D01*
X187413000Y-76618967D01*
X190643000Y-76618967D01*
X190643000Y-76941033D01*
X190705832Y-77256912D01*
X190829082Y-77554463D01*
X191008013Y-77822252D01*
X191235748Y-78049987D01*
X191503537Y-78228918D01*
X191801088Y-78352168D01*
X192116967Y-78415000D01*
X192439033Y-78415000D01*
X192754912Y-78352168D01*
X193052463Y-78228918D01*
X193320252Y-78049987D01*
X193547987Y-77822252D01*
X193726918Y-77554463D01*
X193850168Y-77256912D01*
X193913000Y-76941033D01*
X193913000Y-76618967D01*
X195827000Y-76618967D01*
X195827000Y-76941033D01*
X195889832Y-77256912D01*
X196013082Y-77554463D01*
X196192013Y-77822252D01*
X196419748Y-78049987D01*
X196687537Y-78228918D01*
X196985088Y-78352168D01*
X197300967Y-78415000D01*
X197623033Y-78415000D01*
X197938912Y-78352168D01*
X198236463Y-78228918D01*
X198504252Y-78049987D01*
X198731987Y-77822252D01*
X198910918Y-77554463D01*
X199034168Y-77256912D01*
X199097000Y-76941033D01*
X199097000Y-76618967D01*
X202327000Y-76618967D01*
X202327000Y-76941033D01*
X202389832Y-77256912D01*
X202513082Y-77554463D01*
X202692013Y-77822252D01*
X202919748Y-78049987D01*
X203187537Y-78228918D01*
X203485088Y-78352168D01*
X203800967Y-78415000D01*
X204123033Y-78415000D01*
X204438912Y-78352168D01*
X204736463Y-78228918D01*
X205004252Y-78049987D01*
X205231987Y-77822252D01*
X205410918Y-77554463D01*
X205534168Y-77256912D01*
X205597000Y-76941033D01*
X205597000Y-76618967D01*
X205534168Y-76303088D01*
X205410918Y-76005537D01*
X205231987Y-75737748D01*
X205004252Y-75510013D01*
X204736463Y-75331082D01*
X204438912Y-75207832D01*
X204123033Y-75145000D01*
X203800967Y-75145000D01*
X203485088Y-75207832D01*
X203187537Y-75331082D01*
X202919748Y-75510013D01*
X202692013Y-75737748D01*
X202513082Y-76005537D01*
X202389832Y-76303088D01*
X202327000Y-76618967D01*
X199097000Y-76618967D01*
X199034168Y-76303088D01*
X198910918Y-76005537D01*
X198731987Y-75737748D01*
X198504252Y-75510013D01*
X198236463Y-75331082D01*
X197938912Y-75207832D01*
X197623033Y-75145000D01*
X197300967Y-75145000D01*
X196985088Y-75207832D01*
X196687537Y-75331082D01*
X196419748Y-75510013D01*
X196192013Y-75737748D01*
X196013082Y-76005537D01*
X195889832Y-76303088D01*
X195827000Y-76618967D01*
X193913000Y-76618967D01*
X193850168Y-76303088D01*
X193726918Y-76005537D01*
X193547987Y-75737748D01*
X193341286Y-75531047D01*
X193373102Y-75544226D01*
X193573061Y-75584000D01*
X193776939Y-75584000D01*
X193976898Y-75544226D01*
X194165256Y-75466205D01*
X194334774Y-75352937D01*
X194478937Y-75208774D01*
X194592205Y-75039256D01*
X194670226Y-74850898D01*
X194710000Y-74650939D01*
X194710000Y-74588801D01*
X195746802Y-73552000D01*
X195808939Y-73552000D01*
X196008898Y-73512226D01*
X196197256Y-73434205D01*
X196366774Y-73320937D01*
X196510937Y-73176774D01*
X196624205Y-73007256D01*
X196702226Y-72818898D01*
X196742000Y-72618939D01*
X196742000Y-72415061D01*
X196702226Y-72215102D01*
X196624205Y-72026744D01*
X196510937Y-71857226D01*
X196366774Y-71713063D01*
X196197256Y-71599795D01*
X196008898Y-71521774D01*
X195808939Y-71482000D01*
X195605061Y-71482000D01*
X195405102Y-71521774D01*
X195216744Y-71599795D01*
X195047226Y-71713063D01*
X194903063Y-71857226D01*
X194789795Y-72026744D01*
X194711774Y-72215102D01*
X194672000Y-72415061D01*
X194672000Y-72477198D01*
X193635199Y-73514000D01*
X193573061Y-73514000D01*
X193373102Y-73553774D01*
X193184744Y-73631795D01*
X193015226Y-73745063D01*
X192871063Y-73889226D01*
X192757795Y-74058744D01*
X192679774Y-74247102D01*
X192640000Y-74447061D01*
X192640000Y-74650939D01*
X192679774Y-74850898D01*
X192757795Y-75039256D01*
X192871063Y-75208774D01*
X192951586Y-75289297D01*
X192754912Y-75207832D01*
X192439033Y-75145000D01*
X192116967Y-75145000D01*
X191801088Y-75207832D01*
X191503537Y-75331082D01*
X191235748Y-75510013D01*
X191008013Y-75737748D01*
X190829082Y-76005537D01*
X190705832Y-76303088D01*
X190643000Y-76618967D01*
X187413000Y-76618967D01*
X187350168Y-76303088D01*
X187226918Y-76005537D01*
X187047987Y-75737748D01*
X186820252Y-75510013D01*
X186552463Y-75331082D01*
X186254912Y-75207832D01*
X185939033Y-75145000D01*
X185616967Y-75145000D01*
X185301088Y-75207832D01*
X185003537Y-75331082D01*
X184735748Y-75510013D01*
X184508013Y-75737748D01*
X184329082Y-76005537D01*
X184205832Y-76303088D01*
X184143000Y-76618967D01*
X181250996Y-76618967D01*
X181260263Y-71872782D01*
X184639998Y-71872782D01*
X184639998Y-72165302D01*
X184697066Y-72452200D01*
X184809008Y-72722453D01*
X184971523Y-72965674D01*
X185178366Y-73172517D01*
X185421587Y-73335032D01*
X185691840Y-73446974D01*
X185978738Y-73504042D01*
X186271258Y-73504042D01*
X186558156Y-73446974D01*
X186828409Y-73335032D01*
X187071630Y-73172517D01*
X187278473Y-72965674D01*
X187394998Y-72791282D01*
X187511523Y-72965674D01*
X187718366Y-73172517D01*
X187961587Y-73335032D01*
X188231840Y-73446974D01*
X188518738Y-73504042D01*
X188811258Y-73504042D01*
X189098156Y-73446974D01*
X189368409Y-73335032D01*
X189611630Y-73172517D01*
X189743485Y-73040662D01*
X189765496Y-73113222D01*
X189824461Y-73223536D01*
X189903813Y-73320227D01*
X190000504Y-73399579D01*
X190110818Y-73458544D01*
X190230516Y-73494854D01*
X190354998Y-73507114D01*
X192054998Y-73507114D01*
X192179480Y-73494854D01*
X192299178Y-73458544D01*
X192409492Y-73399579D01*
X192506183Y-73320227D01*
X192585535Y-73223536D01*
X192644500Y-73113222D01*
X192680810Y-72993524D01*
X192693070Y-72869042D01*
X192693070Y-71169042D01*
X192680810Y-71044560D01*
X192644500Y-70924862D01*
X192585535Y-70814548D01*
X192506183Y-70717857D01*
X192409492Y-70638505D01*
X192299178Y-70579540D01*
X192179480Y-70543230D01*
X192054998Y-70530970D01*
X190354998Y-70530970D01*
X190230516Y-70543230D01*
X190110818Y-70579540D01*
X190000504Y-70638505D01*
X189903813Y-70717857D01*
X189824461Y-70814548D01*
X189765496Y-70924862D01*
X189743485Y-70997422D01*
X189611630Y-70865567D01*
X189368409Y-70703052D01*
X189098156Y-70591110D01*
X188811258Y-70534042D01*
X188518738Y-70534042D01*
X188231840Y-70591110D01*
X187961587Y-70703052D01*
X187718366Y-70865567D01*
X187511523Y-71072410D01*
X187394998Y-71246802D01*
X187278473Y-71072410D01*
X187071630Y-70865567D01*
X186828409Y-70703052D01*
X186558156Y-70591110D01*
X186271258Y-70534042D01*
X185978738Y-70534042D01*
X185691840Y-70591110D01*
X185421587Y-70703052D01*
X185178366Y-70865567D01*
X184971523Y-71072410D01*
X184809008Y-71315631D01*
X184697066Y-71585884D01*
X184639998Y-71872782D01*
X181260263Y-71872782D01*
X181279379Y-62083740D01*
X183427000Y-62083740D01*
X183427000Y-62376260D01*
X183484068Y-62663158D01*
X183596010Y-62933411D01*
X183758525Y-63176632D01*
X183965368Y-63383475D01*
X184139760Y-63500000D01*
X183965368Y-63616525D01*
X183758525Y-63823368D01*
X183596010Y-64066589D01*
X183484068Y-64336842D01*
X183427000Y-64623740D01*
X183427000Y-64916260D01*
X183484068Y-65203158D01*
X183596010Y-65473411D01*
X183758525Y-65716632D01*
X183965368Y-65923475D01*
X184139760Y-66040000D01*
X183965368Y-66156525D01*
X183758525Y-66363368D01*
X183596010Y-66606589D01*
X183484068Y-66876842D01*
X183427000Y-67163740D01*
X183427000Y-67456260D01*
X183484068Y-67743158D01*
X183596010Y-68013411D01*
X183758525Y-68256632D01*
X183965368Y-68463475D01*
X184208589Y-68625990D01*
X184478842Y-68737932D01*
X184765740Y-68795000D01*
X185058260Y-68795000D01*
X185345158Y-68737932D01*
X185615411Y-68625990D01*
X185858632Y-68463475D01*
X186065475Y-68256632D01*
X186227990Y-68013411D01*
X186339932Y-67743158D01*
X186397000Y-67456260D01*
X186397000Y-67163740D01*
X186339932Y-66876842D01*
X186227990Y-66606589D01*
X186065475Y-66363368D01*
X185858632Y-66156525D01*
X185684240Y-66040000D01*
X185858632Y-65923475D01*
X186065475Y-65716632D01*
X186227990Y-65473411D01*
X186339932Y-65203158D01*
X186397000Y-64916260D01*
X186397000Y-64623740D01*
X186339932Y-64336842D01*
X186227990Y-64066589D01*
X186065475Y-63823368D01*
X185858632Y-63616525D01*
X185684240Y-63500000D01*
X185858632Y-63383475D01*
X186065475Y-63176632D01*
X186227990Y-62933411D01*
X186339932Y-62663158D01*
X186397000Y-62376260D01*
X186397000Y-62083740D01*
X186339932Y-61796842D01*
X186227990Y-61526589D01*
X186065475Y-61283368D01*
X185858632Y-61076525D01*
X185685271Y-60960689D01*
X185760792Y-60718397D01*
X184912000Y-59869605D01*
X184063208Y-60718397D01*
X184138729Y-60960689D01*
X183965368Y-61076525D01*
X183758525Y-61283368D01*
X183596010Y-61526589D01*
X183484068Y-61796842D01*
X183427000Y-62083740D01*
X181279379Y-62083740D01*
X181283920Y-59758531D01*
X183421389Y-59758531D01*
X183463401Y-60048019D01*
X183561081Y-60323747D01*
X183634528Y-60461157D01*
X183883603Y-60538792D01*
X184732395Y-59690000D01*
X185091605Y-59690000D01*
X185940397Y-60538792D01*
X186189472Y-60461157D01*
X186315371Y-60197117D01*
X186387339Y-59913589D01*
X186397718Y-59715061D01*
X199498000Y-59715061D01*
X199498000Y-59918939D01*
X199537774Y-60118898D01*
X199615795Y-60307256D01*
X199729063Y-60476774D01*
X199873226Y-60620937D01*
X200042744Y-60734205D01*
X200231102Y-60812226D01*
X200431061Y-60852000D01*
X200634939Y-60852000D01*
X200834898Y-60812226D01*
X201023256Y-60734205D01*
X201052669Y-60714552D01*
X201023446Y-60785102D01*
X200983672Y-60985061D01*
X200983672Y-61188939D01*
X201023446Y-61388898D01*
X201101467Y-61577256D01*
X201214735Y-61746774D01*
X201358898Y-61890937D01*
X201528416Y-62004205D01*
X201716774Y-62082226D01*
X201916733Y-62122000D01*
X202120611Y-62122000D01*
X202320570Y-62082226D01*
X202508928Y-62004205D01*
X202678446Y-61890937D01*
X202822609Y-61746774D01*
X202935877Y-61577256D01*
X203013898Y-61388898D01*
X203053672Y-61188939D01*
X203053672Y-60985061D01*
X203035047Y-60891426D01*
X204471474Y-59455000D01*
X204533611Y-59455000D01*
X204733570Y-59415226D01*
X204921928Y-59337205D01*
X205091446Y-59223937D01*
X205235609Y-59079774D01*
X205348877Y-58910256D01*
X205426898Y-58721898D01*
X205466672Y-58521939D01*
X205466672Y-58318061D01*
X205426898Y-58118102D01*
X205348877Y-57929744D01*
X205235609Y-57760226D01*
X205091446Y-57616063D01*
X204921928Y-57502795D01*
X204733570Y-57424774D01*
X204533611Y-57385000D01*
X204329733Y-57385000D01*
X204129774Y-57424774D01*
X203941416Y-57502795D01*
X203882924Y-57541878D01*
X204001802Y-57423000D01*
X204063939Y-57423000D01*
X204263898Y-57383226D01*
X204452256Y-57305205D01*
X204621774Y-57191937D01*
X204765937Y-57047774D01*
X204879205Y-56878256D01*
X204957226Y-56689898D01*
X204997000Y-56489939D01*
X204997000Y-56286061D01*
X204957226Y-56086102D01*
X204879205Y-55897744D01*
X204765937Y-55728226D01*
X204621774Y-55584063D01*
X204452256Y-55470795D01*
X204263898Y-55392774D01*
X204063939Y-55353000D01*
X203860061Y-55353000D01*
X203660102Y-55392774D01*
X203471744Y-55470795D01*
X203302226Y-55584063D01*
X203158063Y-55728226D01*
X203044795Y-55897744D01*
X202966774Y-56086102D01*
X202927000Y-56286061D01*
X202927000Y-56348198D01*
X200493199Y-58782000D01*
X200431061Y-58782000D01*
X200231102Y-58821774D01*
X200042744Y-58899795D01*
X199873226Y-59013063D01*
X199729063Y-59157226D01*
X199615795Y-59326744D01*
X199537774Y-59515102D01*
X199498000Y-59715061D01*
X186397718Y-59715061D01*
X186402611Y-59621469D01*
X186360599Y-59331981D01*
X186262919Y-59056253D01*
X186189472Y-58918843D01*
X185940397Y-58841208D01*
X185091605Y-59690000D01*
X184732395Y-59690000D01*
X183883603Y-58841208D01*
X183634528Y-58918843D01*
X183508629Y-59182883D01*
X183436661Y-59466411D01*
X183421389Y-59758531D01*
X181283920Y-59758531D01*
X181294258Y-54463740D01*
X183427000Y-54463740D01*
X183427000Y-54756260D01*
X183484068Y-55043158D01*
X183596010Y-55313411D01*
X183758525Y-55556632D01*
X183965368Y-55763475D01*
X184139760Y-55880000D01*
X183965368Y-55996525D01*
X183758525Y-56203368D01*
X183596010Y-56446589D01*
X183484068Y-56716842D01*
X183427000Y-57003740D01*
X183427000Y-57296260D01*
X183484068Y-57583158D01*
X183596010Y-57853411D01*
X183758525Y-58096632D01*
X183965368Y-58303475D01*
X184138729Y-58419311D01*
X184063208Y-58661603D01*
X184912000Y-59510395D01*
X185760792Y-58661603D01*
X185685271Y-58419311D01*
X185858632Y-58303475D01*
X186065475Y-58096632D01*
X186227990Y-57853411D01*
X186339932Y-57583158D01*
X186397000Y-57296260D01*
X186397000Y-57003740D01*
X186339932Y-56716842D01*
X186227990Y-56446589D01*
X186065475Y-56203368D01*
X185858632Y-55996525D01*
X185684240Y-55880000D01*
X185858632Y-55763475D01*
X186065475Y-55556632D01*
X186227990Y-55313411D01*
X186339932Y-55043158D01*
X186397000Y-54756260D01*
X186397000Y-54463740D01*
X186339932Y-54176842D01*
X186227990Y-53906589D01*
X186065475Y-53663368D01*
X185858632Y-53456525D01*
X185685271Y-53340689D01*
X185760792Y-53098397D01*
X184912000Y-52249605D01*
X184063208Y-53098397D01*
X184138729Y-53340689D01*
X183965368Y-53456525D01*
X183758525Y-53663368D01*
X183596010Y-53906589D01*
X183484068Y-54176842D01*
X183427000Y-54463740D01*
X181294258Y-54463740D01*
X181298799Y-52138531D01*
X183421389Y-52138531D01*
X183463401Y-52428019D01*
X183561081Y-52703747D01*
X183634528Y-52841157D01*
X183883603Y-52918792D01*
X184732395Y-52070000D01*
X185091605Y-52070000D01*
X185940397Y-52918792D01*
X186189472Y-52841157D01*
X186315371Y-52577117D01*
X186387339Y-52293589D01*
X186402611Y-52001469D01*
X186373092Y-51798061D01*
X191459000Y-51798061D01*
X191459000Y-52001939D01*
X191498774Y-52201898D01*
X191576795Y-52390256D01*
X191690063Y-52559774D01*
X191834226Y-52703937D01*
X192003744Y-52817205D01*
X192192102Y-52895226D01*
X192392061Y-52935000D01*
X192595939Y-52935000D01*
X192795898Y-52895226D01*
X192856000Y-52870331D01*
X192856000Y-52890939D01*
X192895774Y-53090898D01*
X192973795Y-53279256D01*
X193087063Y-53448774D01*
X193231226Y-53592937D01*
X193400744Y-53706205D01*
X193589102Y-53784226D01*
X193789061Y-53824000D01*
X193992939Y-53824000D01*
X194192898Y-53784226D01*
X194291536Y-53743369D01*
X194291000Y-53746061D01*
X194291000Y-53949939D01*
X194330774Y-54149898D01*
X194408795Y-54338256D01*
X194522063Y-54507774D01*
X194666226Y-54651937D01*
X194835744Y-54765205D01*
X195024102Y-54843226D01*
X195224061Y-54883000D01*
X195427939Y-54883000D01*
X195461807Y-54876263D01*
X195434000Y-55016061D01*
X195434000Y-55219939D01*
X195473774Y-55419898D01*
X195551795Y-55608256D01*
X195665063Y-55777774D01*
X195809226Y-55921937D01*
X195978744Y-56035205D01*
X196167102Y-56113226D01*
X196367061Y-56153000D01*
X196570939Y-56153000D01*
X196770898Y-56113226D01*
X196959256Y-56035205D01*
X197128774Y-55921937D01*
X197272937Y-55777774D01*
X197386205Y-55608256D01*
X197464226Y-55419898D01*
X197504000Y-55219939D01*
X197504000Y-55157801D01*
X201334802Y-51327000D01*
X201396939Y-51327000D01*
X201596898Y-51287226D01*
X201785256Y-51209205D01*
X201954774Y-51095937D01*
X202098937Y-50951774D01*
X202212205Y-50782256D01*
X202290226Y-50593898D01*
X202330000Y-50393939D01*
X202330000Y-50190061D01*
X202290226Y-49990102D01*
X202212205Y-49801744D01*
X202098937Y-49632226D01*
X201954774Y-49488063D01*
X201785256Y-49374795D01*
X201596898Y-49296774D01*
X201396939Y-49257000D01*
X201193061Y-49257000D01*
X200993102Y-49296774D01*
X200933000Y-49321669D01*
X200933000Y-49174061D01*
X200893226Y-48974102D01*
X200815205Y-48785744D01*
X200701937Y-48616226D01*
X200557774Y-48472063D01*
X200388256Y-48358795D01*
X200199898Y-48280774D01*
X199999939Y-48241000D01*
X199796061Y-48241000D01*
X199596102Y-48280774D01*
X199407744Y-48358795D01*
X199238892Y-48471618D01*
X199244000Y-48445939D01*
X199244000Y-48242061D01*
X199204226Y-48042102D01*
X199126205Y-47853744D01*
X199012937Y-47684226D01*
X198868774Y-47540063D01*
X198699256Y-47426795D01*
X198510898Y-47348774D01*
X198310939Y-47309000D01*
X198107061Y-47309000D01*
X197970634Y-47336137D01*
X197934226Y-47153102D01*
X197856205Y-46964744D01*
X197742937Y-46795226D01*
X197598774Y-46651063D01*
X197429256Y-46537795D01*
X197240898Y-46459774D01*
X197040939Y-46420000D01*
X196837061Y-46420000D01*
X196637102Y-46459774D01*
X196448744Y-46537795D01*
X196279226Y-46651063D01*
X196135063Y-46795226D01*
X196021795Y-46964744D01*
X195943774Y-47153102D01*
X195904000Y-47353061D01*
X195904000Y-47415198D01*
X192454198Y-50865000D01*
X192392061Y-50865000D01*
X192192102Y-50904774D01*
X192003744Y-50982795D01*
X191834226Y-51096063D01*
X191690063Y-51240226D01*
X191576795Y-51409744D01*
X191498774Y-51598102D01*
X191459000Y-51798061D01*
X186373092Y-51798061D01*
X186360599Y-51711981D01*
X186262919Y-51436253D01*
X186189472Y-51298843D01*
X185940397Y-51221208D01*
X185091605Y-52070000D01*
X184732395Y-52070000D01*
X183883603Y-51221208D01*
X183634528Y-51298843D01*
X183508629Y-51562883D01*
X183436661Y-51846411D01*
X183421389Y-52138531D01*
X181298799Y-52138531D01*
X181310512Y-46140000D01*
X183423928Y-46140000D01*
X183423928Y-47840000D01*
X183436188Y-47964482D01*
X183472498Y-48084180D01*
X183531463Y-48194494D01*
X183610815Y-48291185D01*
X183707506Y-48370537D01*
X183817820Y-48429502D01*
X183890380Y-48451513D01*
X183758525Y-48583368D01*
X183596010Y-48826589D01*
X183484068Y-49096842D01*
X183427000Y-49383740D01*
X183427000Y-49676260D01*
X183484068Y-49963158D01*
X183596010Y-50233411D01*
X183758525Y-50476632D01*
X183965368Y-50683475D01*
X184138729Y-50799311D01*
X184063208Y-51041603D01*
X184912000Y-51890395D01*
X185760792Y-51041603D01*
X185685271Y-50799311D01*
X185858632Y-50683475D01*
X186065475Y-50476632D01*
X186227990Y-50233411D01*
X186339932Y-49963158D01*
X186397000Y-49676260D01*
X186397000Y-49383740D01*
X186339932Y-49096842D01*
X186227990Y-48826589D01*
X186065475Y-48583368D01*
X185933620Y-48451513D01*
X186006180Y-48429502D01*
X186116494Y-48370537D01*
X186213185Y-48291185D01*
X186292537Y-48194494D01*
X186351502Y-48084180D01*
X186387812Y-47964482D01*
X186400072Y-47840000D01*
X186400072Y-46140000D01*
X186398310Y-46122111D01*
X187244503Y-46968305D01*
X187268301Y-46997303D01*
X187384026Y-47092276D01*
X187516055Y-47162848D01*
X187659316Y-47206305D01*
X187770969Y-47217302D01*
X187770977Y-47217302D01*
X187808302Y-47220978D01*
X187845627Y-47217302D01*
X193281376Y-47217302D01*
X193318698Y-47220978D01*
X193356020Y-47217302D01*
X193356031Y-47217302D01*
X193467684Y-47206305D01*
X193610945Y-47162848D01*
X193742974Y-47092276D01*
X193844446Y-47009000D01*
X193903939Y-47009000D01*
X194103898Y-46969226D01*
X194292256Y-46891205D01*
X194461774Y-46777937D01*
X194605937Y-46633774D01*
X194719205Y-46464256D01*
X194797226Y-46275898D01*
X194837000Y-46075939D01*
X194837000Y-45872061D01*
X194797226Y-45672102D01*
X194719205Y-45483744D01*
X194605937Y-45314226D01*
X194461774Y-45170063D01*
X194292256Y-45056795D01*
X194103898Y-44978774D01*
X193903939Y-44939000D01*
X193700061Y-44939000D01*
X193500102Y-44978774D01*
X193311744Y-45056795D01*
X193142226Y-45170063D01*
X192998063Y-45314226D01*
X192884795Y-45483744D01*
X192806774Y-45672102D01*
X192801761Y-45697302D01*
X192284699Y-45697302D01*
X192284699Y-45630362D01*
X192244925Y-45430403D01*
X192166904Y-45242045D01*
X192053636Y-45072527D01*
X192009699Y-45028590D01*
X192009699Y-44404012D01*
X192065937Y-44347774D01*
X192179205Y-44178256D01*
X192257226Y-43989898D01*
X192297000Y-43789939D01*
X192297000Y-43586061D01*
X192257226Y-43386102D01*
X192179205Y-43197744D01*
X192065937Y-43028226D01*
X191921774Y-42884063D01*
X191752256Y-42770795D01*
X191563898Y-42692774D01*
X191363939Y-42653000D01*
X191160061Y-42653000D01*
X190960102Y-42692774D01*
X190771744Y-42770795D01*
X190602226Y-42884063D01*
X190569603Y-42916686D01*
X190528205Y-42816744D01*
X190414937Y-42647226D01*
X190270774Y-42503063D01*
X190101256Y-42389795D01*
X189912898Y-42311774D01*
X189712939Y-42272000D01*
X189509061Y-42272000D01*
X189309102Y-42311774D01*
X189120744Y-42389795D01*
X188976000Y-42486510D01*
X188831256Y-42389795D01*
X188642898Y-42311774D01*
X188442939Y-42272000D01*
X188239061Y-42272000D01*
X188039102Y-42311774D01*
X187850744Y-42389795D01*
X187681226Y-42503063D01*
X187537063Y-42647226D01*
X187519789Y-42673078D01*
X187476774Y-42630063D01*
X187307256Y-42516795D01*
X187118898Y-42438774D01*
X186918939Y-42399000D01*
X186715061Y-42399000D01*
X186515102Y-42438774D01*
X186326744Y-42516795D01*
X186157226Y-42630063D01*
X186013063Y-42774226D01*
X185899795Y-42943744D01*
X185821774Y-43132102D01*
X185782000Y-43332061D01*
X185782000Y-43535939D01*
X185821774Y-43735898D01*
X185899795Y-43924256D01*
X186013063Y-44093774D01*
X186057001Y-44137712D01*
X186057000Y-45428677D01*
X186053324Y-45466000D01*
X186057000Y-45503322D01*
X186057000Y-45503332D01*
X186064728Y-45581793D01*
X186006180Y-45550498D01*
X185886482Y-45514188D01*
X185762000Y-45501928D01*
X184062000Y-45501928D01*
X183937518Y-45514188D01*
X183817820Y-45550498D01*
X183707506Y-45609463D01*
X183610815Y-45688815D01*
X183531463Y-45785506D01*
X183472498Y-45895820D01*
X183436188Y-46015518D01*
X183423928Y-46140000D01*
X181310512Y-46140000D01*
X181334434Y-33889740D01*
X181903000Y-33889740D01*
X181903000Y-34182260D01*
X181960068Y-34469158D01*
X182072010Y-34739411D01*
X182234525Y-34982632D01*
X182441368Y-35189475D01*
X182615760Y-35306000D01*
X182441368Y-35422525D01*
X182234525Y-35629368D01*
X182072010Y-35872589D01*
X181960068Y-36142842D01*
X181903000Y-36429740D01*
X181903000Y-36722260D01*
X181960068Y-37009158D01*
X182072010Y-37279411D01*
X182234525Y-37522632D01*
X182441368Y-37729475D01*
X182684589Y-37891990D01*
X182954842Y-38003932D01*
X183241740Y-38061000D01*
X183534260Y-38061000D01*
X183821158Y-38003932D01*
X184091411Y-37891990D01*
X184334632Y-37729475D01*
X184541475Y-37522632D01*
X184703990Y-37279411D01*
X184787000Y-37079005D01*
X184787001Y-38316657D01*
X184787000Y-38316667D01*
X184787000Y-38558676D01*
X184783324Y-38595998D01*
X184787000Y-38633320D01*
X184787000Y-38633330D01*
X184797997Y-38744983D01*
X184841454Y-38888244D01*
X184912026Y-39020274D01*
X184927766Y-39039453D01*
X185006999Y-39135999D01*
X185036003Y-39159802D01*
X186132201Y-40256001D01*
X186156000Y-40285000D01*
X186271725Y-40379973D01*
X186403754Y-40450545D01*
X186547015Y-40494002D01*
X186658668Y-40504999D01*
X186658676Y-40504999D01*
X186696001Y-40508675D01*
X186733326Y-40504999D01*
X197537288Y-40504999D01*
X197587226Y-40554937D01*
X197756744Y-40668205D01*
X197945102Y-40746226D01*
X198145061Y-40786000D01*
X198348939Y-40786000D01*
X198548898Y-40746226D01*
X198737256Y-40668205D01*
X198906774Y-40554937D01*
X199050937Y-40410774D01*
X199164205Y-40241256D01*
X199242226Y-40052898D01*
X199282000Y-39852939D01*
X199282000Y-39649061D01*
X199242226Y-39449102D01*
X199170286Y-39275425D01*
X199177937Y-39267774D01*
X199195211Y-39241922D01*
X199238226Y-39284937D01*
X199407744Y-39398205D01*
X199596102Y-39476226D01*
X199796061Y-39516000D01*
X199999939Y-39516000D01*
X200199898Y-39476226D01*
X200388256Y-39398205D01*
X200557774Y-39284937D01*
X200676920Y-39165791D01*
X200745063Y-39267774D01*
X200889226Y-39411937D01*
X201058744Y-39525205D01*
X201247102Y-39603226D01*
X201447061Y-39643000D01*
X201650939Y-39643000D01*
X201850898Y-39603226D01*
X202039256Y-39525205D01*
X202208774Y-39411937D01*
X202352937Y-39267774D01*
X202466205Y-39098256D01*
X202544226Y-38909898D01*
X202584000Y-38709939D01*
X202584000Y-38506061D01*
X202544226Y-38306102D01*
X202466205Y-38117744D01*
X202352937Y-37948226D01*
X202208774Y-37804063D01*
X202039256Y-37690795D01*
X201850898Y-37612774D01*
X201650939Y-37573000D01*
X201588802Y-37573000D01*
X196594000Y-32578199D01*
X196594000Y-31429801D01*
X197524802Y-30499000D01*
X197586939Y-30499000D01*
X197786898Y-30459226D01*
X197975256Y-30381205D01*
X198144774Y-30267937D01*
X198288937Y-30123774D01*
X198402205Y-29954256D01*
X198480226Y-29765898D01*
X198520000Y-29565939D01*
X198520000Y-29362061D01*
X198480226Y-29162102D01*
X198402205Y-28973744D01*
X198288937Y-28804226D01*
X198144774Y-28660063D01*
X197975256Y-28546795D01*
X197786898Y-28468774D01*
X197586939Y-28429000D01*
X197383061Y-28429000D01*
X197183102Y-28468774D01*
X196994744Y-28546795D01*
X196825226Y-28660063D01*
X196755405Y-28729884D01*
X196751205Y-28719744D01*
X196637937Y-28550226D01*
X196493774Y-28406063D01*
X196324256Y-28292795D01*
X196135898Y-28214774D01*
X195935939Y-28175000D01*
X195732061Y-28175000D01*
X195532102Y-28214774D01*
X195343744Y-28292795D01*
X195199000Y-28389510D01*
X195054256Y-28292795D01*
X194865898Y-28214774D01*
X194665939Y-28175000D01*
X194462061Y-28175000D01*
X194262102Y-28214774D01*
X194073744Y-28292795D01*
X193904226Y-28406063D01*
X193860289Y-28450000D01*
X193362711Y-28450000D01*
X193318774Y-28406063D01*
X193149256Y-28292795D01*
X192960898Y-28214774D01*
X192760939Y-28175000D01*
X192557061Y-28175000D01*
X192357102Y-28214774D01*
X192168744Y-28292795D01*
X191999226Y-28406063D01*
X191855063Y-28550226D01*
X191741795Y-28719744D01*
X191663774Y-28908102D01*
X191624000Y-29108061D01*
X191624000Y-29311939D01*
X191663774Y-29511898D01*
X191741795Y-29700256D01*
X191855063Y-29869774D01*
X191999226Y-30013937D01*
X192168744Y-30127205D01*
X192357102Y-30205226D01*
X192557061Y-30245000D01*
X192760939Y-30245000D01*
X192960898Y-30205226D01*
X193149256Y-30127205D01*
X193318774Y-30013937D01*
X193362711Y-29970000D01*
X193860289Y-29970000D01*
X193904226Y-30013937D01*
X194073744Y-30127205D01*
X194262102Y-30205226D01*
X194312001Y-30215151D01*
X194312000Y-33051992D01*
X194308324Y-33089315D01*
X194312000Y-33126637D01*
X194312000Y-33126647D01*
X194322997Y-33238300D01*
X194346954Y-33317276D01*
X194366454Y-33381561D01*
X194437026Y-33513591D01*
X194476871Y-33562141D01*
X194531999Y-33629316D01*
X194561003Y-33653119D01*
X198482111Y-37574228D01*
X198475939Y-37573000D01*
X198272061Y-37573000D01*
X198072102Y-37612774D01*
X197883744Y-37690795D01*
X197714226Y-37804063D01*
X197670289Y-37848000D01*
X188155711Y-37848000D01*
X188111774Y-37804063D01*
X187942256Y-37690795D01*
X187753898Y-37612774D01*
X187553939Y-37573000D01*
X187350061Y-37573000D01*
X187150102Y-37612774D01*
X186961744Y-37690795D01*
X186792226Y-37804063D01*
X186648063Y-37948226D01*
X186534795Y-38117744D01*
X186456774Y-38306102D01*
X186436057Y-38410254D01*
X186307000Y-38281197D01*
X186307000Y-36716617D01*
X186334061Y-36722000D01*
X186537939Y-36722000D01*
X186737898Y-36682226D01*
X186926256Y-36604205D01*
X187095774Y-36490937D01*
X187139711Y-36447000D01*
X187473289Y-36447000D01*
X187517226Y-36490937D01*
X187686744Y-36604205D01*
X187875102Y-36682226D01*
X188075061Y-36722000D01*
X188278939Y-36722000D01*
X188478898Y-36682226D01*
X188667256Y-36604205D01*
X188836774Y-36490937D01*
X188980937Y-36346774D01*
X189094205Y-36177256D01*
X189172226Y-35988898D01*
X189212000Y-35788939D01*
X189212000Y-35585061D01*
X189172226Y-35385102D01*
X189094205Y-35196744D01*
X188980937Y-35027226D01*
X188836774Y-34883063D01*
X188667256Y-34769795D01*
X188478898Y-34691774D01*
X188278939Y-34652000D01*
X188075061Y-34652000D01*
X187875102Y-34691774D01*
X187686744Y-34769795D01*
X187517226Y-34883063D01*
X187473289Y-34927000D01*
X187139711Y-34927000D01*
X187095774Y-34883063D01*
X186926256Y-34769795D01*
X186737898Y-34691774D01*
X186537939Y-34652000D01*
X186334061Y-34652000D01*
X186134102Y-34691774D01*
X185945744Y-34769795D01*
X185776226Y-34883063D01*
X185632063Y-35027226D01*
X185560752Y-35133950D01*
X184829209Y-34402408D01*
X184873000Y-34182260D01*
X184873000Y-33889740D01*
X184815932Y-33602842D01*
X184703990Y-33332589D01*
X184541475Y-33089368D01*
X184334632Y-32882525D01*
X184152466Y-32760805D01*
X184269355Y-32691178D01*
X184485588Y-32496269D01*
X184659641Y-32262920D01*
X184784825Y-32000099D01*
X184829476Y-31852890D01*
X184708155Y-31623000D01*
X183515000Y-31623000D01*
X183515000Y-31643000D01*
X183261000Y-31643000D01*
X183261000Y-31623000D01*
X182067845Y-31623000D01*
X181946524Y-31852890D01*
X181991175Y-32000099D01*
X182116359Y-32262920D01*
X182290412Y-32496269D01*
X182506645Y-32691178D01*
X182623534Y-32760805D01*
X182441368Y-32882525D01*
X182234525Y-33089368D01*
X182072010Y-33332589D01*
X181960068Y-33602842D01*
X181903000Y-33889740D01*
X181334434Y-33889740D01*
X181350688Y-25566000D01*
X181899928Y-25566000D01*
X181899928Y-27266000D01*
X181912188Y-27390482D01*
X181948498Y-27510180D01*
X182007463Y-27620494D01*
X182086815Y-27717185D01*
X182183506Y-27796537D01*
X182293820Y-27855502D01*
X182366380Y-27877513D01*
X182234525Y-28009368D01*
X182072010Y-28252589D01*
X181960068Y-28522842D01*
X181903000Y-28809740D01*
X181903000Y-29102260D01*
X181960068Y-29389158D01*
X182072010Y-29659411D01*
X182234525Y-29902632D01*
X182441368Y-30109475D01*
X182623534Y-30231195D01*
X182506645Y-30300822D01*
X182290412Y-30495731D01*
X182116359Y-30729080D01*
X181991175Y-30991901D01*
X181946524Y-31139110D01*
X182067845Y-31369000D01*
X183261000Y-31369000D01*
X183261000Y-31349000D01*
X183515000Y-31349000D01*
X183515000Y-31369000D01*
X184708155Y-31369000D01*
X184829476Y-31139110D01*
X184784825Y-30991901D01*
X184659641Y-30729080D01*
X184485588Y-30495731D01*
X184269355Y-30300822D01*
X184152466Y-30231195D01*
X184334632Y-30109475D01*
X184541475Y-29902632D01*
X184703990Y-29659411D01*
X184815932Y-29389158D01*
X184873000Y-29102260D01*
X184873000Y-28809740D01*
X184815932Y-28522842D01*
X184703990Y-28252589D01*
X184541475Y-28009368D01*
X184409620Y-27877513D01*
X184482180Y-27855502D01*
X184592494Y-27796537D01*
X184689185Y-27717185D01*
X184768537Y-27620494D01*
X184827502Y-27510180D01*
X184863812Y-27390482D01*
X184876072Y-27266000D01*
X184876072Y-26264891D01*
X188296519Y-26264891D01*
X188393843Y-26539252D01*
X188542822Y-26789355D01*
X188737731Y-27005588D01*
X188971080Y-27179641D01*
X189233901Y-27304825D01*
X189381110Y-27349476D01*
X189611000Y-27228155D01*
X189611000Y-26035000D01*
X188417186Y-26035000D01*
X188296519Y-26264891D01*
X184876072Y-26264891D01*
X184876072Y-25566000D01*
X184874606Y-25551109D01*
X188296519Y-25551109D01*
X188417186Y-25781000D01*
X189611000Y-25781000D01*
X189611000Y-24587845D01*
X189865000Y-24587845D01*
X189865000Y-25781000D01*
X189885000Y-25781000D01*
X189885000Y-26035000D01*
X189865000Y-26035000D01*
X189865000Y-27228155D01*
X190094890Y-27349476D01*
X190242099Y-27304825D01*
X190504920Y-27179641D01*
X190738269Y-27005588D01*
X190814034Y-26921534D01*
X190838498Y-27002180D01*
X190897463Y-27112494D01*
X190976815Y-27209185D01*
X191073506Y-27288537D01*
X191183820Y-27347502D01*
X191303518Y-27383812D01*
X191428000Y-27396072D01*
X193128000Y-27396072D01*
X193252482Y-27383812D01*
X193372180Y-27347502D01*
X193482494Y-27288537D01*
X193579185Y-27209185D01*
X193658537Y-27112494D01*
X193717502Y-27002180D01*
X193753812Y-26882482D01*
X193766072Y-26758000D01*
X193766072Y-25058000D01*
X193753812Y-24933518D01*
X193717502Y-24813820D01*
X193658537Y-24703506D01*
X193579185Y-24606815D01*
X193482494Y-24527463D01*
X193372180Y-24468498D01*
X193252482Y-24432188D01*
X193128000Y-24419928D01*
X191428000Y-24419928D01*
X191303518Y-24432188D01*
X191183820Y-24468498D01*
X191073506Y-24527463D01*
X190976815Y-24606815D01*
X190897463Y-24703506D01*
X190838498Y-24813820D01*
X190814034Y-24894466D01*
X190738269Y-24810412D01*
X190504920Y-24636359D01*
X190242099Y-24511175D01*
X190094890Y-24466524D01*
X189865000Y-24587845D01*
X189611000Y-24587845D01*
X189381110Y-24466524D01*
X189233901Y-24511175D01*
X188971080Y-24636359D01*
X188737731Y-24810412D01*
X188542822Y-25026645D01*
X188393843Y-25276748D01*
X188296519Y-25551109D01*
X184874606Y-25551109D01*
X184863812Y-25441518D01*
X184827502Y-25321820D01*
X184768537Y-25211506D01*
X184689185Y-25114815D01*
X184592494Y-25035463D01*
X184482180Y-24976498D01*
X184362482Y-24940188D01*
X184238000Y-24927928D01*
X182538000Y-24927928D01*
X182413518Y-24940188D01*
X182293820Y-24976498D01*
X182183506Y-25035463D01*
X182086815Y-25114815D01*
X182007463Y-25211506D01*
X181948498Y-25321820D01*
X181912188Y-25441518D01*
X181899928Y-25566000D01*
X181350688Y-25566000D01*
X181354834Y-23443000D01*
X214120834Y-23443000D01*
X213995248Y-87757000D01*
M02*
